<?xml version="1.0" standalone="no"?>
<!DOCTYPE svg PUBLIC "-//W3C//DTD SVG 1.1//EN" "http://www.w3.org/Graphics/SVG/1.1/DTD/svg11.dtd" >
<svg xmlns="http://www.w3.org/2000/svg">
<metadata>
Created by FontPrep 20130207 at Sat Sep  3 16:00:52 2016
 By Gregorio Setti
(c)2010 Kai Bernau and Commercial Type.
</metadata>
<defs>
<font id="210e7928cae9ee993c2a8d51141202fc" horiz-adv-x='1024' >
  <font-face 
    font-family="LyonDisplay-Black"
    font-weight="900"
    font-stretch="normal"
    units-per-em="2048"
    panose-1="2 0 10 3 8 0 0 2 0 4"
    ascent="1556"
    descent="-492"
    x-height="1034"
    cap-height="1360"
    bbox="-385 -506 2736 2228"
    underline-thickness="102"
    underline-position="-102"
    unicode-range="U+0020-FB04"
  />
<missing-glyph horiz-adv-x="358" 
 />
    <glyph glyph-name="f_f" unicode="ff" horiz-adv-x="1503" 
d="M700 1417q-53 0 -98 -52q-59 -66 -55 -257l2 -74h309q6 49 31 125q-31 129 -83 194q-53 64 -106 64zM852 907h-301v-803l102 -24v-80h-628v80l127 26v801h-150v80l152 51q46 152 156 262q205 207 474 207q156 0 297 -86q164 127 371 127q134 0 238 -57t104 -155t-85 -134
q-85 -35 -185 -12l-66 219q-35 51 -94 51q-125 0 -119 -246l4 -180h271v-127h-269v-803l166 -24v-80h-674v82l109 24v801z" />
    <glyph glyph-name="f_i" unicode="fi" horiz-adv-x="1400" 
d="M743 0v82l109 24v801h-301v-803l102 -24v-80h-628v80l127 26v801h-150v80l152 51q29 158 137 277q109 119 252 176t295 57t262 -63t108 -156q0 -69 -60 -111t-136 -42t-105 12l-82 225q-53 47 -114 47q-172 0 -164 -319l2 -107h538l166 33v-961l127 -26v-80h-637z" />
    <glyph glyph-name="f_l" unicode="fl" horiz-adv-x="1390" 
d="M688 1458q-141 0 -139 -270v-154h303v185q-45 239 -164 239zM743 0v82l109 24v801h-301v-803l102 -24v-80h-628v80l127 26v801h-150v80l152 51q47 234 230 372t417 138q131 0 250 -71l200 57v-1428l123 -26v-80h-631z" />
    <glyph glyph-name="f_f_i" unicode="ffi" horiz-adv-x="2101" 
d="M700 1417q-53 0 -98 -52q-59 -66 -55 -257l2 -74h309q10 70 31 123q-31 131 -83 196q-53 64 -106 64zM743 0v82l109 24v801h-301v-803l102 -24v-80h-628v80l127 26v801h-150v80l152 51q46 152 156 262q205 207 474 207q162 0 303 -90q184 131 439 131q160 0 272 -63
t111 -156q-1 -69 -61 -111t-136 -42t-104 12l-82 225q-53 47 -115 47q-172 0 -164 -319l2 -107h539l166 33v-961l127 -26v-80h-637v82l108 24v801h-301v-803l103 -24v-80h-611z" />
    <glyph glyph-name="f_f_l" unicode="ffl" horiz-adv-x="2091" 
d="M700 1417q-53 0 -98 -52q-59 -66 -55 -257l2 -74h311q8 61 31 121q-31 133 -84 198q-54 64 -107 64zM1384 1458q-139 0 -135 -270v-154h303v185q-45 239 -168 239zM743 0v82l109 24v801h-301v-803l102 -24v-80h-628v80l127 26v801h-150v80l152 51q46 152 156 262
q205 207 474 207q160 0 306 -92q182 133 401 133q129 0 258 -71l203 57v-1428l123 -26v-80h-631v82l108 24v801h-301v-803l103 -24v-80h-611z" />
    <glyph glyph-name="f_b" unicode="fb" horiz-adv-x="2029" 
d="M1405 63q166 0 166 363q0 178 -82 306q-83 128 -189 128q-29 0 -49 -10v-662q51 -125 154 -125zM1264 -31q-180 0 -340 74l-72 33v1151q-53 231 -162 231q-143 0 -141 -272v-152h219v-127h-217v-803l166 -24v-80h-692v80l127 26v801h-150v80l152 51q47 234 230 372
t417 138q131 0 250 -71l200 57v-627q131 150 307 150t300 -122q124 -121 124 -325t-110 -351q-112 -146 -270 -218t-338 -72z" />
    <glyph glyph-name="f_f_b" unicode="ffb" horiz-adv-x="2729" 
d="M700 1417q-53 0 -98 -52q-59 -66 -55 -257l2 -74h311q8 63 31 119q-31 133 -84 199q-54 65 -107 65zM2105 63q166 0 166 363q0 178 -82 306t-188 128q-29 0 -49 -10v-662q51 -125 153 -125zM743 0v82l109 24v801h-301v-803l102 -24v-80h-628v80l127 26v801h-150v80
l152 51q46 152 156 262q205 207 474 207q160 0 306 -92q182 133 405 133q129 0 254 -71l203 57v-627q131 150 306 150t300 -122q125 -121 125 -325t-111 -350q-112 -146 -270 -219q-158 -72 -338 -72t-340 74l-72 33v1143q-47 240 -163 239q-141 0 -140 -272v-152h219v-127
h-217v-803l166 -24v-80h-674z" />
    <glyph glyph-name="f_f_h" unicode="ffh" horiz-adv-x="2752" 
d="M700 1417q-53 0 -98 -52q-59 -66 -55 -253l2 -78h311q8 63 31 119q-31 133 -84 199q-54 65 -107 65zM743 0v82l109 24v801h-301v-803l102 -24v-80h-628v80l127 26v801h-150v80l152 51q46 152 156 262q205 207 474 207q160 0 306 -92q182 133 405 133q129 0 254 -71
l203 57v-635q172 168 350 168q141 0 224 -81t83 -226v-654l127 -26v-80h-627v82l101 24v549q0 85 -44 137t-110 50t-104 -25v-711l96 -26v-80h-604v82l108 24v1121q-49 231 -163 231q-141 0 -140 -272v-152h219v-127h-217v-803l103 -24v-80h-611z" />
    <glyph glyph-name="f_f_j" unicode="ffj" horiz-adv-x="2093" 
d="M700 1417q-53 0 -98 -52q-59 -66 -55 -257l2 -74h311q8 61 31 117q-31 135 -84 201q-54 65 -107 65zM743 0v82l109 24v801h-301v-803l102 -24v-80h-628v80l127 26v801h-150v80l152 51q46 152 156 262q205 207 474 207q166 0 312 -96q195 137 444 137q150 0 260 -63
t109 -156q-1 -69 -61 -111t-136 -42t-104 12l-82 225q-53 47 -115 47q-172 0 -164 -319l2 -107h539l166 33v-891q0 -104 -2 -154t-16 -118q-24 -120 -128 -202q-104 -81 -241 -116t-221 -35l-13 43q49 42 63 52t51 46q36 36 47 60q47 101 53 156q5 55 5 121v878h-301v-803
l166 -24v-80h-674z" />
    <glyph glyph-name="f_f_k" unicode="ffk" horiz-adv-x="2732" 
d="M700 1417q-53 0 -98 -52q-59 -66 -55 -257l2 -74h311q8 63 31 119q-31 133 -84 199q-54 65 -107 65zM2505 -29q-131 0 -209 46t-139 163l-189 350l359 367l-189 59v78h561v-78l-174 -43l-229 -196l436 -684q-96 -62 -227 -62zM743 0v82l109 24v801h-301v-803l102 -24v-80
h-628v80l127 26v801h-150v80l152 51q46 152 156 262q205 207 474 207q160 0 306 -92q182 133 405 133q129 0 254 -71l203 57v-1428l116 -26v-80h-624v82l108 24v1121q-49 231 -168 231q-137 0 -135 -272v-152h219v-127h-217v-803l103 -24v-80h-611z" />
    <glyph glyph-name="f_h" unicode="fh" horiz-adv-x="2052" 
d="M743 0v82l109 24v1121q-53 231 -164 231q-141 0 -139 -270v-154h219v-127h-217v-803l102 -24v-80h-628v80l127 26v801h-150v80l152 51q47 234 230 372t417 138q131 0 250 -71l200 57v-635q172 168 351 168q141 0 224 -81t83 -226v-654l127 -26v-80h-627v82l100 24v549
q0 85 -44 137t-110 50t-104 -25v-711l97 -26v-80h-605z" />
    <glyph glyph-name="f_j" unicode="fj" horiz-adv-x="1392" 
d="M852 29v878h-301v-803l166 -24v-80h-692v80l127 26v801h-150v80l152 51q29 158 137 277q109 119 252 176t295 57t262 -63t108 -156q0 -69 -60 -111t-136 -42t-105 12l-82 225q-53 47 -114 47q-172 0 -164 -319l2 -107h538l166 33v-891q0 -183 -15 -262q-15 -78 -46 -124
t-84 -87q-104 -82 -242 -117t-221 -35l-12 43q49 42 63 52t50 46t48 60q46 93 52 152t6 125z" />
    <glyph glyph-name="f_k" unicode="fk" horiz-adv-x="2031" 
d="M1804 -29q-131 0 -209 46t-139 163l-188 350l358 367l-188 59v78h561v-78l-174 -43l-230 -196l437 -684q-97 -62 -228 -62zM743 0v82l109 24v1113q-18 104 -59 172t-103 67q-143 0 -141 -272v-152h219v-127h-217v-803l102 -24v-80h-628v80l127 26v801h-150v80l152 51
q47 234 230 372t417 138q131 0 250 -71l200 57v-1428l117 -26v-80h-625z" />
    <glyph glyph-name=".notdef" horiz-adv-x="358" 
 />
    <glyph glyph-name=".null" horiz-adv-x="0" 
 />
    <glyph glyph-name="nonmarkingreturn" horiz-adv-x="681" 
 />
    <glyph glyph-name="space" unicode=" " horiz-adv-x="358" 
 />
    <glyph glyph-name="exclam" unicode="!" horiz-adv-x="636" 
d="M316 -35q-77 0 -133 55q-56 56 -56 132t56 132t133 56q76 0 132 -55t56 -132t-55 -133q-56 -55 -133 -55zM78 1464h481l-209 -1044h-63z" />
    <glyph glyph-name="quotedbl" unicode="&#x22;" horiz-adv-x="983" 
d="M684 889l-133 577h315l-133 -577h-49zM250 889l-133 577h315l-133 -577h-49z" />
    <glyph glyph-name="numbersign" unicode="#" horiz-adv-x="1173" 
d="M457 799l-68 -379h322l67 379h-321zM137 799v94h248l57 324h88l-57 -324h322l57 324h88l-57 -324h235v-94h-252l-67 -379h229v-94h-246l-57 -326h-88l57 326h-321l-58 -326h-88l58 326h-238v94h254l68 379h-232z" />
    <glyph glyph-name="dollar" unicode="$" horiz-adv-x="1271" 
d="M487 1065q0 -72 34 -115t116 -76l61 371q-90 -4 -150 -56t-61 -124zM803 264q0 125 -158 178l-61 -362q92 8 156 56t63 128zM1090 877h-68l-119 297q-47 47 -127 63l-63 -391l151 -47q301 -94 301 -334q0 -153 -91 -269q-173 -220 -509 -227l-39 -237h-80l39 239
q-163 15 -319 78l-43 445h67l170 -344q61 -53 144 -68l63 383l-80 24q-338 102 -337 406q0 178 149 311q150 133 416 135l33 199h79l-34 -203q145 -14 297 -71v-389z" />
    <glyph glyph-name="percent" unicode="%" horiz-adv-x="1888" 
d="M1408 698q164 0 276 -100t112 -257t-114 -263t-283 -105q-171 1 -277 105t-106 257t114 258q115 105 278 105zM1362 623q-72 -1 -72 -153t48 -286t116 -135q68 1 68 155t-48 286t-112 133zM475 526q-170 0 -276 104q-107 104 -107 258q0 153 115 258t277 105t276 -100
q112 -100 112 -257q0 -156 -114 -262t-283 -106zM438 1176q-72 0 -72 -152t49 -288q48 -134 113 -134q70 0 70 154t-48 288q-48 132 -112 132zM406 -102l954 1390h102l-962 -1390h-94z" />
    <glyph glyph-name="ampersand" unicode="&#x26;" horiz-adv-x="1785" 
d="M732 1333q-70 0 -108 -39q-38 -38 -38 -102t39 -115t168 -172q100 100 100 240q0 84 -45 136t-116 52zM416 504q0 -122 92 -198q92 -75 202 -75t195 39l-174 187q-66 67 -158 153t-98 92q-59 -76 -59 -198zM1592 193q54 0 134 32l29 -45q-195 -215 -426 -215
q-101 0 -161 39t-177 172q-242 -217 -491 -217q-199 0 -319 111t-120 286q0 266 353 400q-162 150 -164 304t143 254q145 99 357 99t326 -76q116 -76 116 -192q0 -217 -338 -295q147 -139 221 -213q102 -109 111 -117q4 6 18 26t25 36l211 309l-213 61v82h561v-80l-195 -57
l-350 -442q96 -110 119 -139q24 -29 54 -58t49 -39t46 -18t81 -8z" />
    <glyph glyph-name="quotesingle" unicode="'" horiz-adv-x="548" 
d="M250 889l-133 577h315l-133 -577h-49z" />
    <glyph glyph-name="parenleft" unicode="(" horiz-adv-x="714" 
d="M160 560q0 267 128 515t343 424h108q-174 -207 -262 -432t-88 -508q0 -518 342 -928h-98q-219 172 -346 417t-127 512z" />
    <glyph glyph-name="parenright" unicode=")" horiz-adv-x="714" 
d="M553 568q0 -267 -128 -515t-343 -424h-109q174 207 263 432q88 225 88 508q0 518 -342 928h98q219 -172 346 -417t127 -512z" />
    <glyph glyph-name="asterisk" unicode="*" horiz-adv-x="806" 
d="M768 1055l-240 -45l-4 -254l-45 -8l-114 219l-244 -72l-21 35l185 178l-152 205l27 28l231 -106l144 197l38 -13l-36 -248l233 -77z" />
    <glyph glyph-name="plus" unicode="+" horiz-adv-x="1163" 
d="M1067 465h-430v-430h-111v430h-430v102h430v430h111v-430h430v-102z" />
    <glyph glyph-name="comma" unicode="," horiz-adv-x="630" 
d="M268 -20q0 140 -135 180q-10 86 38 145t143 59q96 0 150 -71q54 -72 54 -172q0 -151 -102 -269t-330 -231l-43 74q225 145 225 285z" />
    <glyph glyph-name="hyphen" unicode="-" horiz-adv-x="757" 
d="M123 487v213h512v-213h-512z" />
    <glyph glyph-name="period" unicode="." horiz-adv-x="550" 
d="M469 153q0 -77 -55 -133t-132 -55q-77 0 -134 55q-56 56 -56 132t56 132t134 56t132 -55q55 -55 55 -132z" />
    <glyph glyph-name="slash" unicode="/" horiz-adv-x="847" 
d="M45 -449l-88 35l737 1960l92 -37z" />
    <glyph glyph-name="zero" unicode="0" horiz-adv-x="1347" 
d="M664 -31q-258 0 -421 164q-163 163 -163 403t174 406t423 166t420 -158t171 -404t-173 -411q-173 -166 -431 -166zM598 1026q-109 0 -109 -256q0 -158 35 -324q34 -166 96 -280t124 -115q62 0 84 68q24 67 24 217t-34 310t-94 270t-126 110z" />
    <glyph glyph-name="one" unicode="1" horiz-adv-x="960" 
d="M715 1112v-993l225 -35v-84h-877v84l248 35v751h-270v86l666 156h8z" />
    <glyph glyph-name="two" unicode="2" horiz-adv-x="1046" 
d="M1012 281v-281h-961v111l197 157q180 146 244 232t63 167q0 81 -52 132t-128 51q-127 0 -240 -160l-69 25q53 197 172 299q118 102 280 102t270 -90t109 -230q0 -140 -91 -237q-91 -98 -300 -221l-98 -57h604z" />
    <glyph glyph-name="three" unicode="3" horiz-adv-x="1048" 
d="M379 -442q-155 0 -271 62t-116 167q0 70 54 113t142 37l207 -297q104 10 175 82t71 198q0 125 -109 219t-315 101v133l80 10q167 61 233 131t66 160t-54 140t-136 50q-160 0 -261 -168l-77 27q51 182 164 288q114 105 291 105t287 -92t110 -240q0 -219 -293 -340l-49 -20
v-10q196 0 314 -98t118 -254q0 -158 -98 -275t-238 -173q-141 -56 -295 -56z" />
    <glyph glyph-name="four" unicode="4" horiz-adv-x="1355" 
d="M672 289v434l-402 -434h402zM672 -389v416h-606v166l847 913l119 -19v-798h254v-262h-254v-416h-360z" />
    <glyph glyph-name="five" unicode="5" horiz-adv-x="919" 
d="M416 45q0 123 -74 209t-227 172l182 645h510v-315h-518l-8 -29q260 -96 384 -226t123 -315q0 -293 -328 -495q-189 -116 -429 -183l-25 56q184 80 297 202t113 279z" />
    <glyph glyph-name="six" unicode="6" horiz-adv-x="1368" 
d="M594 877h-21q-61 -141 -61 -338t77 -343t173 -147q141 0 141 281q0 199 -83 373t-226 174zM817 991q193 0 335 -128t142 -343q0 -145 -59 -258t-155 -175q-194 -126 -390 -126q-260 0 -430 169t-170 450q0 170 96 332t253 282q157 121 353 208t400 126l22 -74
q-453 -223 -608 -510q100 47 211 47z" />
    <glyph glyph-name="seven" unicode="7" horiz-adv-x="1110" 
d="M72 702v369h1022v-8l-701 -1215l-151 -278l-131 53l686 1079h-725z" />
    <glyph glyph-name="eight" unicode="8" horiz-adv-x="1269" 
d="M455 1165q0 -147 174 -237l141 -76q49 88 49 209q1 121 -67 195t-142 73q-74 0 -114 -45q-41 -45 -41 -119zM430 362q0 -132 70 -226t174 -95q63 0 107 50t44 141t-62 164q-63 73 -202 145l-82 41q-49 -88 -49 -220zM70 301q0 121 98 201t231 123q-141 77 -207 157
t-65 203q0 162 148 291t384 129t360 -94t124 -212t-89 -187t-206 -101l65 -33q287 -150 287 -362t-167 -334q-167 -123 -418 -123t-398 92t-147 250z" />
    <glyph glyph-name="nine" unicode="9" horiz-adv-x="1351" 
d="M780 221h31q41 123 41 309t-74 342t-174 156q-139 0 -139 -272q0 -125 35 -245q34 -120 108 -205t172 -85zM72 586q0 131 55 235q98 185 331 262q99 33 197 33q261 0 443 -173t182 -443q0 -170 -75 -318t-189 -249q-116 -101 -268 -183q-263 -141 -572 -201l-22 74
q270 137 420 265t217 278q-113 -59 -240 -60q-195 0 -337 130t-142 350z" />
    <glyph glyph-name="colon" unicode=":" horiz-adv-x="630" 
d="M318 1040q78 0 134 -56t56 -133t-56 -132t-134 -55q-77 0 -131 55t-54 132t54 133t131 56zM512 153q0 -77 -55 -133t-132 -55q-77 0 -132 55q-55 56 -55 132t54 132q56 56 133 56t132 -55t55 -132z" />
    <glyph glyph-name="semicolon" unicode=";" horiz-adv-x="636" 
d="M329 664q-77 0 -131 55t-54 132t54 133t131 56t133 -56t56 -133t-56 -132t-133 -55zM528 121q0 -151 -102 -269t-330 -231l-43 74q225 145 225 285t-135 180q-10 86 38 145t143 59q96 0 150 -71q54 -72 54 -172z" />
    <glyph glyph-name="less" unicode="&#x3c;" horiz-adv-x="1204" 
d="M1087 891l-806 -375l806 -375v-116l-970 458v68l970 457v-117z" />
    <glyph glyph-name="equal" unicode="=" horiz-adv-x="1163" 
d="M1067 319h-971v101h971v-101zM1067 606h-971v101h971v-101z" />
    <glyph glyph-name="greater" unicode="&#x3e;" horiz-adv-x="1204" 
d="M117 141l807 375l-807 375v117l970 -459v-68l-970 -456v116z" />
    <glyph glyph-name="question" unicode="?" horiz-adv-x="950" 
d="M310 -35q-77 0 -133 55q-56 56 -56 132t56 132t133 56t132 -55q56 -55 56 -132t-56 -133t-132 -55zM864 934q0 -150 -70 -234t-243 -122l-207 -48v-110h-84l-67 399l407 80q102 17 139 37t37 51q0 53 -99 77t-401 38l-120 6v383l120 -29q264 -59 426 -201t162 -327z" />
    <glyph glyph-name="at" unicode="@" horiz-adv-x="1974" 
d="M854 285q37 1 109 113t120 264l52 163q-37 39 -66 39q-88 0 -168 -185t-76 -341q0 -53 29 -53zM659 59q-79 1 -125 55t-47 142q0 139 79 295q79 155 216 265t283 110q47 0 117 -19l32 66h252l-137 -559q-29 -140 -5 -190t99 -50q115 0 208 128t95 351q4 275 -173 451
t-453 176q-203 0 -383 -101t-300 -303t-122 -464q-3 -328 193 -511t495 -184q209 0 358 64v-43q-63 -41 -191 -73t-243 -32q-358 -1 -597 189t-236 553q2 207 97 393q182 357 598 517q196 75 394 75q319 0 529 -190t206 -470q-2 -166 -68 -297t-171 -205
q-210 -150 -436 -151q-129 1 -187 73t-30 185l14 60h-10l-43 -68q-152 -238 -308 -238z" />
    <glyph glyph-name="A" unicode="A" horiz-adv-x="1466" 
d="M569 979l-163 -430h313zM-2 0v84l125 35l512 1253l203 41l512 -1304l118 -25v-84h-755v84l159 29l-114 327h-393l-119 -313l221 -43v-84h-469z" />
    <glyph glyph-name="B" unicode="B" horiz-adv-x="1406" 
d="M897 1014q0 108 -85 180q-85 74 -204 82v-524q162 25 226 89q63 65 63 173zM608 674v-436q0 -68 46 -110t124 -42t130 64t52 189q0 127 -81 221q-82 94 -211 114h-60zM1298 1059q0 -258 -432 -332v-6q246 -4 383 -90t137 -252q0 -203 -170 -294t-503 -89l-676 4v84
l158 37v1118l-158 37v84l665 6q596 4 596 -307z" />
    <glyph glyph-name="C" unicode="C" horiz-adv-x="1486" 
d="M903 -23q-409 0 -623 201t-214 501t251 511q252 211 615 211q217 0 446 -103v-421h-67l-176 329q-115 113 -253 113t-233 -145q-94 -145 -94 -435q0 -289 113 -479t288 -190q86 0 148 36l272 388h70l-94 -435q-244 -82 -449 -82z" />
    <glyph glyph-name="D" unicode="D" horiz-adv-x="1626" 
d="M37 0v84l158 37v1118l-158 37v84h725q373 0 593 -181t220 -462t-208 -489q-103 -104 -285 -166t-414 -62h-631zM780 84q135 0 238 149q102 150 102 398q0 299 -140 474q-141 175 -372 189v-1149q66 -61 172 -61z" />
    <glyph glyph-name="E" unicode="E" horiz-adv-x="1333" 
d="M614 647v-502q57 -61 162 -61h197l237 420h78l-76 -504h-1175v84l158 37v1118l-158 37v84h1208v-428h-78l-147 342h-406v-524h185l69 241h80v-573h-80l-69 229h-185z" />
    <glyph glyph-name="F" unicode="F" horiz-adv-x="1265" 
d="M614 621v-500l213 -33v-88h-790v84l158 37v1118l-158 37v84h1167v-422h-78l-149 334h-363v-553h226l69 244h80v-576h-80l-69 234h-226z" />
    <glyph glyph-name="G" unicode="G" horiz-adv-x="1646" 
d="M896 -25q-208 1 -377 61t-264 160q-189 200 -189 461q0 223 124 396q125 172 327 260t425 88t500 -82l26 -442h-65l-238 352q-119 88 -237 88q-176 0 -280 -162t-103 -418q0 -319 119 -492t301 -173q74 0 133 28v449l-228 33v102h756v-96l-127 -33v-479l-82 -21
q-313 -80 -521 -80z" />
    <glyph glyph-name="H" unicode="H" horiz-adv-x="1746" 
d="M971 0v84l162 37v516h-519v-516l158 -37v-84h-735v84l158 37v1118l-158 37v84h735v-84l-158 -37v-487h519v487l-158 37v84h735v-84l-158 -37v-1118l158 -37v-84h-739z" />
    <glyph glyph-name="I" unicode="I" horiz-adv-x="808" 
d="M37 0v84l158 37v1118l-158 37v84h735v-84l-158 -37v-1118l158 -37v-84h-735z" />
    <glyph glyph-name="J" unicode="J" horiz-adv-x="796" 
d="M614 203q0 -303 -168 -449t-516 -168l-10 52q172 104 223 190t52 260v1151l-179 37v84h756v-84l-158 -37v-1036z" />
    <glyph glyph-name="K" unicode="K" horiz-adv-x="1601" 
d="M985 1360h520v-84l-186 -43l-336 -375l500 -747l131 -27v-84h-543l-418 621v10l527 606l-195 39v84zM37 0v84l158 37v1118l-158 37v84h735v-84l-158 -37v-1118l158 -37v-84h-735z" />
    <glyph glyph-name="L" unicode="L" horiz-adv-x="1294" 
d="M778 86h146l264 477h76l-103 -563h-1124v84l158 37v1118l-158 37v84h735v-84l-158 -37v-1094q57 -59 164 -59z" />
    <glyph glyph-name="M" unicode="M" horiz-adv-x="1941" 
d="M16 0v84l164 37l76 1120l-174 35v84h598l315 -737l265 653l22 84h578v-84l-154 -35l61 -1120l158 -37v-84h-723v84l144 37l-48 1016l-440 -1098h-53l-98 250l-361 819l-47 -981l227 -41v-86h-510z" />
    <glyph glyph-name="N" unicode="N" horiz-adv-x="1511" 
d="M559 0h-514v84l158 35v1014q-88 111 -162 133l-39 12v82h539l690 -815l-12 676l-222 57v82h506v-82l-157 -43v-1098l4 -131l-183 -33l-850 1008l15 -856l227 -41v-84z" />
    <glyph glyph-name="O" unicode="O" horiz-adv-x="1656" 
d="M831 1401q309 0 534 -176q111 -87 175 -223t64 -304q0 -313 -238 -518t-547 -205q-209 0 -381 82t-278 244t-107 377q1 303 235 513t543 210zM793 1309q-121 1 -196 -143t-75 -436t100 -477t230 -185q131 0 207 141t76 424q1 283 -93 479t-249 197z" />
    <glyph glyph-name="P" unicode="P" horiz-adv-x="1327" 
d="M909 978q0 122 -74 212q-75 90 -221 94v-1163l166 -37v-84h-743v84l158 37v1118l-158 37v84l647 2q272 2 442 -92t170 -254q0 -131 -96 -226q-96 -96 -232 -138t-284 -38v76q98 14 162 90q63 76 63 198z" />
    <glyph glyph-name="Q" unicode="Q" horiz-adv-x="1656" 
d="M793 1311q-121 -1 -196 -145t-75 -448t98 -482t231 -179q134 -1 209 139t75 431q-1 291 -93 487t-249 197zM53 678q1 303 235 513t543 210t534 -176q111 -87 175 -223t64 -304q0 -238 -144 -414t-366 -253q130 -105 206 -159t190 -102t245 -48t260 75l24 -35
q-193 -206 -520 -206t-631 203q-111 75 -173 125t-183 151q-209 73 -334 239t-125 404z" />
    <glyph glyph-name="R" unicode="R" horiz-adv-x="1505" 
d="M608 684h146q86 28 141 104t55 168q0 139 -97 224q-98 84 -245 96v-592zM37 0v84l158 37v1118l-158 37v84h622q355 0 519 -96t163 -250q0 -229 -290 -342v-10l323 -551l131 -27v-84h-516l-346 590h-35v-469l146 -37v-84h-717z" />
    <glyph glyph-name="S" unicode="S" horiz-adv-x="1191" 
d="M532 63q104 -1 164 57q59 58 60 142q0 84 -43 130t-146 83l-118 45q-336 125 -336 420q0 176 151 317q152 141 430 142q174 0 365 -80v-395h-68l-155 344q-56 49 -152 49t-158 -55q-62 -56 -61 -142q0 -86 55 -136t178 -95l140 -49q288 -104 288 -348t-177 -380
q-177 -138 -425 -139q-178 0 -407 82l-45 461h65l199 -379q92 -74 196 -74z" />
    <glyph glyph-name="T" unicode="T" horiz-adv-x="1345" 
d="M1315 1360v-455h-64l-145 350h-223v-1134l200 -37v-84h-823v84l203 37v1134h-223l-146 -350h-63v455h1284z" />
    <glyph glyph-name="U" unicode="U" horiz-adv-x="1513" 
d="M1348 567q0 -283 -148 -441t-428 -157q-282 0 -443 130t-161 413v727l-158 37v84h783v-84l-201 -37v-723q0 -184 88 -275t223 -91t226 90t90 272l-5 723l-202 41v84h491v-84l-155 -41v-668z" />
    <glyph glyph-name="V" unicode="V" horiz-adv-x="1425" 
d="M-2 1360h758v-84l-185 -41l303 -866l314 866l-199 41v84h438v-84l-127 -41l-485 -1258h-207l-493 1264l-117 35v84z" />
    <glyph glyph-name="W" unicode="W" horiz-adv-x="2125" 
d="M-2 1360h684v-84l-121 -35l256 -868l201 585l-96 283l-88 35v84h690v-84l-168 -35l258 -838l272 826l-180 47v84h422v-84l-129 -41l-436 -1260h-203l-295 846l-309 -846h-201l-436 1266l-121 33v86z" />
    <glyph glyph-name="X" unicode="X" horiz-adv-x="1490" 
d="M27 1360h784v-84l-156 -35l222 -381h4l260 375l-172 41v84h467v-84l-156 -43l-344 -469l399 -643l156 -37v-84h-799v86l156 35l-236 405h-4l-282 -401l170 -41v-84h-486v84l164 37l379 500l-383 620l-143 35v84z" />
    <glyph glyph-name="Y" unicode="Y" horiz-adv-x="1404" 
d="M1085 0h-741v82l162 39v407l-381 711l-127 37v84h776v-84l-201 -37l289 -590l293 586l-211 41v84h463v-84l-133 -41l-350 -662v-452l161 -39v-82z" />
    <glyph glyph-name="Z" unicode="Z" horiz-adv-x="1355" 
d="M51 0v86l688 1171h-432l-174 -358h-67l14 461h1180v-25l-754 -1235h534l236 394h70l-91 -494h-1204z" />
    <glyph glyph-name="bracketleft" unicode="[" horiz-adv-x="655" 
d="M625 -371h-459v1872h459v-98h-205v-1675h205v-99z" />
    <glyph glyph-name="backslash" unicode="\" horiz-adv-x="847" 
d="M899 -414l-88 -35l-741 1958l92 37z" />
    <glyph glyph-name="bracketright" unicode="]" horiz-adv-x="655" 
d="M31 1501h458v-1872h-458v99h205v1675h-205v98z" />
    <glyph glyph-name="asciicircum" unicode="^" horiz-adv-x="1024" 
d="M193 993h-101l367 555h106l365 -555h-125l-301 379z" />
    <glyph glyph-name="underscore" unicode="_" horiz-adv-x="835" 
d="M8 -471v102h819v-102h-819z" />
    <glyph glyph-name="grave" unicode="`" 
d="M213 1587h285l108 -395h-84l-309 381v14z" />
    <glyph glyph-name="a" unicode="a" horiz-adv-x="1138" 
d="M532 168q48 0 78 22v320h-2q-197 -57 -196 -199q0 -67 36 -105t84 -38zM330 -31q-127 0 -205 79t-78 197q0 117 85 185t286 115l192 45v180q-20 182 -151 182q-33 0 -53 -10l-5 -262q-61 -29 -168 -29q-154 0 -153 131q0 106 165 196t376 89q379 0 378 -342v-506
q-1 -57 17 -71t67 -15h62v-59q-176 -100 -318 -101q-92 0 -143 38t-59 130h-9q-108 -172 -286 -172z" />
    <glyph glyph-name="b" unicode="b" horiz-adv-x="1290" 
d="M650 63q186 1 186 369q0 178 -82 304q-82 128 -189 128q-29 0 -53 -10v-678q45 -113 138 -113zM526 -31q-178 0 -342 74l-71 33v1171l-123 86v43l522 152v-621q131 150 306 150t300 -122q125 -121 125 -325t-110 -351q-111 -146 -269 -218q-160 -72 -338 -72z" />
    <glyph glyph-name="c" unicode="c" horiz-adv-x="1067" 
d="M567 -27q-240 0 -380 154q-140 155 -140 393t169 392t402 155q168 0 278 -80t110 -192q0 -76 -52 -115t-131 -39q-78 0 -114 21l-60 288q-35 37 -97 37t-105 -76q-42 -76 -41 -192q0 -238 108 -361t268 -122q106 0 199 45l31 14l24 -43q-178 -279 -469 -279z" />
    <glyph glyph-name="d" unicode="d" horiz-adv-x="1302" 
d="M707 160q33 0 57 12v672q-70 127 -147 127t-125 -83q-48 -84 -48 -278t80 -322t183 -128zM472 -31q-185 1 -305 139t-120 378t187 399q187 158 468 157h62v242l-168 84v39l567 127v-1391l109 -28v-68l-465 -72l-31 131q-119 -137 -304 -137z" />
    <glyph glyph-name="e" unicode="e" horiz-adv-x="1112" 
d="M519 975q-56 0 -93 -71t-39 -220h272q-6 127 -45 209t-95 82zM557 -27q-223 0 -367 155q-143 155 -143 386t169 392t376 161t313 -120t135 -345h-651q16 -176 132 -273q209 -174 501 -36l31 -45q-211 -275 -496 -275z" />
    <glyph glyph-name="f" unicode="f" horiz-adv-x="802" 
d="M25 0v80l127 26v801h-150v80l152 51l12 52q49 206 216 332t370 126q135 0 238 -57q104 -57 104 -155t-85 -134q-85 -35 -186 -12l-65 219q-35 51 -94 51q-125 0 -119 -246l4 -180h268v-127h-266v-801l166 -26v-80h-692z" />
    <glyph glyph-name="g" unicode="g" horiz-adv-x="1191" 
d="M528 985q-46 0 -72 -51q-26 -50 -23 -162t52 -212t117 -97q45 0 72 53q26 53 26 166t-52 208t-120 95zM608 -360q144 0 226 54t81 116q0 34 -22 60t-59 34l-521 22q-25 -39 -24 -84q0 -98 87 -150q88 -52 232 -52zM201 -35q-142 61 -142 204q1 69 49 131t164 140v6
q-86 45 -133 117t-47 154q0 156 138 252t335 96q90 0 301 -49l326 31v-146l-242 14l-6 -10q94 -82 94 -192q0 -139 -126 -237t-341 -97q-121 0 -215 31q-25 -25 -24 -54q0 -72 102 -73l447 -13q137 -4 208 -74t70 -184q0 -207 -212 -353t-496 -146q-211 1 -319 67t-107 174
q0 133 176 201v10z" />
    <glyph glyph-name="h" unicode="h" horiz-adv-x="1351" 
d="M709 0v82l100 24v549q0 85 -44 137q-45 52 -111 50t-103 -25v-711l96 -26v-80h-622v80l127 26v1156l-123 81v43l522 148v-635q172 168 350 168q141 0 224 -81t83 -226v-654l127 -26v-80h-626z" />
    <glyph glyph-name="i" unicode="i" horiz-adv-x="706" 
d="M561 1349q0 -79 -56 -133t-135 -55q-79 0 -133 54q-55 53 -55 133t54 136t134 56q79 0 135 -56t56 -135zM27 0v80l131 26v711l-129 105v41l530 104v-961l129 -26v-80h-661z" />
    <glyph glyph-name="j" unicode="j" horiz-adv-x="698" 
d="M559 1349q0 -79 -56 -133t-135 -55q-79 0 -134 54q-54 53 -54 133t54 136t134 56t135 -56q56 -56 56 -135zM158 29v788l-129 105v41l530 104v-856q0 -213 -27 -319t-131 -189q-104 -82 -237 -117t-213 -35l-12 43q49 42 63 52t50 46t47 60q47 100 53 155q6 56 6 122z" />
    <glyph glyph-name="k" unicode="k" horiz-adv-x="1331" 
d="M1104 -29q-131 0 -209 46t-139 163l-189 350l359 367l-189 59v78h561v-78l-174 -43l-229 -196l436 -684q-96 -62 -227 -62zM668 0h-643v80l127 26v1156l-123 81v43l522 148v-1428l117 -26v-80z" />
    <glyph glyph-name="l" unicode="l" horiz-adv-x="690" 
d="M25 0v80l127 26v1156l-123 81v43l522 148v-1428l123 -26v-80h-649z" />
    <glyph glyph-name="m" unicode="m" horiz-adv-x="2009" 
d="M1366 0v82l100 24v547q0 89 -44 139t-107 50t-107 -25v-711l97 -26v-80h-596v82l100 24v549q0 87 -43 137q-44 50 -108 50t-107 -27v-709l96 -26v-80h-622v80l127 26v711l-123 90v43l463 121h10l22 -192h4q182 188 373 188q225 0 281 -188h4q182 188 373 188
q141 0 224 -81t83 -226v-654l127 -26v-80h-627z" />
    <glyph glyph-name="n" unicode="n" horiz-adv-x="1351" 
d="M25 0v80l127 26v711l-123 90v43l463 121h10l22 -192h4q182 188 373 188q141 0 224 -81t83 -226v-654l127 -26v-80h-626v82l100 24v549q0 85 -44 137q-45 52 -111 50t-103 -25v-711l96 -26v-80h-622z" />
    <glyph glyph-name="o" unicode="o" horiz-adv-x="1290" 
d="M1239 524q0 -240 -169 -398t-435 -157q-266 0 -425 157q-159 156 -159 390t171 392t426 157q255 0 423 -151q168 -150 168 -390zM606 985q-137 0 -137 -338q0 -244 61 -421t152 -177q135 0 135 354q0 236 -58 409q-59 173 -153 173z" />
    <glyph glyph-name="p" unicode="p" horiz-adv-x="1329" 
d="M600 864q-25 0 -49 -10v-680q45 -111 134 -111q89 1 139 95t50 280t-82 306t-192 120zM0 -430v80l152 26v1141l-123 90v43l463 121h10l20 -192h4q135 176 338 176q166 0 292 -122t126 -339q0 -266 -197 -439t-452 -173h-82v-297l227 -37v-78h-778z" />
    <glyph glyph-name="q" unicode="q" horiz-adv-x="1304" 
d="M713 162q33 0 51 8v684q-66 117 -152 117q-66 0 -114 -80q-48 -79 -49 -277q0 -198 82 -325t182 -127zM537 -430v78l227 37v413q-119 -129 -294 -129t-299 137t-124 367q0 170 90 304t221 200q132 65 260 65t205 -43l334 66h6v-1389l152 -26v-80h-778z" />
    <glyph glyph-name="r" unicode="r" horiz-adv-x="972" 
d="M25 0v80l127 26v711l-123 90v43l471 121h12l14 -274h11l32 71q45 100 101 148t140 49q83 0 138 -49q56 -49 56 -142q0 -92 -68 -148t-199 -54l-104 114q-27 -12 -51 -41t-31 -61v-578l192 -26v-80h-718z" />
    <glyph glyph-name="s" unicode="s" horiz-adv-x="993" 
d="M408 -31q-147 0 -328 64l-14 344h67l143 -264q52 -57 132 -57t124 36q44 37 43 98q0 100 -118 144l-150 55q-229 84 -229 320q0 160 132 261t361 101q145 0 308 -61v-320h-62l-129 242q-62 51 -128 51t-106 -35t-40 -90q0 -96 127 -145l147 -56q240 -88 240 -292
q0 -174 -148 -285t-372 -111z" />
    <glyph glyph-name="t" unicode="t" horiz-adv-x="823" 
d="M430 -31q-303 0 -299 314l6 624h-149v76l151 57l359 244h32v-250h301v-127h-301v-631q37 -135 199 -135q41 0 92 11l13 -68q-209 -115 -404 -115z" />
    <glyph glyph-name="u" unicode="u" horiz-adv-x="1331" 
d="M532 358q0 -172 132 -172q70 0 120 25v643l-120 66v51l520 92v-922l127 -24v-68l-496 -72l-24 158q-178 -166 -353 -166q-116 0 -211 64q-94 64 -94 246v563l-123 67v49l522 97v-697z" />
    <glyph glyph-name="v" unicode="v" horiz-adv-x="1087" 
d="M-25 1034h650v-78l-133 -18l180 -524l10 -43h2l12 43l195 518l-121 24v78h344v-78l-100 -20l-402 -963h-147l-402 963l-88 20v78z" />
    <glyph glyph-name="w" unicode="w" horiz-adv-x="1699" 
d="M1323 1034h397v-78l-112 -20l-326 -963h-164l-235 523l-21 53h-2l-18 -51l-215 -525h-168l-365 963l-114 20v78h698v-78l-146 -20l154 -465l19 -68h2l22 68l217 563h121l254 -575l16 -47h2l146 520l-162 24v78z" />
    <glyph glyph-name="x" unicode="x" horiz-adv-x="1220" 
d="M1202 0h-637v82l92 24l-163 259l-183 -254l99 -33v-78h-383v78l129 33l278 346l-313 481l-84 20v76h629v-78l-93 -18l146 -233l170 227l-105 26v76h369v-78l-117 -24l-260 -318l330 -508l96 -26v-80z" />
    <glyph glyph-name="y" unicode="y" horiz-adv-x="1099" 
d="M788 1034h322v-78l-88 -20l-492 -1188q-92 -223 -256 -223q-78 0 -135 55t-57 139q0 85 56 139t136 54q129 0 175 -125h4l45 111l-430 1040l-78 18v78h631v-78l-125 -16l192 -573l211 565l-111 24v78z" />
    <glyph glyph-name="z" unicode="z" horiz-adv-x="1075" 
d="M37 0v49l518 883h-272l-146 -316h-67v443l184 -25h776v-12l-538 -920h280l195 342h71l-47 -444h-954z" />
    <glyph glyph-name="braceleft" unicode="{" horiz-adv-x="671" 
d="M662 -291v-80l-35 -2q-233 -14 -337 82q-103 96 -89 279l30 381q7 81 -15 113t-83 34l-82 2v94l82 2q61 2 83 35t15 113l-30 381q-14 182 89 278t337 82l35 -2v-78q-115 0 -158 -46t-41 -167l8 -381q2 -139 -54 -193t-222 -67v-10q168 -14 223 -66t53 -198l-8 -375
q-2 -121 41 -166t158 -45z" />
    <glyph glyph-name="bar" unicode="|" horiz-adv-x="471" 
d="M283 -430h-95v1964h95v-1964z" />
    <glyph glyph-name="braceright" unicode="}" horiz-adv-x="671" 
d="M10 1421v80l35 2q233 14 337 -82t89 -278l-31 -381q-6 -80 16 -113t83 -35l82 -2v-94l-82 -2q-61 -2 -83 -35t-16 -112l31 -381q14 -182 -89 -278t-337 -83l-35 2v78q115 0 158 46t41 167l-8 381q-2 139 54 193t222 67v10q-168 15 -223 67t-53 198l8 374q2 121 -41 166
t-158 45z" />
    <glyph glyph-name="asciitilde" unicode="~" horiz-adv-x="1110" 
d="M80 371l-57 26l22 64q135 389 479 270l146 -49q145 -55 210 -43t148 129l55 -27l-22 -65q-78 -207 -197 -280t-301 -9l-106 37q-171 66 -237 58t-140 -111z" />
    <glyph glyph-name="uni00A0" unicode="&#xa0;" horiz-adv-x="358" 
 />
    <glyph glyph-name="exclamdown" unicode="&#xa1;" horiz-adv-x="636" 
d="M321 1257q77 0 133 -55t56 -131t-56 -132t-133 -56t-133 55q-55 55 -55 132t55 132q56 55 133 55zM559 -242h-481l209 1045h63z" />
    <glyph glyph-name="cent" unicode="&#xa2;" horiz-adv-x="1124" 
d="M641 987q-81 0 -141 -83q-60 -82 -60 -270t101 -304l110 657h-10zM639 1067h25l36 213h80l-37 -223q135 -25 219 -100t85 -153q0 -152 -160 -151q-70 0 -99 19l-26 243q-25 29 -37 39l-115 -684q74 -49 159 -49q147 0 239 55l30 19l25 -43q-178 -279 -467 -279
q-23 0 -35 2l-39 -241h-80l41 250q-188 35 -296 180t-107 346q0 246 168 402t391 155z" />
    <glyph glyph-name="sterling" unicode="&#xa3;" horiz-adv-x="1544" 
d="M311 528v115h275l14 70q31 143 116 265q152 219 404 315q106 42 200 42t168 -60q73 -60 73 -129t-71 -116t-171 -59q-49 256 -141 256q-51 -1 -83 -57t-55 -181l-57 -309l-8 -37h332l-2 -115h-367q-117 -281 -418 -444q27 -14 73 -43t66 -39l99 -57q299 -181 340 -197
t67 -16q145 0 78 323q250 31 250 -112q0 -121 -184 -246t-365 -125q-137 0 -261 85t-263 257l-76 94q-118 -39 -188 -39t-113 33t-43 92t47 94t132 35t237 -80q90 106 131 312l14 73h-250z" />
    <glyph glyph-name="yen" unicode="&#xa5;" horiz-adv-x="1335" 
d="M102 526v80h328l-303 578l-127 37v84h711v-84l-148 -37l238 -531h4l264 529l-176 39v84h442v-84l-135 -41l-317 -574h344v-80h-367v-159h367v-82h-367v-162l189 -41v-82h-768v82l188 39v164h-367v82h367v159h-367z" />
    <glyph glyph-name="brokenbar" unicode="&#xa6;" horiz-adv-x="468" 
d="M281 -430h-93v893h93v-893zM281 641h-93v893h93v-893z" />
    <glyph glyph-name="section" unicode="&#xa7;" horiz-adv-x="1124" 
d="M336 868q0 -86 29 -162t100 -190l115 -186q161 -262 161 -384q0 -66 -28 -151h14q92 92 92 250q0 86 -28 162q-29 76 -101 190l-115 187q-86 139 -124 227q-69 156 -9 307h-14q-92 -92 -92 -250zM600 -258q0 76 -192 350q-18 29 -29 43l-66 94q-125 175 -169 281t-44 222
t58 220q100 183 330 297q229 115 405 115q101 0 161 -45t60 -107t-39 -110q-39 -47 -100 -64q-135 90 -285 172q-74 0 -135 -18v-29q0 -68 176 -319q29 -43 45 -66l66 -94q123 -178 168 -284t45 -220q1 -115 -57 -219q-100 -181 -329 -296q-228 -116 -405 -116
q-106 -1 -164 47t-59 111q0 63 38 107t99 63q139 -94 289 -174q74 0 131 18q2 7 2 21z" />
    <glyph glyph-name="dieresis" unicode="&#xa8;" 
d="M633 1180q-70 0 -119 50t-49 120t49 120t119 52q70 0 122 -52t52 -120q0 -70 -52 -120t-122 -50zM183 1180q-71 0 -121 50t-50 120t51 120t121 52q70 0 121 -52t51 -120q0 -70 -51 -120t-122 -50z" />
    <glyph glyph-name="copyright" unicode="&#xa9;" horiz-adv-x="1624" 
d="M860 276q-227 0 -347 119t-120 293q-1 174 147 295t363 121q113 0 236 -62v-243h-58l-90 190q-49 49 -120 49t-121 -85t-50 -245t60 -259q60 -100 147 -101q37 0 64 14l145 216h60l-62 -250q-125 -52 -254 -52zM160 693q0 -271 192 -465t461 -194q268 0 461 194
q193 192 192 464q0 272 -192 464q-193 192 -461 192q-269 0 -461 -192t-192 -463zM88 689q0 304 212 514t513 210t512 -210t211 -512t-212 -512t-515 -210t-512 208t-209 512z" />
    <glyph glyph-name="ordfeminine" unicode="&#xaa;" horiz-adv-x="937" 
d="M342 779q0 -47 26 -77t64 -30q39 0 68 18v232q-84 -27 -121 -61t-37 -82zM281 512q-90 0 -155 57t-65 151q-1 94 63 149q64 54 206 85l170 37v154q-6 55 -35 94t-84 39q-25 0 -45 -8l-21 -199q-45 -33 -110 -33q-117 0 -117 92t127 164t287 72t231 -66q72 -66 72 -208
v-379q0 -43 13 -57t52 -15h48v-59q-131 -70 -250 -70q-147 0 -154 129h-10q-90 -129 -223 -129z" />
    <glyph glyph-name="guillemotleft" unicode="&#xab;" horiz-adv-x="1042" 
d="M862 827l47 -39l-202 -329l202 -367l-47 -33l-368 359v55zM461 827l47 -39l-203 -329l203 -367l-47 -33l-369 359v55z" />
    <glyph glyph-name="logicalnot" unicode="&#xac;" horiz-adv-x="1163" 
d="M96 567h971v-422h-111v320h-860v102z" />
    <glyph glyph-name="registered" unicode="&#xae;" horiz-adv-x="1077" 
d="M487 1094h45q72 31 72 100q0 43 -33 78t-84 37v-215zM270 874v46l58 10v364l-58 9v45h260q238 0 238 -131q0 -82 -115 -125v-2l127 -160l47 -10v-46h-198l-129 173h-13v-121l39 -8v-44h-256zM934 1096q0 168 -115 282t-281 113q-166 1 -280 -113q-113 -114 -113 -281
t114 -282t280 -115q167 0 281 114t114 282zM72 1096q0 194 138 326t332 132t328 -133t136 -324q0 -191 -138 -325t-332 -133q-194 0 -329 132t-135 325z" />
    <glyph glyph-name="macron" unicode="&#xaf;" 
d="M96 1270v164h627v-164h-627z" />
    <glyph glyph-name="degree" unicode="&#xb0;" horiz-adv-x="624" 
d="M125 1235q0 -86 53 -143q53 -58 135 -58q81 0 135 58t54 143q0 86 -53 143q-53 58 -135 58t-136 -58q-53 -58 -53 -143zM41 1234q0 114 81 192q82 78 196 79q114 0 190 -79q76 -80 76 -192t-81 -192t-195 -80t-190 80q-76 78 -77 192z" />
    <glyph glyph-name="plusminus" unicode="&#xb1;" horiz-adv-x="1163" 
d="M96 0v102h971v-102h-971zM1067 659h-430v-430h-111v430h-430v103h430v430h111v-430h430v-103z" />
    <glyph glyph-name="acute" unicode="&#xb4;" 
d="M606 1587v-14l-309 -381h-84l109 395h284z" />
    <glyph glyph-name="paragraph" unicode="&#xb6;" horiz-adv-x="1153" 
d="M1092 1360v-84l-158 -37v-1102q0 -289 -132 -427t-343 -138q-168 0 -266 96q-99 96 -99 240t88 232q88 87 203 87t176 -59t61 -144q0 -84 -50 -132t-109 -48t-95 37t-36 90l155 113v10q-37 56 -111 56t-131 -60t-57 -167q0 -109 75 -187t207 -78t217 94t85 303v1211h-108
v-789h-109q-182 0 -312 129q-130 130 -130 312t130 312t312 130h537z" />
    <glyph glyph-name="periodcentered" unicode="&#xb7;" horiz-adv-x="561" 
d="M282 389q-77 0 -134 55q-56 55 -56 131q0 77 56 133t134 56t132 -55q55 -55 55 -133t-55 -132q-55 -55 -132 -55z" />
    <glyph glyph-name="cedilla" unicode="&#xb8;" horiz-adv-x="583" 
d="M129 -506l-16 57q207 70 206 166q0 72 -98 103l133 188h76l-65 -90q94 -8 154 -48t61 -112q0 -194 -451 -264z" />
    <glyph glyph-name="ordmasculine" unicode="&#xba;" horiz-adv-x="1005" 
d="M51 930q0 186 130 312q130 124 324 124q193 0 321 -120t128 -310t-128 -316q-128 -124 -330 -124q-203 0 -324 124t-121 310zM475 1292q-90 0 -90 -264q0 -176 42 -317t108 -142q88 0 88 273q0 174 -41 312t-107 138z" />
    <glyph glyph-name="guillemotright" unicode="&#xbb;" horiz-adv-x="1042" 
d="M180 59l-47 39l203 330l-203 367l47 32l369 -358v-55zM582 59l-47 39l202 330l-202 367l47 32l368 -358v-55z" />
    <glyph glyph-name="onequarter" unicode="&#xbc;" horiz-adv-x="1591" 
d="M1208 334v248l-235 -248h235zM299 -160l-68 45l1102 1592l68 -45zM471 1368v-711l123 -20v-66h-561v66l141 20v523h-151v53l413 135h35zM1454 334h109v-156h-109v-102l90 -21v-55h-438v55l102 19v104h-368v105l487 526l127 -18v-457z" />
    <glyph glyph-name="onehalf" unicode="&#xbd;" horiz-adv-x="1642" 
d="M299 -160l-68 45l1102 1592l68 -45zM471 1368v-711l123 -20v-66h-561v66l141 20v523h-151v53l413 135h35zM1614 213v-213h-625v66l94 96q18 18 49 50q30 32 51 52t47 50t42 50t22 30q6 12 16 28q22 37 21 90q0 53 -35 89q-36 36 -102 36t-156 -102l-51 34
q135 252 344 252q113 0 183 -63q70 -62 69 -158q0 -96 -48 -157q-49 -60 -153 -128l-159 -102h391z" />
    <glyph glyph-name="threequarters" unicode="&#xbe;" horiz-adv-x="1599" 
d="M1217 334v248l-236 -248h236zM307 -160l-67 45l1101 1592l68 -45zM316 606q42 0 74 30t32 98t-60 129q-60 60 -204 61v55q248 45 248 166q0 41 -29 69t-86 29q-109 0 -193 -108l-49 26q41 102 128 167t205 65q118 1 189 -51q70 -52 70 -127t-59 -127t-136 -66v-8
q233 -25 234 -193q0 -119 -103 -195t-276 -75q-106 0 -185 46t-79 116q0 41 33 69t86 29l92 -178q26 -27 68 -27zM1462 334h109v-156h-109v-102l90 -21v-55h-438v55l103 19v104h-369v105l487 526l127 -18v-457z" />
    <glyph glyph-name="questiondown" unicode="&#xbf;" horiz-adv-x="950" 
d="M683 1257q77 0 133 -55t56 -131t-56 -132t-133 -56t-132 55t-55 132t55 132t132 55zM129 289q0 149 71 233t242 123l207 47v111h84l68 -400l-408 -79q-102 -18 -139 -38t-37 -50q0 -53 99 -77t401 -38l121 -6v-383l-121 28q-264 60 -426 202t-162 327z" />
    <glyph glyph-name="Agrave" unicode="&#xc0;" horiz-adv-x="1466" 
d="M569 979l-163 -430h313zM336 1772h303l162 -306h-117l-348 277v29zM-2 0v84l125 35l512 1253l203 41l512 -1304l118 -25v-84h-755v84l159 29l-114 327h-393l-119 -313l221 -43v-84h-469z" />
    <glyph glyph-name="Aacute" unicode="&#xc1;" horiz-adv-x="1466" 
d="M569 979l-163 -430h313zM1130 1772v-29l-348 -277h-116l161 306h303zM-2 0v84l125 35l512 1253l203 41l512 -1304l118 -25v-84h-755v84l159 29l-114 327h-393l-119 -313l221 -43v-84h-469z" />
    <glyph glyph-name="Acircumflex" unicode="&#xc2;" horiz-adv-x="1466" 
d="M569 979l-163 -430h313zM535 1466h-101l191 306h219l200 -306h-112l-201 148zM-2 0v84l125 35l512 1253l203 41l512 -1304l118 -25v-84h-755v84l159 29l-114 327h-393l-119 -313l221 -43v-84h-469z" />
    <glyph glyph-name="Atilde" unicode="&#xc3;" horiz-adv-x="1466" 
d="M569 979l-163 -430h313zM772 1556l-94 25q-125 33 -181 21t-100 -86l-49 20l12 35q62 178 142 227t237 8l92 -24q94 -29 165 -13t124 97l49 -21l-18 -47q-77 -190 -149 -236t-230 -6zM-2 0v84l125 35l512 1253l203 41l512 -1304l118 -25v-84h-755v84l159 29l-114 327
h-393l-119 -313l221 -43v-84h-469z" />
    <glyph glyph-name="Adieresis" unicode="&#xc4;" horiz-adv-x="1466" 
d="M569 979l-163 -430h313zM995 1460q-71 0 -119 50t-49 120t49 121t120 51t121 -51q52 -51 52 -121t-52 -120t-122 -50zM470 1460q-71 0 -121 50t-50 120t51 121t121 51t121 -51t51 -121t-51 -120t-122 -50zM-2 0v84l125 35l512 1253l203 41l512 -1304l118 -25v-84h-755v84
l159 29l-114 327h-393l-119 -313l221 -43v-84h-469z" />
    <glyph glyph-name="Aring" unicode="&#xc5;" horiz-adv-x="1466" 
d="M600 1702q0 -60 40 -102t95 -42t93 40q38 38 38 100t-40 102q-40 41 -95 41t-93 -39t-38 -100zM569 979l-163 -430h313zM504 1698q0 90 66 154t165 65q99 -1 163 -63t64 -152t-65 -155q-66 -65 -166 -65t-164 63q-63 63 -63 153zM-2 0v84l125 35l512 1253l203 41
l512 -1304l118 -25v-84h-755v84l159 29l-114 327h-393l-119 -313l221 -43v-84h-469z" />
    <glyph glyph-name="AE" unicode="&#xc6;" horiz-adv-x="1996" 
d="M874 1257h-18l-291 -550h309v550zM1290 610v-460q57 -61 162 -62h182l240 416h78l-76 -504h-1159v84l157 37v495h-356l-260 -489l217 -43v-84h-477v84l121 35l624 1120l-194 37v84h1360v-428h-78l-150 338h-391v-563h172l70 243h80v-573h-80l-70 233h-172z" />
    <glyph glyph-name="Ccedilla" unicode="&#xc7;" horiz-adv-x="1486" 
d="M903 -23q-8 0 -29 3l-43 -62q95 -8 155 -48t61 -112q0 -194 -451 -264l-16 57q207 70 206 166q0 72 -98 103l113 162q-358 25 -547 220q-188 196 -188 470q0 307 251 518q252 211 615 211q217 0 446 -103v-421h-67l-176 329q-115 113 -253 113t-233 -145
q-94 -145 -94 -435q0 -289 113 -479t288 -190q86 0 148 36l272 388h70l-94 -435q-244 -82 -449 -82z" />
    <glyph glyph-name="Egrave" unicode="&#xc8;" horiz-adv-x="1333" 
d="M317 1772h304l161 -306h-116l-349 277v29zM614 647v-502q57 -61 162 -61h197l237 420h78l-76 -504h-1175v84l158 37v1118l-158 37v84h1208v-428h-78l-147 342h-406v-524h185l69 241h80v-573h-80l-69 229h-185z" />
    <glyph glyph-name="Eacute" unicode="&#xc9;" horiz-adv-x="1333" 
d="M1112 1772v-29l-348 -277h-117l162 306h303zM614 647v-502q57 -61 162 -61h197l237 420h78l-76 -504h-1175v84l158 37v1118l-158 37v84h1208v-428h-78l-147 342h-406v-524h185l69 241h80v-573h-80l-69 229h-185z" />
    <glyph glyph-name="Ecircumflex" unicode="&#xca;" horiz-adv-x="1333" 
d="M492 1466h-101l191 306h219l200 -306h-112l-201 148zM614 647v-502q57 -61 162 -61h197l237 420h78l-76 -504h-1175v84l158 37v1118l-158 37v84h1208v-428h-78l-147 342h-406v-524h185l69 241h80v-573h-80l-69 229h-185z" />
    <glyph glyph-name="Edieresis" unicode="&#xcb;" horiz-adv-x="1333" 
d="M942 1460q-70 0 -119 50t-49 120t49 121t119 51t122 -51t52 -121t-52 -120t-122 -50zM417 1460q-71 0 -121 50t-50 120t51 121t121 51t121 -51t51 -121t-51 -120t-122 -50zM614 647v-502q57 -61 162 -61h197l237 420h78l-76 -504h-1175v84l158 37v1118l-158 37v84h1208
v-428h-78l-147 342h-406v-524h185l69 241h80v-573h-80l-69 229h-185z" />
    <glyph glyph-name="Igrave" unicode="&#xcc;" horiz-adv-x="808" 
d="M6 1772h303l162 -306h-117l-348 277v29zM37 0v84l158 37v1118l-158 37v84h735v-84l-158 -37v-1118l158 -37v-84h-735z" />
    <glyph glyph-name="Iacute" unicode="&#xcd;" horiz-adv-x="808" 
d="M801 1772v-29l-348 -277h-117l162 306h303zM37 0v84l158 37v1118l-158 37v84h735v-84l-158 -37v-1118l158 -37v-84h-735z" />
    <glyph glyph-name="Icircumflex" unicode="&#xce;" horiz-adv-x="808" 
d="M205 1466h-101l191 306h219l201 -306h-113l-201 156zM37 0v84l158 37v1118l-158 37v84h735v-84l-158 -37v-1118l158 -37v-84h-735z" />
    <glyph glyph-name="Idieresis" unicode="&#xcf;" horiz-adv-x="808" 
d="M37 0v84l158 37v1118l-158 37v84h735v-84l-158 -37v-1118l158 -37v-84h-735zM635 1450q-70 0 -119 50t-49 120t49 121t119 51t122 -51t52 -121t-52 -120t-122 -50zM171 1450q-71 0 -121 50t-50 120t51 121t121 51t121 -51t51 -121t-51 -120t-122 -50z" />
    <glyph glyph-name="Eth" unicode="&#xd0;" horiz-adv-x="1626" 
d="M856 651h-248v-506q66 -61 172 -61q135 0 238 149q102 150 102 398q0 299 -140 474t-372 189v-540h248v-103zM37 0v84l158 37v530h-154v103h154v485l-158 37v84h725q373 0 593 -181t220 -462t-208 -489q-103 -104 -285 -166t-414 -62h-631z" />
    <glyph glyph-name="Ntilde" unicode="&#xd1;" horiz-adv-x="1511" 
d="M844 1556l-94 25q-126 33 -182 21t-99 -86l-49 20l12 35q63 178 142 227t237 8l92 -24q94 -29 165 -13t124 97l49 -21l-18 -47q-77 -190 -149 -236t-230 -6zM559 0h-514v84l158 35v1014q-88 111 -162 133l-39 12v82h539l690 -815l-12 676l-222 57v82h506v-82l-157 -43
v-1098l4 -131l-183 -33l-850 1008l15 -856l227 -41v-84z" />
    <glyph glyph-name="Ograve" unicode="&#xd2;" horiz-adv-x="1656" 
d="M430 1772h303l162 -306h-117l-348 277v29zM831 1401q309 0 534 -176q111 -87 175 -223t64 -304q0 -313 -238 -518t-547 -205q-209 0 -381 82t-278 244t-107 377q1 303 235 513t543 210zM793 1309q-121 1 -196 -143t-75 -436t100 -477t230 -185q131 0 207 141t76 424
q1 283 -93 479t-249 197z" />
    <glyph glyph-name="Oacute" unicode="&#xd3;" horiz-adv-x="1656" 
d="M1225 1772v-29l-348 -277h-117l162 306h303zM831 1401q309 0 534 -176q111 -87 175 -223t64 -304q0 -313 -238 -518t-547 -205q-209 0 -381 82t-278 244t-107 377q1 303 235 513t543 210zM793 1309q-121 1 -196 -143t-75 -436t100 -477t230 -185q131 0 207 141t76 424
q1 283 -93 479t-249 197z" />
    <glyph glyph-name="Ocircumflex" unicode="&#xd4;" horiz-adv-x="1656" 
d="M629 1466h-101l191 306h219l201 -306h-113l-201 148zM793 1309q-121 1 -196 -143t-75 -436t100 -477t230 -185q131 0 207 141t76 424q1 283 -93 479t-249 197zM831 1401q309 0 534 -176q111 -87 175 -223t64 -304q0 -313 -238 -518t-547 -205q-209 0 -381 82t-278 244
t-107 377q1 303 235 513t543 210z" />
    <glyph glyph-name="Otilde" unicode="&#xd5;" horiz-adv-x="1656" 
d="M866 1556l-94 25q-125 33 -181 21t-99 -86l-50 20l13 35q63 178 142 227t237 8l92 -24q94 -29 165 -13t123 97l50 -21l-19 -47q-77 -190 -149 -236t-230 -6zM831 1401q309 0 534 -176q111 -87 175 -223t64 -304q0 -313 -238 -518t-547 -205q-209 0 -381 82t-278 244
t-107 377q1 303 235 513t543 210zM793 1309q-121 1 -196 -143t-75 -436t100 -477t230 -185q131 0 207 141t76 424q1 283 -93 479t-249 197z" />
    <glyph glyph-name="Odieresis" unicode="&#xd6;" horiz-adv-x="1656" 
d="M1090 1460q-70 0 -119 50t-49 120t49 121t119 51t122 -51t52 -121t-52 -120t-122 -50zM564 1460q-71 0 -121 50t-50 120t51 121t121 51t121 -51t51 -121t-51 -120t-122 -50zM831 1401q309 0 534 -176q111 -87 175 -223t64 -304q0 -313 -238 -518t-547 -205
q-209 0 -381 82t-278 244t-107 377q1 303 235 513t543 210zM793 1309q-121 1 -196 -143t-75 -436t100 -477t230 -185q131 0 207 141t76 424q1 283 -93 479t-249 197z" />
    <glyph glyph-name="multiply" unicode="&#xd7;" horiz-adv-x="1163" 
d="M961 49l-381 385l-381 -385l-78 76l385 385l-377 375l84 84l375 -377l370 381l74 -78l-370 -377l380 -383z" />
    <glyph glyph-name="Oslash" unicode="&#xd8;" horiz-adv-x="1656" 
d="M526 735q0 -143 27 -272l524 551q-43 135 -116 215q-74 80 -168 80q-119 -1 -193 -143t-74 -431zM858 68q123 0 198 140t74 429q0 147 -28 281l-524 -549q45 -141 119 -222q75 -79 161 -79zM53 673q1 308 235 518t526 210t501 -139l131 137h115l-181 -189
q224 -197 224 -511t-238 -519t-530 -205t-498 142l-172 -180h-117l221 233q-217 195 -217 503z" />
    <glyph glyph-name="Ugrave" unicode="&#xd9;" horiz-adv-x="1513" 
d="M463 1772h303l162 -306h-117l-348 277v29zM1348 567q0 -283 -148 -441t-428 -157q-282 0 -443 130t-161 413v727l-158 37v84h783v-84l-201 -37v-723q0 -184 88 -275t223 -91t226 90t90 272l-5 723l-202 41v84h491v-84l-155 -41v-668z" />
    <glyph glyph-name="Uacute" unicode="&#xda;" horiz-adv-x="1513" 
d="M1257 1772v-29l-348 -277h-116l161 306h303zM1348 567q0 -283 -148 -441t-428 -157q-282 0 -443 130t-161 413v727l-158 37v84h783v-84l-201 -37v-723q0 -184 88 -275t223 -91t226 90t90 272l-5 723l-202 41v84h491v-84l-155 -41v-668z" />
    <glyph glyph-name="Ucircumflex" unicode="&#xdb;" horiz-adv-x="1513" 
d="M662 1466h-101l191 306h219l200 -306h-112l-201 148zM1348 567q0 -283 -148 -441t-428 -157q-282 0 -443 130t-161 413v727l-158 37v84h783v-84l-201 -37v-723q0 -184 88 -275t223 -91t226 90t90 272l-5 723l-202 41v84h491v-84l-155 -41v-668z" />
    <glyph glyph-name="Udieresis" unicode="&#xdc;" horiz-adv-x="1513" 
d="M1122 1460q-70 0 -118 50t-50 120q0 70 50 121t118 51q70 0 122 -51t52 -121t-52 -120t-122 -50zM597 1460q-71 0 -121 50t-50 120t51 121t121 51t121 -51t51 -121t-51 -120t-122 -50zM1348 567q0 -283 -148 -441t-428 -157q-282 0 -443 130t-161 413v727l-158 37v84h783
v-84l-201 -37v-723q0 -184 88 -275t223 -91t226 90t90 272l-5 723l-202 41v84h491v-84l-155 -41v-668z" />
    <glyph glyph-name="Yacute" unicode="&#xdd;" horiz-adv-x="1404" 
d="M1239 1772v-29l-348 -277h-117l162 306h303zM1085 0h-741v82l162 39v407l-381 711l-127 37v84h776v-84l-201 -37l289 -590l293 586l-211 41v84h463v-84l-133 -41l-350 -662v-452l161 -39v-82z" />
    <glyph glyph-name="Thorn" unicode="&#xde;" horiz-adv-x="1374" 
d="M37 0v84l158 37v1118l-158 37v84h735v-84l-158 -37v-182h134q291 1 438 -97t147 -241t-100 -237q-187 -174 -537 -165v62q100 33 167 107t67 190q0 115 -86 201t-230 98v-854l158 -37v-84h-735z" />
    <glyph glyph-name="germandbls" unicode="&#xdf;" horiz-adv-x="1490" 
d="M25 0v80l127 26v801h-150v80l152 51q39 213 233 361q195 147 461 147q211 0 335 -77t124 -212q0 -105 -76 -175q-55 -51 -145 -104q-90 -54 -116 -77t-26 -51t22 -46q22 -17 91 -46l145 -62q244 -102 244 -307q0 -180 -148 -299t-374 -119q-152 0 -271 60l-2 313h60
l100 -225q51 -55 127 -55t117 46t41 106t-35 102t-115 77l-98 43q-164 72 -164 221q0 78 53 151q18 26 60 72q178 200 178 355q2 93 -49 153q-52 60 -148 60t-164 -89t-67 -282v-1079h-522z" />
    <glyph glyph-name="agrave" unicode="&#xe0;" horiz-adv-x="1138" 
d="M532 168q48 0 78 22v320h-2q-197 -57 -196 -199q0 -67 36 -105t84 -38zM219 1587h285l108 -395h-84l-309 381v14zM330 -31q-127 0 -205 79t-78 197q0 117 85 185t286 115l192 45v180q-20 182 -151 182q-33 0 -53 -10l-5 -262q-61 -29 -168 -29q-154 0 -153 131
q0 106 165 196t376 89q379 0 378 -342v-506q-1 -57 17 -71t67 -15h62v-59q-176 -100 -318 -101q-92 0 -143 38t-59 130h-9q-108 -172 -286 -172z" />
    <glyph glyph-name="aacute" unicode="&#xe1;" horiz-adv-x="1138" 
d="M532 168q48 0 78 22v320h-2q-197 -57 -196 -199q0 -67 36 -105t84 -38zM918 1587v-14l-310 -381h-84l109 395h285zM330 -31q-127 0 -205 79t-78 197q0 117 85 185t286 115l192 45v180q-20 182 -151 182q-33 0 -53 -10l-5 -262q-61 -29 -168 -29q-154 0 -153 131
q0 106 165 196t376 89q379 0 378 -342v-506q-1 -57 17 -71t67 -15h62v-59q-176 -100 -318 -101q-92 0 -143 38t-59 130h-9q-108 -172 -286 -172z" />
    <glyph glyph-name="acircumflex" unicode="&#xe2;" horiz-adv-x="1138" 
d="M532 168q48 0 78 22v320h-2q-197 -57 -196 -199q0 -67 36 -105t84 -38zM387 1192h-92l194 395h179l192 -395h-92l-197 207zM330 -31q-127 0 -205 79t-78 197q0 117 85 185t286 115l192 45v180q-20 182 -151 182q-33 0 -53 -10l-5 -262q-61 -29 -168 -29q-154 0 -153 131
q0 106 165 196t376 89q379 0 378 -342v-506q-1 -57 17 -71t67 -15h62v-59q-176 -100 -318 -101q-92 0 -143 38t-59 130h-9q-108 -172 -286 -172z" />
    <glyph glyph-name="atilde" unicode="&#xe3;" horiz-adv-x="1138" 
d="M532 168q48 0 78 22v320h-2q-197 -57 -196 -199q0 -67 36 -105t84 -38zM596 1223l-92 30q-125 37 -176 22t-97 -93l-49 20l13 35q63 180 149 234t240 2l90 -31q92 -32 159 -12t121 102l50 -21l-19 -47q-75 -194 -155 -244t-234 3zM330 -31q-127 0 -205 79t-78 197
q0 117 85 185t286 115l192 45v180q-20 182 -151 182q-33 0 -53 -10l-5 -262q-61 -29 -168 -29q-154 0 -153 131q0 106 165 196t376 89q379 0 378 -342v-506q-1 -57 17 -71t67 -15h62v-59q-176 -100 -318 -101q-92 0 -143 38t-59 130h-9q-108 -172 -286 -172z" />
    <glyph glyph-name="adieresis" unicode="&#xe4;" horiz-adv-x="1138" 
d="M532 168q48 0 78 22v320h-2q-197 -57 -196 -199q0 -67 36 -105t84 -38zM795 1180q-70 0 -119 50t-49 120t49 120t119 52q69 0 121 -52t52 -120q0 -70 -51 -120q-52 -50 -122 -50zM345 1180q-71 0 -121 50t-50 120t51 120t121 52q70 0 121 -52t51 -120q0 -70 -51 -120
t-122 -50zM330 -31q-127 0 -205 79t-78 197q0 117 85 185t286 115l192 45v180q-20 182 -151 182q-33 0 -53 -10l-5 -262q-61 -29 -168 -29q-154 0 -153 131q0 106 165 196t376 89q379 0 378 -342v-506q-1 -57 17 -71t67 -15h62v-59q-176 -100 -318 -101q-92 0 -143 38
t-59 130h-9q-108 -172 -286 -172z" />
    <glyph glyph-name="aring" unicode="&#xe5;" horiz-adv-x="1138" 
d="M532 168q48 0 78 22v320h-2q-197 -57 -196 -199q0 -67 36 -105t84 -38zM438 1374q0 -61 40 -102t95 -41t94 39q38 39 38 100q0 60 -40 102q-39 42 -95 42t-94 -40q-38 -39 -38 -100zM342 1370q0 90 66 155t166 65t162 -63q64 -63 64 -153t-65 -154q-66 -64 -166 -65
q-99 1 -163 63t-64 152zM330 -31q-127 0 -205 79t-78 197q0 117 85 185t286 115l192 45v180q-20 182 -151 182q-33 0 -53 -10l-5 -262q-61 -29 -168 -29q-154 0 -153 131q0 106 165 196t376 89q379 0 378 -342v-506q-1 -57 17 -71t67 -15h62v-59q-176 -100 -318 -101
q-92 0 -143 38t-59 130h-9q-108 -172 -286 -172z" />
    <glyph glyph-name="ae" unicode="&#xe6;" horiz-adv-x="1658" 
d="M539 168q84 0 125 96q-51 113 -52 244q-96 -20 -148 -76t-52 -123q0 -65 36 -103t91 -38zM967 672v-33l241 25q-6 133 -45 222t-93 89q-54 1 -78 -63t-25 -240zM47 247q0 121 96 193t353 121l116 23v149q0 99 -40 159t-117 60q-31 0 -47 -10l-7 -262q-72 -29 -156 -29
q-85 0 -125 35t-40 96q0 102 163 194t356 91q193 0 278 -106q127 106 272 106q190 0 300 -117t136 -334l-618 -61v-39q31 -131 136 -208t219 -77t247 62l30 -45q-211 -274 -491 -275q-246 0 -389 193q-36 -36 -66 -57t-62 -45t-100 -59q-68 -36 -178 -36t-188 79t-78 199z
" />
    <glyph glyph-name="ccedilla" unicode="&#xe7;" horiz-adv-x="1067" 
d="M473 -283q0 72 -98 103l112 160q-205 25 -323 173t-117 357q0 248 169 402t402 155q168 0 278 -80t110 -192q0 -76 -52 -115t-131 -39q-78 0 -114 21l-60 288q-35 37 -97 37t-105 -76q-42 -76 -41 -192q0 -238 108 -361t268 -122q106 0 199 45l31 14l24 -43
q-178 -279 -469 -279h-10l-39 -55q94 -8 154 -48t61 -112q1 -194 -450 -264l-17 57q207 70 207 166z" />
    <glyph glyph-name="egrave" unicode="&#xe8;" horiz-adv-x="1112" 
d="M519 975q-56 0 -93 -71t-39 -220h272q-6 127 -45 209t-95 82zM231 1587h285l109 -395h-84l-310 381v14zM557 -27q-223 0 -367 155q-143 155 -143 386t169 392t376 161t313 -120t135 -345h-651q16 -176 132 -273q209 -174 501 -36l31 -45q-211 -275 -496 -275z" />
    <glyph glyph-name="eacute" unicode="&#xe9;" horiz-adv-x="1112" 
d="M519 975q-56 0 -93 -71t-39 -220h272q-6 127 -45 209t-95 82zM899 1587v-14l-309 -381h-84l108 395h285zM557 -27q-223 0 -367 155q-143 155 -143 386t169 392t376 161t313 -120t135 -345h-651q16 -176 132 -273q209 -174 501 -36l31 -45q-211 -275 -496 -275z" />
    <glyph glyph-name="ecircumflex" unicode="&#xea;" horiz-adv-x="1112" 
d="M519 975q-56 0 -93 -71t-39 -220h272q-6 127 -45 209t-95 82zM379 1192h-92l194 395h178l193 -395h-92l-197 207zM557 -27q-223 0 -367 155q-143 155 -143 386t169 392t376 161t313 -120t135 -345h-651q16 -176 132 -273q209 -174 501 -36l31 -45q-211 -275 -496 -275z
" />
    <glyph glyph-name="edieresis" unicode="&#xeb;" horiz-adv-x="1112" 
d="M519 975q-56 0 -93 -71t-39 -220h272q-6 127 -45 209t-95 82zM803 1180q-70 0 -119 50t-49 120t49 120t119 52q70 0 122 -52t52 -120q0 -70 -52 -120t-122 -50zM353 1180q-71 0 -121 50t-50 120t51 120t121 52q70 0 121 -52t51 -120q0 -70 -51 -120t-122 -50zM557 -27
q-223 0 -367 155q-143 155 -143 386t169 392t376 161t313 -120t135 -345h-651q16 -176 132 -273q209 -174 501 -36l31 -45q-211 -275 -496 -275z" />
    <glyph glyph-name="igrave" unicode="&#xec;" horiz-adv-x="706" 
d="M0 1587h285l108 -395h-84l-309 381v14zM27 0v80l131 26v711l-129 105v41l530 104v-961l129 -26v-80h-661z" />
    <glyph glyph-name="iacute" unicode="&#xed;" horiz-adv-x="706" 
d="M698 1587v-14l-309 -381h-84l109 395h284zM27 0v80l131 26v711l-129 105v41l530 104v-961l129 -26v-80h-661z" />
    <glyph glyph-name="icircumflex" unicode="&#xee;" horiz-adv-x="706" 
d="M168 1192h-92l194 395h179l192 -395h-92l-197 207zM27 0v80l131 26v711l-129 105v41l530 104v-961l129 -26v-80h-661z" />
    <glyph glyph-name="idieresis" unicode="&#xef;" horiz-adv-x="706" 
d="M27 0v80l131 26v711l-129 105v41l530 104v-961l129 -26v-80h-661zM565 1180q-70 0 -119 50t-49 120t49 120t119 52q70 0 122 -52t52 -120q0 -70 -52 -120t-122 -50zM136 1180q-71 0 -121 50t-50 120t51 120t121 52q70 0 121 -52t51 -120q0 -70 -51 -120t-122 -50z" />
    <glyph glyph-name="eth" unicode="&#xf0;" horiz-adv-x="1298" 
d="M815 387q0 205 -41 363q-70 199 -166 198q-129 0 -129 -299q1 -240 59 -423t148 -183q129 0 129 344zM1243 565q0 -287 -168 -445t-435 -157q-267 0 -426 156t-159 379q0 158 89 282t215 186t253 62h45q-70 113 -172 213l-331 -137l-33 74l301 125q-109 94 -254 186
l33 59q246 -59 438 -155l311 129l31 -76l-250 -105q258 -155 385 -363t127 -413z" />
    <glyph glyph-name="ntilde" unicode="&#xf1;" horiz-adv-x="1351" 
d="M696 1223l-92 30q-125 37 -176 22t-96 -93l-49 20l12 35q63 180 149 234t240 2l90 -31q92 -32 159 -12t122 102l49 -21l-19 -47q-75 -194 -155 -244t-234 3zM25 0v80l127 26v711l-123 90v43l463 121h10l22 -192h4q182 188 373 188q141 0 224 -81t83 -226v-654l127 -26
v-80h-626v82l100 24v549q0 85 -44 137q-45 52 -111 50t-103 -25v-711l96 -26v-80h-622z" />
    <glyph glyph-name="ograve" unicode="&#xf2;" horiz-adv-x="1290" 
d="M293 1587h285l108 -395h-84l-309 381v14zM1239 524q0 -240 -169 -398t-435 -157q-266 0 -425 157q-159 156 -159 390t171 392t426 157q255 0 423 -151q168 -150 168 -390zM606 985q-137 0 -137 -338q0 -244 61 -421t152 -177q135 0 135 354q0 236 -58 409
q-59 173 -153 173z" />
    <glyph glyph-name="oacute" unicode="&#xf3;" horiz-adv-x="1290" 
d="M991 1587v-14l-309 -381h-84l109 395h284zM1239 524q0 -240 -169 -398t-435 -157q-266 0 -425 157q-159 156 -159 390t171 392t426 157q255 0 423 -151q168 -150 168 -390zM606 985q-137 0 -137 -338q0 -244 61 -421t152 -177q135 0 135 354q0 236 -58 409
q-59 173 -153 173z" />
    <glyph glyph-name="ocircumflex" unicode="&#xf4;" horiz-adv-x="1290" 
d="M461 1192h-92l194 395h178l193 -395h-92l-197 207zM606 985q-137 0 -137 -338q0 -244 61 -421t152 -177q135 0 135 354q0 236 -58 409q-59 173 -153 173zM1239 524q0 -240 -169 -398t-435 -157q-266 0 -425 157q-159 156 -159 390t171 392t426 157q255 0 423 -151
q168 -150 168 -390z" />
    <glyph glyph-name="otilde" unicode="&#xf5;" horiz-adv-x="1290" 
d="M670 1223l-92 30q-124 37 -176 22t-97 -93l-49 20l12 35q64 180 150 234t239 2l91 -31q92 -32 158 -12t122 102l49 -21l-18 -47q-75 -194 -155 -244t-234 3zM1239 524q0 -240 -169 -398t-435 -157q-266 0 -425 157q-159 156 -159 390t171 392t426 157q255 0 423 -151
q168 -150 168 -390zM606 985q-137 0 -137 -338q0 -244 61 -421t152 -177q135 0 135 354q0 236 -58 409q-59 173 -153 173z" />
    <glyph glyph-name="odieresis" unicode="&#xf6;" horiz-adv-x="1290" 
d="M868 1180q-70 0 -118 50t-50 120q0 70 50 120t118 52q70 0 122 -52t52 -120q0 -70 -52 -120t-122 -50zM419 1180q-71 0 -121 50t-50 120t51 120t121 52q70 0 121 -52t51 -120q0 -70 -51 -120t-122 -50zM1239 524q0 -240 -169 -398t-435 -157q-266 0 -425 157
q-159 156 -159 390t171 392t426 157q255 0 423 -151q168 -150 168 -390zM606 985q-137 0 -137 -338q0 -244 61 -421t152 -177q135 0 135 354q0 236 -58 409q-59 173 -153 173z" />
    <glyph glyph-name="divide" unicode="&#xf7;" horiz-adv-x="1163" 
d="M582 57q-61 0 -106 45q-44 44 -44 106t44 107t106 45t107 -45q46 -45 46 -106t-46 -107t-107 -45zM582 670q-61 0 -106 45q-44 45 -44 106t44 107t106 45q62 0 107 -45q46 -44 46 -106t-46 -107t-107 -45zM1067 465h-971v102h971v-102z" />
    <glyph glyph-name="oslash" unicode="&#xf8;" horiz-adv-x="1290" 
d="M821 397q0 115 -16 230l-297 -336q31 -111 77 -177t99 -65q137 0 137 348zM604 985q-139 0 -139 -356q0 -134 22 -246l299 338q-63 264 -182 264zM645 1065q201 0 359 -98l124 141h103l-166 -188q174 -152 174 -394t-169 -400t-425 -157q-199 0 -344 86l-137 -153h-103
l177 198q-186 152 -186 401t170 407q171 158 423 157z" />
    <glyph glyph-name="ugrave" unicode="&#xf9;" horiz-adv-x="1331" 
d="M315 1587h285l109 -395h-84l-310 381v14zM532 358q0 -172 132 -172q70 0 120 25v643l-120 66v51l520 92v-922l127 -24v-68l-496 -72l-24 158q-178 -166 -353 -166q-116 0 -211 64q-94 64 -94 246v563l-123 67v49l522 97v-697z" />
    <glyph glyph-name="uacute" unicode="&#xfa;" horiz-adv-x="1331" 
d="M1014 1587v-14l-309 -381h-84l108 395h285zM532 358q0 -172 132 -172q70 0 120 25v643l-120 66v51l520 92v-922l127 -24v-68l-496 -72l-24 158q-178 -166 -353 -166q-116 0 -211 64q-94 64 -94 246v563l-123 67v49l522 97v-697z" />
    <glyph glyph-name="ucircumflex" unicode="&#xfb;" horiz-adv-x="1331" 
d="M483 1192h-92l195 395h178l192 -395h-92l-196 207zM532 358q0 -172 132 -172q70 0 120 25v643l-120 66v51l520 92v-922l127 -24v-68l-496 -72l-24 158q-178 -166 -353 -166q-116 0 -211 64q-94 64 -94 246v563l-123 67v49l522 97v-697z" />
    <glyph glyph-name="udieresis" unicode="&#xfc;" horiz-adv-x="1331" 
d="M891 1180q-70 0 -119 50t-49 120t49 120t119 52q70 0 122 -52t52 -120q0 -70 -52 -120t-122 -50zM441 1180q-71 0 -121 50t-50 120t52 120t120 52q70 0 121 -52t51 -120q0 -70 -51 -120t-122 -50zM532 358q0 -172 132 -172q70 0 120 25v643l-120 66v51l520 92v-922
l127 -24v-68l-496 -72l-24 158q-178 -166 -353 -166q-116 0 -211 64q-94 64 -94 246v563l-123 67v49l522 97v-697z" />
    <glyph glyph-name="yacute" unicode="&#xfd;" horiz-adv-x="1099" 
d="M1026 1587v-14l-309 -381h-84l108 395h285zM788 1034h322v-78l-88 -20l-492 -1188q-92 -223 -256 -223q-78 0 -135 55t-57 139q0 85 56 139t136 54q129 0 175 -125h4l45 111l-430 1040l-78 18v78h631v-78l-125 -16l192 -573l211 565l-111 24v78z" />
    <glyph glyph-name="thorn" unicode="&#xfe;" horiz-adv-x="1308" 
d="M592 864q-35 0 -60 -12v-682q46 -106 134 -106t139 94t51 278t-82 306t-182 122zM625 -18q-53 0 -93 16v-313l228 -37v-78h-778v80l151 26v1571l-123 86v43l522 152v-621q138 147 308 147t296 -121q126 -122 126 -339q0 -176 -94 -320t-240 -218q-145 -74 -303 -74z" />
    <glyph glyph-name="ydieresis" unicode="&#xff;" horiz-adv-x="1099" 
d="M842 1180q-70 0 -119 50t-49 120t49 120t119 52q70 0 122 -52t52 -120q0 -70 -52 -120t-122 -50zM392 1180q-71 0 -121 50t-50 120t51 120t121 52q70 0 121 -52t51 -120q0 -70 -51 -120t-122 -50zM788 1034h322v-78l-88 -20l-492 -1188q-92 -223 -256 -223q-78 0 -135 55
t-57 139q0 85 56 139t136 54q129 0 175 -125h4l45 111l-430 1040l-78 18v78h631v-78l-125 -16l192 -573l211 565l-111 24v78z" />
    <glyph glyph-name="Amacron" unicode="&#x100;" horiz-adv-x="1466" 
d="M569 979l-163 -430h313zM420 1536v164h627v-164h-627zM-2 0v84l125 35l512 1253l203 41l512 -1304l118 -25v-84h-755v84l159 29l-114 327h-393l-119 -313l221 -43v-84h-469z" />
    <glyph glyph-name="amacron" unicode="&#x101;" horiz-adv-x="1138" 
d="M532 168q48 0 78 22v320h-2q-197 -57 -196 -199q0 -67 36 -105t84 -38zM258 1270v164h627v-164h-627zM330 -31q-127 0 -205 79t-78 197q0 117 85 185t286 115l192 45v180q-20 182 -151 182q-33 0 -53 -10l-5 -262q-61 -29 -168 -29q-154 0 -153 131q0 106 165 196t376 89
q379 0 378 -342v-506q-1 -57 17 -71t67 -15h62v-59q-176 -100 -318 -101q-92 0 -143 38t-59 130h-9q-108 -172 -286 -172z" />
    <glyph glyph-name="Abreve" unicode="&#x102;" horiz-adv-x="1466" 
d="M569 979l-163 -430h313zM725 1454q-137 0 -212 92t-77 226h94q70 -131 205 -132q82 0 128 35t79 97h88q-4 -134 -86 -226t-219 -92zM-2 0v84l125 35l512 1253l203 41l512 -1304l118 -25v-84h-755v84l159 29l-114 327h-393l-119 -313l221 -43v-84h-469z" />
    <glyph glyph-name="abreve" unicode="&#x103;" horiz-adv-x="1138" 
d="M532 168q48 0 78 22v320h-2q-197 -57 -196 -199q0 -67 36 -105t84 -38zM571 1192q-293 0 -292 395h69q41 -213 223 -213t230 213h65q0 -187 -81 -291t-214 -104zM330 -31q-127 0 -205 79t-78 197q0 117 85 185t286 115l192 45v180q-20 182 -151 182q-33 0 -53 -10
l-5 -262q-61 -29 -168 -29q-154 0 -153 131q0 106 165 196t376 89q379 0 378 -342v-506q-1 -57 17 -71t67 -15h62v-59q-176 -100 -318 -101q-92 0 -143 38t-59 130h-9q-108 -172 -286 -172z" />
    <glyph glyph-name="Aogonek" unicode="&#x104;" horiz-adv-x="1466" 
d="M569 979l-163 -430h311zM-2 0v84l125 35l512 1253l203 41l512 -1304l118 -25v-84h-462q-141 -68 -142 -178q0 -47 27 -76t75 -29t105 58l45 -33q-58 -113 -122 -171t-164 -58t-155 51q-57 51 -57 129q0 79 58 149t225 178l-145 420h-391l-119 -313l221 -43v-84h-469z" />
    <glyph glyph-name="aogonek" unicode="&#x105;" horiz-adv-x="1138" 
d="M532 168q48 0 78 22v320h-2q-197 -59 -196 -199q0 -67 36 -105t84 -38zM330 -31q-127 0 -205 79t-78 196q0 116 86 184t289 117l188 45v180q-20 182 -151 182q-33 0 -53 -10l-3 -262q-66 -29 -170 -29q-154 0 -153 129q0 106 166 196t375 91q379 0 378 -342v-506
q-1 -57 17 -71t67 -15h62v-53q-150 -92 -203 -150t-53 -107q1 -50 27 -78t74 -28t106 58l45 -33q-59 -113 -123 -171t-162 -58q-100 0 -157 51q-56 51 -56 137q0 143 252 268v8q-137 -10 -197 29q-59 39 -71 137h-11q-104 -174 -286 -174z" />
    <glyph glyph-name="Cacute" unicode="&#x106;" horiz-adv-x="1486" 
d="M1292 1772v-29l-348 -277h-117l162 306h303zM903 -23q-409 0 -623 201t-214 501t251 511q252 211 615 211q217 0 446 -103v-421h-67l-176 329q-115 113 -253 113t-233 -145q-94 -145 -94 -435q0 -289 113 -479t288 -190q86 0 148 36l272 388h70l-94 -435
q-244 -82 -449 -82z" />
    <glyph glyph-name="cacute" unicode="&#x107;" horiz-adv-x="1067" 
d="M930 1587v-14l-309 -381h-84l108 395h285zM567 -27q-240 0 -380 154q-140 155 -140 393t169 392t402 155q168 0 278 -80t110 -192q0 -76 -52 -115t-131 -39q-78 0 -114 21l-60 288q-35 37 -97 37t-105 -76q-42 -76 -41 -192q0 -238 108 -361t268 -122q106 0 199 45l31 14
l24 -43q-178 -279 -469 -279z" />
    <glyph glyph-name="Ccircumflex" unicode="&#x108;" horiz-adv-x="1486" 
d="M696 1466h-100l190 306h220l200 -306h-112l-201 148zM903 -23q-409 0 -623 201t-214 501t251 511q252 211 615 211q217 0 446 -103v-421h-67l-176 329q-115 113 -253 113t-233 -145q-94 -145 -94 -435q0 -289 113 -479t288 -190q86 0 148 36l272 388h70l-94 -435
q-244 -82 -449 -82z" />
    <glyph glyph-name="ccircumflex" unicode="&#x109;" horiz-adv-x="1067" 
d="M399 1192h-92l195 395h178l192 -395h-92l-196 207zM567 -27q-240 0 -380 154q-140 155 -140 393t169 392t402 155q168 0 278 -80t110 -192q0 -76 -52 -115t-131 -39q-78 0 -114 21l-60 288q-35 37 -97 37t-105 -76q-42 -76 -41 -192q0 -238 108 -361t268 -122
q106 0 199 45l31 14l24 -43q-178 -279 -469 -279z" />
    <glyph glyph-name="Cdotaccent" unicode="&#x10a;" horiz-adv-x="1486" 
d="M1085 1648q0 -80 -56 -134t-135 -54t-133 54t-54 134t54 135q54 56 133 56t135 -56t56 -135zM903 -23q-409 0 -623 201t-214 501t251 511q252 211 615 211q217 0 446 -103v-421h-67l-176 329q-115 113 -253 113t-233 -145q-94 -145 -94 -435q0 -289 113 -479t288 -190
q86 0 148 36l272 388h70l-94 -435q-244 -82 -449 -82z" />
    <glyph glyph-name="cdotaccent" unicode="&#x10b;" horiz-adv-x="1067" 
d="M776 1349q0 -79 -56 -133t-135 -55q-79 0 -133 54q-54 53 -54 133t54 136t133 56t135 -56t56 -135zM567 -27q-240 0 -380 154q-140 155 -140 393t169 392t402 155q168 0 278 -80t110 -192q0 -76 -52 -115t-131 -39q-78 0 -114 21l-60 288q-35 37 -97 37t-105 -76
q-42 -76 -41 -192q0 -238 108 -361t268 -122q106 0 199 45l31 14l24 -43q-178 -279 -469 -279z" />
    <glyph glyph-name="Ccaron" unicode="&#x10c;" horiz-adv-x="1486" 
d="M1087 1772h101l-191 -306h-219l-200 306h112l201 -154zM903 -23q-409 0 -623 201t-214 501t251 511q252 211 615 211q217 0 446 -103v-421h-67l-176 329q-115 113 -253 113t-233 -145q-94 -145 -94 -435q0 -289 113 -479t288 -190q86 0 148 36l272 388h70l-94 -435
q-244 -82 -449 -82z" />
    <glyph glyph-name="ccaron" unicode="&#x10d;" horiz-adv-x="1067" 
d="M774 1587h92l-194 -395h-178l-193 395h92l197 -207zM567 -27q-240 0 -380 154q-140 155 -140 393t169 392t402 155q168 0 278 -80t110 -192q0 -76 -52 -115t-131 -39q-78 0 -114 21l-60 288q-35 37 -97 37t-105 -76q-42 -76 -41 -192q0 -238 108 -361t268 -122
q106 0 199 45l31 14l24 -43q-178 -279 -469 -279z" />
    <glyph glyph-name="Dcaron" unicode="&#x10e;" horiz-adv-x="1626" 
d="M952 1772h101l-191 -306h-219l-201 306h113l201 -154zM780 84q135 0 238 149q102 150 102 398q0 299 -140 474q-141 175 -372 189v-1149q66 -61 172 -61zM37 0v84l158 37v1118l-158 37v84h725q373 0 593 -181t220 -462t-208 -489q-103 -104 -285 -166t-414 -62h-631z" />
    <glyph glyph-name="dcaron" unicode="&#x10f;" horiz-adv-x="1302" 
d="M1561 1495v-16l-252 -416h-66l47 432h271zM707 160q33 0 57 12v672q-70 127 -147 127t-125 -83q-48 -84 -48 -278t80 -322t183 -128zM472 -31q-185 1 -305 139t-120 378t187 399q187 158 468 157h62v242l-168 84v39l567 127v-1391l109 -28v-68l-465 -72l-31 131
q-119 -137 -304 -137z" />
    <glyph glyph-name="Dcroat" unicode="&#x110;" horiz-adv-x="1626" 
d="M856 651h-248v-506q66 -61 172 -61q135 0 238 149q102 150 102 398q0 299 -140 474t-372 189v-540h248v-103zM37 0v84l158 37v530h-154v103h154v485l-158 37v84h725q373 0 593 -181t220 -462t-208 -489q-103 -104 -285 -166t-414 -62h-631z" />
    <glyph glyph-name="dcroat" unicode="&#x111;" horiz-adv-x="1302" 
d="M702 162q29 0 62 14v686q-61 109 -137 109t-127 -81q-51 -82 -51 -272q1 -190 79 -323t174 -133zM1163 1247h113v-84h-113v-1020l109 -28v-68l-465 -72l-31 129q-115 -135 -302 -135q-187 1 -307 139t-120 380t180 399q180 156 475 155h62v121h-315v84h315v66l-168 55v39
l567 127v-287z" />
    <glyph glyph-name="Emacron" unicode="&#x112;" horiz-adv-x="1333" 
d="M362 1536v164h627v-164h-627zM614 647v-502q57 -61 162 -61h197l237 420h78l-76 -504h-1175v84l158 37v1118l-158 37v84h1208v-428h-78l-147 342h-406v-524h185l69 241h80v-573h-80l-69 229h-185z" />
    <glyph glyph-name="emacron" unicode="&#x113;" horiz-adv-x="1112" 
d="M519 975q-56 0 -93 -71t-39 -220h272q-6 127 -45 209t-95 82zM240 1270v164h626v-164h-626zM557 -27q-223 0 -367 155q-143 155 -143 386t169 392t376 161t313 -120t135 -345h-651q16 -176 132 -273q209 -174 501 -36l31 -45q-211 -275 -496 -275z" />
    <glyph glyph-name="Ebreve" unicode="&#x114;" horiz-adv-x="1333" 
d="M706 1454q-138 0 -212 92t-76 226h94q70 -131 205 -132q82 0 128 35t79 97h88q-4 -133 -86 -226q-83 -92 -220 -92zM614 647v-502q57 -61 162 -61h197l237 420h78l-76 -504h-1175v84l158 37v1118l-158 37v84h1208v-428h-78l-147 342h-406v-524h185l69 241h80v-573h-80
l-69 229h-185z" />
    <glyph glyph-name="ebreve" unicode="&#x115;" horiz-adv-x="1112" 
d="M519 975q-56 0 -93 -71t-39 -220h272q-6 127 -45 209t-95 82zM586 1192q-293 0 -293 395h69q42 -213 224 -213t229 213h66q0 -187 -81 -291t-214 -104zM557 -27q-223 0 -367 155q-143 155 -143 386t169 392t376 161t313 -120t135 -345h-651q16 -176 132 -273
q209 -174 501 -36l31 -45q-211 -275 -496 -275z" />
    <glyph glyph-name="Edotaccent" unicode="&#x116;" horiz-adv-x="1333" 
d="M905 1648q0 -80 -56 -134t-135 -54t-133 54q-55 54 -55 134t54 135q54 56 134 56q79 0 135 -56t56 -135zM614 647v-502q57 -61 162 -61h197l237 420h78l-76 -504h-1175v84l158 37v1118l-158 37v84h1208v-428h-78l-147 342h-406v-524h185l69 241h80v-573h-80l-69 229h-185
z" />
    <glyph glyph-name="edotaccent" unicode="&#x117;" horiz-adv-x="1112" 
d="M519 975q-56 0 -93 -71t-39 -220h272q-6 127 -45 209t-95 82zM776 1349q0 -79 -56 -133t-135 -55q-79 0 -133 54q-54 53 -54 133t54 136t133 56t135 -56t56 -135zM557 -27q-223 0 -367 155q-143 155 -143 386t169 392t376 161t313 -120t135 -345h-651q16 -176 132 -273
q209 -174 501 -36l31 -45q-211 -275 -496 -275z" />
    <glyph glyph-name="Eogonek" unicode="&#x118;" horiz-adv-x="1333" 
d="M614 647v-502q57 -61 162 -61h197l237 420h78l-76 -504h-213q-81 -119 -81 -173t26 -82t75 -28q48 0 105 58l45 -33q-59 -113 -122 -171t-163 -58t-156 51t-56 128q0 76 55 146t203 162h-893v84l158 37v1118l-158 37v84h1208v-428h-78l-147 342h-406v-524h185l69 241h80
v-573h-80l-69 229h-185z" />
    <glyph glyph-name="eogonek" unicode="&#x119;" horiz-adv-x="1112" 
d="M519 975q-56 0 -93 -71t-39 -220h272q-6 127 -45 209t-95 82zM557 -27q-223 0 -367 155q-143 155 -143 386t169 392t376 161t313 -120t135 -345h-651q16 -176 132 -273q209 -174 501 -36l31 -45q-55 -74 -127 -133q-8 -8 -13 -11q-193 -164 -192 -286q0 -47 27 -74
q26 -27 74 -27t106 58l45 -33q-59 -113 -123 -171t-162 -58q-100 0 -157 51q-56 51 -56 128q0 76 57 146t211 164v4q-92 -33 -186 -33z" />
    <glyph glyph-name="Ecaron" unicode="&#x11a;" horiz-adv-x="1333" 
d="M907 1772h101l-191 -306h-219l-201 306h113l201 -154zM614 647v-502q57 -61 162 -61h197l237 420h78l-76 -504h-1175v84l158 37v1118l-158 37v84h1208v-428h-78l-147 342h-406v-524h185l69 241h80v-573h-80l-69 229h-185z" />
    <glyph glyph-name="ecaron" unicode="&#x11b;" horiz-adv-x="1112" 
d="M519 975q-56 0 -93 -71t-39 -220h272q-6 127 -45 209t-95 82zM768 1587h92l-194 -395h-179l-192 395h92l197 -207zM557 -27q-223 0 -367 155q-143 155 -143 386t169 392t376 161t313 -120t135 -345h-651q16 -176 132 -273q209 -174 501 -36l31 -45q-211 -275 -496 -275z
" />
    <glyph glyph-name="Gcircumflex" unicode="&#x11c;" horiz-adv-x="1646" 
d="M719 1466h-101l191 306h219l201 -306h-113l-201 148zM896 -25q-208 1 -377 61t-264 160q-189 200 -189 461q0 223 124 396q125 172 327 260t425 88t500 -82l26 -442h-65l-238 352q-119 88 -237 88q-176 0 -280 -162t-103 -418q0 -319 119 -492t301 -173q74 0 133 28v449
l-228 33v102h756v-96l-127 -33v-479l-82 -21q-313 -80 -521 -80z" />
    <glyph glyph-name="gcircumflex" unicode="&#x11d;" horiz-adv-x="1191" 
d="M379 1192h-92l194 395h178l193 -395h-92l-197 207zM528 985q-46 0 -72 -51q-26 -50 -23 -162t52 -212t117 -97q45 0 72 53q26 53 26 166t-52 208t-120 95zM608 -360q144 0 226 54t81 116q0 34 -22 60t-59 34l-521 22q-25 -39 -24 -84q0 -98 87 -150q88 -52 232 -52z
M201 -35q-142 61 -142 204q1 69 49 131t164 140v6q-86 45 -133 117t-47 154q0 156 138 252t335 96q90 0 301 -49l326 31v-146l-242 14l-6 -10q94 -82 94 -192q0 -139 -126 -237t-341 -97q-121 0 -215 31q-25 -25 -24 -54q0 -72 102 -73l447 -13q137 -4 208 -74t70 -184
q0 -207 -212 -353t-496 -146q-211 1 -319 67t-107 174q0 133 176 201v10z" />
    <glyph glyph-name="Gbreve" unicode="&#x11e;" horiz-adv-x="1646" 
d="M924 1454q-137 0 -212 92t-77 226h94q70 -131 205 -132q82 0 128 35t79 97h88q-4 -134 -86 -226t-219 -92zM896 -25q-208 1 -377 61t-264 160q-189 200 -189 461q0 223 124 396q125 172 327 260t425 88t500 -82l26 -442h-65l-238 352q-119 88 -237 88q-176 0 -280 -162
t-103 -418q0 -319 119 -492t301 -173q74 0 133 28v449l-228 33v102h756v-96l-127 -33v-479l-82 -21q-313 -80 -521 -80z" />
    <glyph glyph-name="gbreve" unicode="&#x11f;" horiz-adv-x="1191" 
d="M528 985q-46 0 -72 -51q-26 -50 -23 -162t52 -212t117 -97q45 0 72 53q26 53 26 166t-52 208t-120 95zM563 1192q-293 0 -293 395h70q41 -213 223 -213t230 213h65q0 -187 -81 -291t-214 -104zM608 -360q144 0 226 54t81 116q0 34 -22 60t-59 34l-521 22q-25 -39 -24 -84
q0 -98 87 -150q88 -52 232 -52zM201 -35q-142 61 -142 204q1 69 49 131t164 140v6q-86 45 -133 117t-47 154q0 156 138 252t335 96q90 0 301 -49l326 31v-146l-242 14l-6 -10q94 -82 94 -192q0 -139 -126 -237t-341 -97q-121 0 -215 31q-25 -25 -24 -54q0 -72 102 -73
l447 -13q137 -4 208 -74t70 -184q0 -207 -212 -353t-496 -146q-211 1 -319 67t-107 174q0 133 176 201v10z" />
    <glyph glyph-name="Gdotaccent" unicode="&#x120;" horiz-adv-x="1646" 
d="M1116 1648q0 -80 -56 -134t-135 -54t-133 54t-54 134t54 135q54 56 133 56t135 -56t56 -135zM896 -25q-208 1 -377 61t-264 160q-189 200 -189 461q0 223 124 396q125 172 327 260t425 88t500 -82l26 -442h-65l-238 352q-119 88 -237 88q-176 0 -280 -162t-103 -418
q0 -319 119 -492t301 -173q74 0 133 28v449l-228 33v102h756v-96l-127 -33v-479l-82 -21q-313 -80 -521 -80z" />
    <glyph glyph-name="gdotaccent" unicode="&#x121;" horiz-adv-x="1191" 
d="M528 985q-46 0 -72 -51q-26 -50 -23 -162t52 -212t117 -97q45 0 72 53q26 53 26 166t-52 208t-120 95zM564 1161q-79 0 -133 54q-54 53 -54 133t54 136t133 56t135 -56q57 -56 57 -135t-56 -133t-136 -55zM608 -360q144 0 226 54t81 116q0 34 -22 60t-59 34l-521 22
q-25 -39 -24 -84q0 -98 87 -150q88 -52 232 -52zM201 -35q-142 61 -142 204q1 69 49 131t164 140v6q-86 45 -133 117t-47 154q0 156 138 252t335 96q90 0 301 -49l326 31v-146l-242 14l-6 -10q94 -82 94 -192q0 -139 -126 -237t-341 -97q-121 0 -215 31q-25 -25 -24 -54
q0 -72 102 -73l447 -13q137 -4 208 -74t70 -184q0 -207 -212 -353t-496 -146q-211 1 -319 67t-107 174q0 133 176 201v10z" />
    <glyph glyph-name="Gcommaaccent" unicode="&#x122;" horiz-adv-x="1646" 
d="M834 -281q0 41 -33 69t-80 32v14q57 102 184 103q80 -1 134 -47t55 -121q0 -205 -451 -275l-16 57q207 72 207 168zM896 -25q-208 1 -377 61t-264 160q-189 200 -189 461q0 223 124 396q125 172 327 260t425 88t500 -82l26 -442h-65l-238 352q-119 88 -237 88
q-176 0 -280 -162t-103 -418q0 -319 119 -492t301 -173q74 0 133 28v449l-228 33v102h756v-96l-127 -33v-479l-82 -21q-313 -80 -521 -80z" />
    <glyph glyph-name="gcommaaccent" unicode="&#x123;" horiz-adv-x="1191" 
d="M528 985q-46 0 -72 -51q-26 -50 -23 -162t52 -212t117 -97q45 0 72 53q26 53 26 166t-52 208t-120 95zM633 1399q0 -41 33 -69t79 -32v-14q-57 -102 -184 -102q-80 0 -134 46t-54 122q-1 204 450 274l17 -57q-207 -72 -207 -168zM608 -360q144 0 226 54t81 116
q0 34 -22 60t-59 34l-521 22q-25 -39 -24 -84q0 -98 87 -150q88 -52 232 -52zM201 -35q-142 61 -142 204q1 69 49 131t164 140v6q-86 45 -133 117t-47 154q0 156 138 252t335 96q90 0 301 -49l326 31v-146l-242 14l-6 -10q94 -82 94 -192q0 -139 -126 -237t-341 -97
q-121 0 -215 31q-25 -25 -24 -54q0 -72 102 -73l447 -13q137 -4 208 -74t70 -184q0 -207 -212 -353t-496 -146q-211 1 -319 67t-107 174q0 133 176 201v10z" />
    <glyph glyph-name="Hcircumflex" unicode="&#x124;" horiz-adv-x="1746" 
d="M674 1466h-101l191 306h219l201 -306h-113l-201 148zM971 0v84l162 37v516h-519v-516l158 -37v-84h-735v84l158 37v1118l-158 37v84h735v-84l-158 -37v-487h519v487l-158 37v84h735v-84l-158 -37v-1118l158 -37v-84h-739z" />
    <glyph glyph-name="hcircumflex" unicode="&#x125;" horiz-adv-x="1351" 
d="M481 1548h-100l190 305h220l200 -305h-112l-201 148zM709 0v82l100 24v549q0 85 -44 137q-45 52 -111 50t-103 -25v-711l96 -26v-80h-622v80l127 26v1156l-123 81v43l522 148v-635q172 168 350 168q141 0 224 -81t83 -226v-654l127 -26v-80h-626z" />
    <glyph glyph-name="Hbar" unicode="&#x126;" horiz-adv-x="1746" 
d="M614 956v-204h519v204h-519zM971 0v84l162 37v516h-519v-516l158 -37v-84h-735v84l158 37v835h-187v115h187v168l-158 37v84h735v-84l-158 -37v-168h519v168l-158 37v84h735v-84l-158 -37v-168h189v-115h-189v-835l158 -37v-84h-739z" />
    <glyph glyph-name="hbar" unicode="&#x127;" horiz-adv-x="1351" 
d="M709 0v82l100 24v549q0 85 -44 137q-45 52 -111 50t-103 -25v-711l96 -26v-80h-622v80l127 26v1057h-134v84h134v47l-123 49v43l522 148v-287h315v-84h-315v-264q172 168 350 168q141 0 224 -81t83 -226v-654l127 -26v-80h-626z" />
    <glyph glyph-name="Itilde" unicode="&#x128;" horiz-adv-x="808" 
d="M442 1556l-94 25q-125 33 -181 21t-99 -86l-50 20l13 35q63 178 142 227t237 8l92 -24q94 -29 165 -13t124 97l49 -21l-19 -47q-77 -190 -149 -236t-230 -6zM37 0v84l158 37v1118l-158 37v84h735v-84l-158 -37v-1118l158 -37v-84h-735z" />
    <glyph glyph-name="itilde" unicode="&#x129;" horiz-adv-x="706" 
d="M27 0v80l131 26v711l-129 105v41l530 104v-961l129 -26v-80h-661zM338 1239l-45 14q-125 37 -176 22t-97 -93l-49 20l13 35q63 180 149 234t240 2l43 -15q92 -32 158 -12t122 102l49 -20l-18 -47q-75 -193 -155 -244t-234 2z" />
    <glyph glyph-name="Imacron" unicode="&#x12a;" horiz-adv-x="808" 
d="M90 1536v164h627v-164h-627zM37 0v84l158 37v1118l-158 37v84h735v-84l-158 -37v-1118l158 -37v-84h-735z" />
    <glyph glyph-name="imacron" unicode="&#x12b;" horiz-adv-x="706" 
d="M41 1270v164h627v-164h-627zM27 0v80l131 26v711l-129 105v41l530 104v-961l129 -26v-80h-661z" />
    <glyph glyph-name="Ibreve" unicode="&#x12c;" horiz-adv-x="808" 
d="M395 1454q-137 0 -212 92t-77 226h95q70 -131 205 -132q82 0 128 35t78 97h88q-4 -134 -86 -226t-219 -92zM37 0v84l158 37v1118l-158 37v84h735v-84l-158 -37v-1118l158 -37v-84h-735z" />
    <glyph glyph-name="ibreve" unicode="&#x12d;" horiz-adv-x="706" 
d="M352 1192q-293 0 -293 395h70q41 -213 223 -213t230 213h65q0 -187 -81 -291t-214 -104zM27 0v80l131 26v711l-129 105v41l530 104v-961l129 -26v-80h-661z" />
    <glyph glyph-name="Iogonek" unicode="&#x12e;" horiz-adv-x="808" 
d="M37 0v84l158 37v1118l-158 37v84h735v-84l-158 -37v-1118l158 -37v-84h-317q-57 -117 -57 -172t26 -83q27 -28 75 -28t105 58l45 -33q-59 -113 -123 -171t-162 -58q-100 0 -156 51t-56 127q0 75 51 145t184 164h-350z" />
    <glyph glyph-name="iogonek" unicode="&#x12f;" horiz-adv-x="706" 
d="M561 1349q0 -79 -56 -133t-135 -55q-79 0 -133 54q-55 53 -55 133t54 136t134 56q79 0 135 -56t56 -135zM27 0v80l131 26v711l-129 105v41l530 104v-961l129 -26v-80h-278q-58 -117 -58 -172t27 -83t75 -28t105 58l45 -33q-58 -113 -122 -171t-164 -58t-155 51
q-57 51 -57 127q0 75 52 145t184 164h-315z" />
    <glyph glyph-name="Idotaccent" unicode="&#x130;" horiz-adv-x="808" 
d="M402 1460q-79 0 -133 54t-54 134t54 135q54 56 133 56q80 0 136 -56t56 -135t-56 -134q-57 -54 -136 -54zM37 0v84l158 37v1118l-158 37v84h735v-84l-158 -37v-1118l158 -37v-84h-735z" />
    <glyph glyph-name="dotlessi" unicode="&#x131;" horiz-adv-x="706" 
d="M27 0v80l131 26v711l-129 105v41l530 104v-961l129 -26v-80h-661z" />
    <glyph glyph-name="IJ" unicode="&#x132;" horiz-adv-x="1595" 
d="M37 0v84l158 37v1118l-158 37v84h735v-84l-158 -37v-1118l158 -37v-84h-735zM1413 203q0 -303 -168 -449t-516 -168l-10 52q172 104 223 190t51 260v1151l-178 37v84h756v-84l-158 -37v-1036z" />
    <glyph glyph-name="ij" unicode="&#x133;" horiz-adv-x="1378" 
d="M1239 1349q0 -79 -56 -133t-135 -55q-79 0 -134 54q-54 53 -54 133t54 136t134 56t135 -56q56 -56 56 -135zM838 29v788l-129 105v41l530 104v-856q0 -213 -27 -319t-131 -189q-104 -82 -237 -117t-213 -35l-13 43q50 42 64 52t50 46t47 60q47 100 53 155q6 56 6 122z
M561 1349q0 -79 -56 -133t-135 -55q-79 0 -133 54q-55 53 -55 133t54 136t134 56q79 0 135 -56t56 -135zM27 0v80l131 26v711l-129 105v41l530 104v-961l129 -26v-80h-661z" />
    <glyph glyph-name="Jcircumflex" unicode="&#x134;" horiz-adv-x="796" 
d="M201 1466h-101l191 306h219l201 -306h-113l-201 148zM614 203q0 -303 -168 -449t-516 -168l-10 52q172 104 223 190t52 260v1151l-179 37v84h756v-84l-158 -37v-1036z" />
    <glyph glyph-name="jcircumflex" unicode="&#x135;" horiz-adv-x="698" 
d="M166 1192h-92l194 395h178l193 -395h-92l-197 207zM158 29v788l-129 105v41l530 104v-856q0 -213 -27 -319t-131 -189q-104 -82 -237 -117t-213 -35l-12 43q49 42 63 52t50 46t47 60q47 100 53 155q6 56 6 122z" />
    <glyph glyph-name="Kcommaaccent" unicode="&#x136;" horiz-adv-x="1601" 
d="M813 -281q0 41 -33 69t-80 32v14q57 102 185 103q80 -1 134 -47t54 -121q1 -205 -450 -275l-17 57q207 72 207 168zM985 1360h520v-84l-186 -43l-336 -375l500 -747l131 -27v-84h-543l-418 621v10l527 606l-195 39v84zM37 0v84l158 37v1118l-158 37v84h735v-84l-158 -37
v-1118l158 -37v-84h-735z" />
    <glyph glyph-name="kcommaaccent" unicode="&#x137;" horiz-adv-x="1331" 
d="M633 -281q0 41 -33 69t-80 32v14q57 102 185 103q80 -1 134 -47t54 -121q0 -205 -451 -275l-16 57q207 72 207 168zM1104 -29q-131 0 -209 46t-139 163l-189 350l359 367l-189 59v78h561v-78l-174 -43l-229 -196l436 -684q-96 -62 -227 -62zM668 0h-643v80l127 26v1156
l-123 81v43l522 148v-1428l117 -26v-80z" />
    <glyph glyph-name="kgreenlandic" unicode="&#x138;" horiz-adv-x="1331" 
d="M1104 -29q-131 0 -209 46t-139 163l-189 350l359 367l-189 59v78h561v-78l-174 -43l-229 -196l436 -684q-96 -62 -227 -62zM25 0v80l127 26v711l-123 90v43l522 121v-965l117 -26v-80h-643z" />
    <glyph glyph-name="Lacute" unicode="&#x139;" horiz-adv-x="1294" 
d="M819 1772v-29l-348 -277h-117l162 306h303zM778 86h146l264 477h76l-103 -563h-1124v84l158 37v1118l-158 37v84h735v-84l-158 -37v-1094q57 -59 164 -59z" />
    <glyph glyph-name="lacute" unicode="&#x13a;" horiz-adv-x="690" 
d="M750 1853v-28l-349 -277h-116l161 305h304zM25 0v80l127 26v1156l-123 81v43l522 148v-1428l123 -26v-80h-649z" />
    <glyph glyph-name="Lcommaaccent" unicode="&#x13b;" horiz-adv-x="1294" 
d="M567 -281q0 41 -32 69q-33 28 -80 32v14q57 102 184 103q80 -1 134 -47t54 -121q1 -205 -450 -275l-17 57q207 72 207 168zM778 86h146l264 477h76l-103 -563h-1124v84l158 37v1118l-158 37v84h735v-84l-158 -37v-1094q57 -59 164 -59z" />
    <glyph glyph-name="lcommaaccent" unicode="&#x13c;" horiz-adv-x="690" 
d="M266 -281q0 41 -33 69t-79 32v14q57 102 184 103q80 -1 134 -47t54 -121q1 -205 -450 -275l-17 57q207 72 207 168zM25 0v80l127 26v1156l-123 81v43l522 148v-1428l123 -26v-80h-649z" />
    <glyph glyph-name="Lcaron" unicode="&#x13d;" horiz-adv-x="1294" 
d="M1264 1495v-16l-252 -416h-66l47 432h271zM778 86h146l264 477h76l-103 -563h-1124v84l158 37v1118l-158 37v84h735v-84l-158 -37v-1094q57 -59 164 -59z" />
    <glyph glyph-name="lcaron" unicode="&#x13e;" horiz-adv-x="690" 
d="M948 1495v-16l-252 -416h-65l47 432h270zM25 0v80l127 26v1156l-123 81v43l522 148v-1428l123 -26v-80h-649z" />
    <glyph glyph-name="Ldot" unicode="&#x13f;" horiz-adv-x="1294" 
d="M778 86h146l250 397h75l-88 -483h-1124v84l158 37v1118l-158 37v84h735v-84l-158 -37v-1094q57 -59 164 -59zM1088 946q74 0 130 -55t56 -130t-56 -129t-130 -54q-75 0 -130 55t-55 129t55 129t130 55z" />
    <glyph glyph-name="ldot" unicode="&#x140;" horiz-adv-x="942" 
d="M25 0v80l127 26v1156l-123 81v43l522 148v-1428l123 -26v-80h-649zM818 578q-75 0 -130 55t-55 129t55 129t130 55t130 -55q56 -55 56 -130t-56 -129t-130 -54z" />
    <glyph glyph-name="Lslash" unicode="&#x141;" horiz-adv-x="1294" 
d="M37 1360h735v-84l-158 -37v-483l369 116v-96l-369 -117v-507q57 -59 164 -60h146l264 471h76l-103 -563h-1124v84l158 37v407l-146 -45v97l146 45v614l-158 37v84z" />
    <glyph glyph-name="lslash" unicode="&#x142;" horiz-adv-x="690" 
d="M674 0h-649v80l127 26v527l-127 -53v106l127 53v523l-123 81v43l522 148v-629l151 64v-105l-151 -63v-695l123 -26v-80z" />
    <glyph glyph-name="Nacute" unicode="&#x143;" horiz-adv-x="1511" 
d="M1202 1772v-29l-348 -277h-117l162 306h303zM559 0h-514v84l158 35v1014q-88 111 -162 133l-39 12v82h539l690 -815l-12 676l-222 57v82h506v-82l-157 -43v-1098l4 -131l-183 -33l-850 1008l15 -856l227 -41v-84z" />
    <glyph glyph-name="nacute" unicode="&#x144;" horiz-adv-x="1351" 
d="M1018 1587v-14l-309 -381h-84l108 395h285zM25 0v80l127 26v711l-123 90v43l463 121h10l22 -192h4q182 188 373 188q141 0 224 -81t83 -226v-654l127 -26v-80h-626v82l100 24v549q0 85 -44 137q-45 52 -111 50t-103 -25v-711l96 -26v-80h-622z" />
    <glyph glyph-name="Ncommaaccent" unicode="&#x145;" horiz-adv-x="1511" 
d="M723 -281q0 41 -33 69t-80 32v14q57 102 185 103q80 -1 134 -47t54 -121q0 -205 -451 -275l-16 57q207 72 207 168zM559 0h-514v84l158 35v1014q-88 111 -162 133l-39 12v82h539l690 -815l-12 676l-222 57v82h506v-82l-157 -43v-1098l4 -131l-183 -33l-850 1008l15 -856
l227 -41v-84z" />
    <glyph glyph-name="ncommaaccent" unicode="&#x146;" horiz-adv-x="1351" 
d="M590 -281q0 41 -33 69t-80 32v14q57 102 185 103q80 -1 134 -47t54 -121q0 -205 -451 -275l-16 57q207 72 207 168zM25 0v80l127 26v711l-123 90v43l463 121h10l22 -192h4q182 188 373 188q141 0 224 -81t83 -226v-654l127 -26v-80h-626v82l100 24v549q0 85 -44 137
q-45 52 -111 50t-103 -25v-711l96 -26v-80h-622z" />
    <glyph glyph-name="Ncaron" unicode="&#x147;" horiz-adv-x="1511" 
d="M997 1772h101l-191 -306h-219l-201 306h113l201 -154zM559 0h-514v84l158 35v1014q-88 111 -162 133l-39 12v82h539l690 -815l-12 676l-222 57v82h506v-82l-157 -43v-1098l4 -131l-183 -33l-850 1008l15 -856l227 -41v-84z" />
    <glyph glyph-name="ncaron" unicode="&#x148;" horiz-adv-x="1351" 
d="M862 1587h92l-194 -395h-178l-193 395h92l197 -207zM25 0v80l127 26v711l-123 90v43l463 121h10l22 -192h4q182 188 373 188q141 0 224 -81t83 -226v-654l127 -26v-80h-626v82l100 24v549q0 85 -44 137q-45 52 -111 50t-103 -25v-711l96 -26v-80h-622z" />
    <glyph glyph-name="napostrophe" unicode="&#x149;" horiz-adv-x="1351" 
d="M-43 1120l-16 58q207 72 206 168q-1 40 -33 68t-79 32v14q57 102 184 103q80 0 134 -46t55 -122q0 -205 -451 -275zM25 0v80l127 26v711l-123 90v43l463 121h10l22 -192h4q182 188 373 188q141 0 224 -81t83 -226v-654l127 -26v-80h-626v82l100 24v549q0 85 -44 137
q-45 52 -111 50t-103 -25v-711l96 -26v-80h-622z" />
    <glyph glyph-name="Eng" unicode="&#x14a;" horiz-adv-x="1527" 
d="M1346 205q0 -293 -153 -441t-476 -172l-10 52q181 61 289 143t145 217l-813 965l16 -844l227 -41v-84h-526v84l158 35v1014q-88 111 -162 133l-39 12v82h539l690 -815l-12 676l-222 57v82h506v-82l-157 -43v-1030z" />
    <glyph glyph-name="eng" unicode="&#x14b;" horiz-adv-x="1347" 
d="M809 29v626q0 85 -44 137q-45 52 -111 50t-103 -25v-711l96 -26v-80h-622v80l127 26v711l-123 90v43l463 121h10l22 -192h4q182 188 373 188q141 0 224 -81t83 -226v-549q0 -215 -26 -321t-129 -187q-103 -82 -237 -117t-214 -35l-12 43q49 42 63 52t50 46q35 36 47 60
q46 93 53 152q6 59 6 125z" />
    <glyph glyph-name="Omacron" unicode="&#x14c;" horiz-adv-x="1656" 
d="M514 1536v164h627v-164h-627zM831 1401q309 0 534 -176q111 -87 175 -223t64 -304q0 -313 -238 -518t-547 -205q-209 0 -381 82t-278 244t-107 377q1 303 235 513t543 210zM793 1309q-121 1 -196 -143t-75 -436t100 -477t230 -185q131 0 207 141t76 424q1 283 -93 479
t-249 197z" />
    <glyph glyph-name="omacron" unicode="&#x14d;" horiz-adv-x="1290" 
d="M332 1270v164h626v-164h-626zM1239 524q0 -240 -169 -398t-435 -157q-266 0 -425 157q-159 156 -159 390t171 392t426 157q255 0 423 -151q168 -150 168 -390zM606 985q-137 0 -137 -338q0 -244 61 -421t152 -177q135 0 135 354q0 236 -58 409q-59 173 -153 173z" />
    <glyph glyph-name="Obreve" unicode="&#x14e;" horiz-adv-x="1656" 
d="M819 1454q-137 0 -212 92t-77 226h95q70 -131 204 -132q82 0 128 35t79 97h88q-4 -134 -86 -226t-219 -92zM831 1401q309 0 534 -176q111 -87 175 -223t64 -304q0 -313 -238 -518t-547 -205q-209 0 -381 82t-278 244t-107 377q1 303 235 513t543 210zM793 1309
q-121 1 -196 -143t-75 -436t100 -477t230 -185q131 0 207 141t76 424q1 283 -93 479t-249 197z" />
    <glyph glyph-name="obreve" unicode="&#x14f;" horiz-adv-x="1290" 
d="M645 1192q-293 0 -293 395h70q41 -213 223 -213t229 213h66q0 -187 -81 -291t-214 -104zM1239 524q0 -240 -169 -398t-435 -157q-266 0 -425 157q-159 156 -159 390t171 392t426 157q255 0 423 -151q168 -150 168 -390zM606 985q-137 0 -137 -338q0 -244 61 -421
t152 -177q135 0 135 354q0 236 -58 409q-59 173 -153 173z" />
    <glyph glyph-name="Ohungarumlaut" unicode="&#x150;" horiz-adv-x="1656" 
d="M1286 1772v-23l-239 -283h-109l84 306h264zM909 1772v-23l-237 -283h-109l84 306h262zM831 1401q309 0 534 -176q111 -87 175 -223t64 -304q0 -313 -238 -518t-547 -205q-209 0 -381 82t-278 244t-107 377q1 303 235 513t543 210zM793 1309q-121 1 -196 -143t-75 -436
t100 -477t230 -185q131 0 207 141t76 424q1 283 -93 479t-249 197z" />
    <glyph glyph-name="ohungarumlaut" unicode="&#x151;" horiz-adv-x="1290" 
d="M1071 1587v-18l-246 -377h-86l76 395h256zM729 1587v-18l-246 -377h-82l74 395h254zM1239 524q0 -240 -169 -398t-435 -157q-266 0 -425 157q-159 156 -159 390t171 392t426 157q255 0 423 -151q168 -150 168 -390zM606 985q-137 0 -137 -338q0 -244 61 -421t152 -177
q135 0 135 354q0 236 -58 409q-59 173 -153 173z" />
    <glyph glyph-name="OE" unicode="&#x152;" horiz-adv-x="2207" 
d="M868 63q111 0 163 85t52 221v780q-90 149 -233 149q-144 0 -234 -144t-90 -435t102 -473t240 -183zM53 658q-1 310 233 514q234 202 545 202q72 0 295 -7t555 -7h439v-428h-78l-150 338h-391v-520h172l70 241h80v-573h-80l-70 229h-172v-497q59 -61 162 -62h182l240 416
h78l-76 -504h-406l-862 -14q-324 0 -545 181t-221 491z" />
    <glyph glyph-name="oe" unicode="&#x153;" horiz-adv-x="1984" 
d="M1392 975q-56 0 -94 -71t-38 -220h272q-6 127 -45 209t-95 82zM608 979q-123 0 -123 -342q-1 -229 57 -411t148 -183q119 0 119 352q-1 225 -57 405t-144 179zM1430 -27q-104 -1 -204 55t-171 152q-154 -219 -423 -219t-427 157q-158 158 -158 392t173 392t431 159
q258 0 410 -207q76 98 182 156t217 57q212 0 318 -120t135 -345h-651q16 -176 132 -273q209 -175 500 -36l31 -45q-210 -275 -495 -275z" />
    <glyph glyph-name="Racute" unicode="&#x154;" horiz-adv-x="1505" 
d="M1118 1772v-29l-348 -277h-117l162 306h303zM608 684h146q86 28 141 104t55 168q0 139 -97 224q-98 84 -245 96v-592zM37 0v84l158 37v1118l-158 37v84h622q355 0 519 -96t163 -250q0 -229 -290 -342v-10l323 -551l131 -27v-84h-516l-346 590h-35v-469l146 -37v-84h-717z
" />
    <glyph glyph-name="racute" unicode="&#x155;" horiz-adv-x="972" 
d="M901 1587v-14l-309 -381h-84l108 395h285zM25 0v80l127 26v711l-123 90v43l471 121h12l14 -274h11l32 71q45 100 101 148t140 49q83 0 138 -49q56 -49 56 -142q0 -92 -68 -148t-199 -54l-104 114q-27 -12 -51 -41t-31 -61v-578l192 -26v-80h-718z" />
    <glyph glyph-name="Rcommaaccent" unicode="&#x156;" horiz-adv-x="1505" 
d="M754 -281q0 41 -33 69t-80 32v14q57 102 184 103q80 -1 134 -47t55 -121q0 -205 -451 -275l-16 57q207 72 207 168zM608 684h146q86 28 141 104t55 168q0 139 -97 224q-98 84 -245 96v-592zM37 0v84l158 37v1118l-158 37v84h622q355 0 519 -96t163 -250q0 -229 -290 -342
v-10l323 -551l131 -27v-84h-516l-346 590h-35v-469l146 -37v-84h-717z" />
    <glyph glyph-name="rcommaaccent" unicode="&#x157;" horiz-adv-x="972" 
d="M281 -281q0 41 -33 69t-80 32v14q57 102 184 103q80 -1 134 -47t55 -121q0 -205 -451 -275l-16 57q207 72 207 168zM25 0v80l127 26v711l-123 90v43l471 121h12l14 -274h11l32 71q45 100 101 148t140 49q83 0 138 -49q56 -49 56 -142q0 -92 -68 -148t-199 -54l-104 114
q-27 -12 -51 -41t-31 -61v-578l192 -26v-80h-718z" />
    <glyph glyph-name="Rcaron" unicode="&#x158;" horiz-adv-x="1505" 
d="M913 1772h101l-191 -306h-219l-201 306h113l201 -154zM608 684h146q86 28 141 104t55 168q0 139 -97 224q-98 84 -245 96v-592zM37 0v84l158 37v1118l-158 37v84h622q355 0 519 -96t163 -250q0 -229 -290 -342v-10l323 -551l131 -27v-84h-516l-346 590h-35v-469l146 -37
v-84h-717z" />
    <glyph glyph-name="rcaron" unicode="&#x159;" horiz-adv-x="972" 
d="M745 1587h93l-195 -395h-178l-193 395h93l196 -207zM25 0v80l127 26v711l-123 90v43l471 121h12l14 -274h11l32 71q45 100 101 148t140 49q83 0 138 -49q56 -49 56 -142q0 -92 -68 -148t-199 -54l-104 114q-27 -12 -51 -41t-31 -61v-578l192 -26v-80h-718z" />
    <glyph glyph-name="Sacute" unicode="&#x15a;" horiz-adv-x="1191" 
d="M1049 1772v-29l-349 -277h-116l161 306h304zM532 63q104 -1 164 57t60 142t-44 130t-147 85l-116 43q-336 125 -336 420q0 176 151 317q152 141 430 142q174 0 365 -80v-395h-68l-155 344q-56 49 -152 49t-158 -55q-62 -56 -61 -142q0 -86 55 -136t178 -95l140 -49
q288 -104 288 -348t-177 -380q-177 -138 -425 -139q-178 0 -407 82l-45 461h65l199 -379q92 -74 196 -74z" />
    <glyph glyph-name="sacute" unicode="&#x15b;" horiz-adv-x="993" 
d="M895 1587v-14l-309 -381h-84l108 395h285zM408 -31q-147 0 -328 64l-14 344h67l143 -264q52 -57 132 -57t124 36q44 37 43 98q0 100 -118 144l-150 55q-229 84 -229 320q0 160 132 261t361 101q145 0 308 -61v-320h-62l-129 242q-62 51 -128 51t-106 -35t-40 -90
q0 -96 127 -145l147 -56q240 -88 240 -292q0 -174 -148 -285t-372 -111z" />
    <glyph glyph-name="Scircumflex" unicode="&#x15c;" horiz-adv-x="1191" 
d="M453 1466h-101l191 306h219l201 -306h-113l-201 148zM532 63q104 -1 164 59t60 142t-44 128t-141 83l-122 45q-336 125 -336 420q0 176 151 317q152 141 430 142q174 0 365 -80v-395h-68l-155 344q-56 49 -152 49t-158 -55q-62 -56 -61 -142q0 -86 55 -136t178 -95
l140 -49q288 -104 288 -348t-177 -380q-177 -138 -425 -139q-178 0 -407 82l-45 461h65l199 -379q92 -74 196 -74z" />
    <glyph glyph-name="scircumflex" unicode="&#x15d;" horiz-adv-x="993" 
d="M344 1192h-92l194 395h179l192 -395h-92l-197 207zM408 -31q-147 0 -328 64l-14 344h67l143 -264q52 -57 132 -57t124 36q44 37 43 98q0 100 -118 144l-150 55q-229 84 -229 320q0 160 132 261t361 101q145 0 308 -61v-320h-62l-129 242q-62 51 -128 51t-106 -35t-40 -90
q0 -96 127 -145l147 -56q240 -88 240 -292q0 -174 -148 -285t-372 -111z" />
    <glyph glyph-name="Scedilla" unicode="&#x15e;" horiz-adv-x="1191" 
d="M510 -283q0 72 -98 103l108 153q-184 2 -403 82l-45 461h65l199 -379q92 -74 196 -74q104 1 164 59t60 142t-43 129t-135 80l-129 47q-336 125 -336 420q0 176 151 317q152 141 430 142q174 0 365 -80v-395h-68l-155 344q-56 49 -152 49t-158 -55q-62 -56 -61 -142
q0 -86 55 -136t178 -95l140 -49q289 -104 288 -351q0 -221 -152 -356t-376 -156l-43 -59q95 -8 155 -48t60 -112q0 -194 -451 -264l-16 57q207 70 207 166z" />
    <glyph glyph-name="scedilla" unicode="&#x15f;" horiz-adv-x="993" 
d="M575 190q0 100 -118 144l-150 55q-229 84 -229 320q0 160 132 261t361 101q145 0 308 -61v-320h-62l-129 242q-62 51 -128 51t-106 -35t-40 -90q0 -96 127 -145l147 -56q240 -88 240 -292q0 -156 -123 -264t-316 -128l-38 -55q94 -8 154 -48t61 -112q0 -195 -451 -264
l-16 57q207 70 207 166q0 72 -99 103l105 149q-152 0 -332 64l-14 344h67l143 -264q52 -57 132 -57t124 36q44 37 43 98z" />
    <glyph glyph-name="Scaron" unicode="&#x160;" horiz-adv-x="1191" 
d="M844 1772h100l-190 -306h-219l-201 306h112l201 -154zM532 63q104 -1 164 59t60 144t-42 127t-136 80l-129 47q-336 125 -336 420q0 176 151 317q152 141 430 142q174 0 365 -80v-395h-68l-155 344q-56 49 -152 49t-158 -55q-62 -56 -61 -142q0 -86 55 -136t178 -95
l140 -49q288 -104 288 -348t-177 -380q-177 -138 -425 -139q-178 0 -407 82l-45 461h65l199 -379q92 -74 196 -74z" />
    <glyph glyph-name="scaron" unicode="&#x161;" horiz-adv-x="993" 
d="M725 1587h92l-194 -395h-179l-192 395h92l197 -207zM408 -31q-147 0 -328 64l-14 344h67l143 -264q52 -57 132 -57t124 36q44 37 43 98q0 100 -118 144l-150 55q-229 84 -229 320q0 160 132 261t361 101q145 0 308 -61v-320h-62l-129 242q-62 51 -128 51t-106 -35
t-40 -90q0 -96 127 -145l147 -56q240 -88 240 -292q0 -174 -148 -285t-372 -111z" />
    <glyph glyph-name="Tcommaaccent" unicode="&#x162;" horiz-adv-x="1345" 
d="M598 -281q0 41 -33 69t-80 32v14q57 102 185 103q80 -1 134 -47t54 -121q1 -205 -450 -275l-17 57q207 72 207 168zM1315 1360v-455h-64l-145 350h-223v-1134l200 -37v-84h-823v84l203 37v1134h-223l-146 -350h-63v455h1284z" />
    <glyph glyph-name="tcommaaccent" unicode="&#x163;" horiz-adv-x="823" 
d="M166 -506l-16 57q207 72 206 168q0 41 -32 69q-33 28 -80 32v14q57 102 184 103q80 -1 134 -47t54 -121q1 -205 -450 -275zM430 -31q-303 0 -299 314l6 624h-149v76l151 57l359 244h32v-250h301v-127h-301v-631q37 -135 199 -135q41 0 92 11l13 -68q-209 -115 -404 -115z
" />
    <glyph glyph-name="Tcaron" unicode="&#x164;" horiz-adv-x="1345" 
d="M872 1772h101l-191 -306h-219l-201 306h113l201 -154zM1315 1360v-455h-64l-145 350h-223v-1134l200 -37v-84h-823v84l203 37v1134h-223l-146 -350h-63v455h1284z" />
    <glyph glyph-name="tcaron" unicode="&#x165;" horiz-adv-x="823" 
d="M963 1587v-16l-252 -416h-66l47 432h271zM430 -31q-303 0 -299 314l6 624h-149v76l151 57l359 244h32v-250h301v-127h-301v-631q37 -135 199 -135q41 0 92 11l13 -68q-209 -115 -404 -115z" />
    <glyph glyph-name="Tbar" unicode="&#x166;" horiz-adv-x="1345" 
d="M160 680v115h303v452h-223l-146 -342h-63v455h1284v-455h-64l-145 342h-223v-452h299v-115h-299v-559l200 -37v-84h-823v84l203 37v559h-303z" />
    <glyph glyph-name="tbar" unicode="&#x167;" horiz-adv-x="823" 
d="M-12 614v101h147l2 192h-149v76l151 57l359 244h32v-250h301v-127h-301v-192h301v-101h-301v-338q37 -135 199 -135q41 0 92 11l13 -68q-209 -115 -404 -115q-303 0 -299 314l2 331h-145z" />
    <glyph glyph-name="Utilde" unicode="&#x168;" horiz-adv-x="1513" 
d="M899 1556l-94 25q-125 33 -181 21t-100 -86l-49 20l12 35q63 178 143 227t236 8l92 -24q94 -29 165 -13t124 97l49 -21l-18 -47q-76 -190 -148 -236t-231 -6zM1348 567q0 -283 -148 -441t-428 -157q-282 0 -443 130t-161 413v727l-158 37v84h783v-84l-201 -37v-723
q0 -184 88 -275t223 -91t226 90t90 272l-5 723l-202 41v84h491v-84l-155 -41v-668z" />
    <glyph glyph-name="utilde" unicode="&#x169;" horiz-adv-x="1331" 
d="M692 1223l-92 30q-125 37 -176 22t-96 -93l-49 20l12 35q63 180 149 234t240 2l90 -31q92 -32 159 -12t122 102l49 -21l-19 -47q-75 -194 -155 -244t-234 3zM532 358q0 -172 132 -172q70 0 120 25v643l-120 66v51l520 92v-922l127 -24v-68l-496 -72l-24 158
q-178 -166 -353 -166q-116 0 -211 64q-94 64 -94 246v563l-123 67v49l522 97v-697z" />
    <glyph glyph-name="Umacron" unicode="&#x16a;" horiz-adv-x="1513" 
d="M547 1536v164h627v-164h-627zM1348 567q0 -283 -148 -441t-428 -157q-282 0 -443 130t-161 413v727l-158 37v84h783v-84l-201 -37v-723q0 -184 88 -275t223 -91t226 90t90 272l-5 723l-202 41v84h491v-84l-155 -41v-668z" />
    <glyph glyph-name="umacron" unicode="&#x16b;" horiz-adv-x="1331" 
d="M354 1270v164h627v-164h-627zM532 358q0 -172 132 -172q70 0 120 25v643l-120 66v51l520 92v-922l127 -24v-68l-496 -72l-24 158q-178 -166 -353 -166q-116 0 -211 64q-94 64 -94 246v563l-123 67v49l522 97v-697z" />
    <glyph glyph-name="Ubreve" unicode="&#x16c;" horiz-adv-x="1513" 
d="M852 1454q-137 0 -212 92t-77 226h94q70 -131 205 -132q82 0 128 35t79 97h88q-4 -134 -86 -226t-219 -92zM1348 567q0 -283 -148 -441t-428 -157q-282 0 -443 130t-161 413v727l-158 37v84h783v-84l-201 -37v-723q0 -184 88 -275t223 -91t226 90t90 272l-5 723l-202 41
v84h491v-84l-155 -41v-668z" />
    <glyph glyph-name="ubreve" unicode="&#x16d;" horiz-adv-x="1331" 
d="M668 1192q-293 0 -293 395h69q42 -213 224 -213t229 213h66q0 -187 -81 -291t-214 -104zM532 358q0 -172 132 -172q70 0 120 25v643l-120 66v51l520 92v-922l127 -24v-68l-496 -72l-24 158q-178 -166 -353 -166q-116 0 -211 64q-94 64 -94 246v563l-123 67v49l522 97
v-697z" />
    <glyph glyph-name="Uring" unicode="&#x16e;" horiz-adv-x="1513" 
d="M727 1702q0 -60 40 -102t95 -42t93 40q38 38 38 100t-40 102q-40 41 -95 41t-93 -39t-38 -100zM631 1698q-1 90 65 154t166 65q100 -1 164 -63t64 -152t-66 -155t-166 -65t-164 63q-63 63 -63 153zM1348 567q0 -283 -148 -441t-428 -157q-282 0 -443 130t-161 413v727
l-158 37v84h783v-84l-201 -37v-723q0 -184 88 -275t223 -91t226 90t90 272l-5 723l-202 41v84h491v-84l-155 -41v-668z" />
    <glyph glyph-name="uring" unicode="&#x16f;" horiz-adv-x="1331" 
d="M535 1374q-1 -61 39 -102t96 -41t93 39q38 39 38 100q0 60 -40 102t-95 42t-94 -39q-37 -40 -37 -101zM438 1370q0 90 66 155t166 65t164 -63t63 -153q0 -90 -66 -154q-65 -64 -165 -65q-100 1 -164 63t-64 152zM532 358q0 -172 132 -172q70 0 120 25v643l-120 66v51
l520 92v-922l127 -24v-68l-496 -72l-24 158q-178 -166 -353 -166q-116 0 -211 64q-94 64 -94 246v563l-123 67v49l522 97v-697z" />
    <glyph glyph-name="Uhungarumlaut" unicode="&#x170;" horiz-adv-x="1513" 
d="M1319 1772v-23l-240 -283h-108l84 306h264zM942 1772v-23l-237 -283h-109l84 306h262zM1348 567q0 -283 -148 -441t-428 -157q-282 0 -443 130t-161 413v727l-158 37v84h783v-84l-201 -37v-723q0 -184 88 -275t223 -91t226 90t90 272l-5 723l-202 41v84h491v-84l-155 -41
v-668z" />
    <glyph glyph-name="uhungarumlaut" unicode="&#x171;" horiz-adv-x="1331" 
d="M762 1587v-18l-246 -377h-82l74 395h254zM1104 1587v-18l-246 -377h-86l76 395h256zM532 358q0 -172 132 -172q70 0 120 25v643l-120 66v51l520 92v-922l127 -24v-68l-496 -72l-24 158q-178 -166 -353 -166q-116 0 -211 64q-94 64 -94 246v563l-123 67v49l522 97v-697z
" />
    <glyph glyph-name="Uogonek" unicode="&#x172;" horiz-adv-x="1513" 
d="M168 512v727l-158 37v84h783v-84l-201 -37v-723q0 -184 88 -275t223 -91t226 90t90 272l-5 723l-202 41v84h491v-84l-155 -41v-668q0 -241 -106 -391t-316 -190q-72 -106 -72 -160t27 -81q27 -28 75 -28t105 58l45 -33q-58 -113 -122 -171t-164 -58t-155 51
q-57 51 -57 126t46 137t169 144l-65 -2q-268 0 -429 130t-161 413z" />
    <glyph glyph-name="uogonek" unicode="&#x173;" horiz-adv-x="1331" 
d="M532 358q0 -172 132 -172q70 0 120 25v643l-120 66v51l520 92v-922l127 -24v-68l-400 -57q-75 -111 -75 -165t26 -82t75 -28q48 0 105 58l45 -33q-59 -113 -122 -171t-163 -58t-156 51t-56 126q0 76 48 140t177 147l-24 158q-179 -166 -353 -166q-116 0 -211 64
q-94 64 -94 246v563l-123 67v49l522 97v-697z" />
    <glyph glyph-name="Wcircumflex" unicode="&#x174;" horiz-adv-x="2125" 
d="M963 1466h-101l191 306h219l201 -306h-113l-201 148zM-2 1360h684v-84l-121 -35l256 -868l201 585l-96 283l-88 35v84h690v-84l-168 -35l258 -838l272 826l-180 47v84h422v-84l-129 -41l-436 -1260h-203l-295 846l-309 -846h-201l-436 1266l-121 33v86z" />
    <glyph glyph-name="wcircumflex" unicode="&#x175;" horiz-adv-x="1699" 
d="M825 1192h-92l195 395h178l192 -395h-92l-196 207zM1323 1034h397v-78l-112 -20l-326 -963h-164l-235 523l-21 53h-2l-18 -51l-215 -525h-168l-365 963l-114 20v78h698v-78l-146 -20l154 -465l19 -68h2l22 68l217 563h121l254 -575l16 -47h2l146 520l-162 24v78z" />
    <glyph glyph-name="Ycircumflex" unicode="&#x176;" horiz-adv-x="1404" 
d="M643 1466h-100l190 306h219l201 -306h-113l-200 148zM1085 0h-741v82l162 39v407l-381 711l-127 37v84h776v-84l-201 -37l289 -590l293 586l-211 41v84h463v-84l-133 -41l-350 -662v-452l161 -39v-82z" />
    <glyph glyph-name="ycircumflex" unicode="&#x177;" horiz-adv-x="1099" 
d="M496 1192h-93l195 395h178l193 -395h-92l-197 207zM788 1034h322v-78l-88 -20l-492 -1188q-92 -223 -256 -223q-78 0 -135 55t-57 139q0 85 56 139t136 54q129 0 175 -125h4l45 111l-430 1040l-78 18v78h631v-78l-125 -16l192 -573l211 565l-111 24v78z" />
    <glyph glyph-name="Ydieresis" unicode="&#x178;" horiz-adv-x="1404" 
d="M1063 1460q-70 0 -119 50t-49 120t49 121t119 51t122 -51t52 -121t-52 -120t-122 -50zM539 1802q71 0 121 -51t50 -121t-50 -120q-51 -50 -122 -50t-121 50t-50 120t51 121t121 51zM1085 0h-741v82l162 39v407l-381 711l-127 37v84h776v-84l-201 -37l289 -590l293 586
l-211 41v84h463v-84l-133 -41l-350 -662v-452l161 -39v-82z" />
    <glyph glyph-name="Zacute" unicode="&#x179;" horiz-adv-x="1355" 
d="M1055 1772v-29l-348 -277h-117l162 306h303zM51 0v86l688 1171h-432l-174 -358h-67l14 461h1180v-25l-754 -1235h534l236 394h70l-91 -494h-1204z" />
    <glyph glyph-name="zacute" unicode="&#x17a;" horiz-adv-x="1075" 
d="M903 1587v-14l-309 -381h-84l108 395h285zM37 0v49l518 883h-272l-146 -316h-67v443l184 -25h776v-12l-538 -920h280l195 342h71l-47 -444h-954z" />
    <glyph glyph-name="Zdotaccent" unicode="&#x17b;" horiz-adv-x="1355" 
d="M656 1460q-79 0 -133 54t-54 134t54 135q54 56 133 56q80 0 136 -56t56 -135t-56 -134q-57 -54 -136 -54zM51 0v86l688 1171h-432l-174 -358h-67l14 461h1180v-25l-754 -1235h534l236 394h70l-91 -494h-1204z" />
    <glyph glyph-name="zdotaccent" unicode="&#x17c;" horiz-adv-x="1075" 
d="M558 1161q-79 0 -133 54q-54 53 -54 133t54 136t133 56t135 -56q57 -56 57 -135t-56 -133t-136 -55zM37 0v49l518 883h-272l-146 -316h-67v443l184 -25h776v-12l-538 -920h280l195 342h71l-47 -444h-954z" />
    <glyph glyph-name="Zcaron" unicode="&#x17d;" horiz-adv-x="1355" 
d="M850 1772h100l-190 -306h-219l-201 306h113l200 -154zM51 0v86l688 1171h-432l-174 -358h-67l14 461h1180v-25l-754 -1235h534l236 394h70l-91 -494h-1204z" />
    <glyph glyph-name="zcaron" unicode="&#x17e;" horiz-adv-x="1075" 
d="M748 1587h92l-195 -395h-178l-193 395h93l196 -207zM37 0v49l518 883h-272l-146 -316h-67v443l184 -25h776v-12l-538 -920h280l195 342h71l-47 -444h-954z" />
    <glyph glyph-name="florin" unicode="&#x192;" horiz-adv-x="1191" 
d="M1017 1243q85 0 144 -43t59 -124t-62 -132t-157 -63q-43 233 -117 233t-100 -240l-18 -155h309l-18 -115h-303l-29 -254q-21 -184 -83 -334t-139 -240t-167 -150q-162 -111 -295 -109q-80 0 -136 50t-57 109q0 137 207 193q33 -111 74 -168t74 -57q59 0 78 168l86 792
h-254l20 115h258q47 147 167 272t247 189t212 63z" />
    <glyph glyph-name="Aringacute" unicode="&#x1fa;" horiz-adv-x="1466" 
d="M612 1665q0 -61 40 -102t96 -41t93 39q38 39 38 100t-40 102q-39 41 -95 41t-94 -39t-38 -100zM569 979l-163 -430h313zM1163 2228v-28l-348 -277h-117l162 305h303zM516 1661q0 90 66 155q66 64 166 64t163 -62t63 -152t-65 -156q-66 -64 -166 -64q-99 0 -163 62
t-64 153zM-2 0v84l125 35l512 1253l203 41l512 -1304l118 -25v-84h-755v84l159 29l-114 327h-393l-119 -313l221 -43v-84h-469z" />
    <glyph glyph-name="aringacute" unicode="&#x1fb;" horiz-adv-x="1138" 
d="M532 168q48 0 78 22v320h-2q-197 -57 -196 -199q0 -67 36 -105t84 -38zM438 1354q0 -60 40 -102t95 -42t94 39q38 39 38 101t-40 102q-39 41 -95 41t-94 -39t-38 -100zM969 1935v-28l-348 -277h-117l162 305h303zM342 1350q0 90 66 154t166 65q100 -1 162 -63
q64 -62 64 -152t-65 -155q-66 -65 -166 -65q-99 0 -163 64q-64 62 -64 152zM330 -31q-127 0 -205 79t-78 197q0 117 85 185t286 115l192 45v180q-20 182 -151 182q-33 0 -53 -10l-5 -262q-61 -29 -168 -29q-154 0 -153 131q0 106 165 196t376 89q379 0 378 -342v-506
q-1 -57 17 -71t67 -15h62v-59q-176 -100 -318 -101q-92 0 -143 38t-59 130h-9q-108 -172 -286 -172z" />
    <glyph glyph-name="AEacute" unicode="&#x1fc;" horiz-adv-x="1996" 
d="M1530 1772v-29l-348 -277h-117l162 306h303zM874 1257h-18l-291 -550h309v550zM1290 610v-460q57 -61 162 -62h182l240 416h78l-76 -504h-1159v84l157 37v495h-356l-260 -489l217 -43v-84h-477v84l121 35l624 1120l-194 37v84h1360v-428h-78l-150 338h-391v-563h172
l70 243h80v-573h-80l-70 233h-172z" />
    <glyph glyph-name="aeacute" unicode="&#x1fd;" horiz-adv-x="1658" 
d="M539 168q84 0 125 96q-51 113 -52 244q-96 -20 -148 -76t-52 -123q0 -65 36 -103t91 -38zM967 672v-33l241 25q-6 133 -45 222t-93 89q-54 1 -78 -63t-25 -240zM1268 1587v-14l-310 -381h-84l109 395h285zM47 247q0 121 96 193t353 121l116 23v149q0 99 -40 159t-117 60
q-31 0 -47 -10l-7 -262q-72 -29 -156 -29q-85 0 -125 35t-40 96q0 102 163 194t356 91q193 0 278 -106q127 106 272 106q190 0 300 -117t136 -334l-618 -63v-37q31 -131 136 -208t219 -77t247 62l30 -45q-211 -274 -491 -275q-246 0 -389 193q-36 -36 -66 -57t-62 -45
t-100 -59q-68 -36 -178 -36t-188 79t-78 199z" />
    <glyph glyph-name="Oslashacute" unicode="&#x1fe;" horiz-adv-x="1656" 
d="M1225 1772v-29l-348 -277h-117l162 306h303zM526 735q0 -143 27 -272l524 551q-43 135 -116 215q-74 80 -168 80q-119 -1 -193 -143t-74 -431zM858 68q123 0 198 140t74 429q0 147 -28 281l-524 -549q45 -141 119 -222q75 -79 161 -79zM53 673q1 308 235 518t526 210
t501 -139l131 137h115l-181 -189q224 -197 224 -511t-238 -519t-530 -205t-498 142l-172 -180h-117l221 233q-217 195 -217 503z" />
    <glyph glyph-name="oslashacute" unicode="&#x1ff;" horiz-adv-x="1290" 
d="M991 1587v-14l-309 -381h-84l109 395h284zM821 397q0 115 -16 230l-297 -336q31 -111 77 -177t99 -65q137 0 137 348zM604 985q-139 0 -139 -356q0 -134 22 -246l299 338q-63 264 -182 264zM645 1065q201 0 359 -98l124 141h103l-166 -188q174 -152 174 -394t-169 -400
t-425 -157q-199 0 -344 86l-137 -153h-103l177 198q-186 152 -186 401t170 407q171 158 423 157z" />
    <glyph glyph-name="Scommaaccent" unicode="&#x218;" horiz-adv-x="1191" 
d="M500 -281q0 41 -33 69t-80 32v14q57 102 184 103q81 -1 135 -47t54 -121q0 -205 -451 -275l-16 57q207 72 207 168zM532 63q104 -1 164 59t60 143t-44 128t-134 80l-129 47q-336 125 -336 420q0 176 151 317q152 141 430 142q174 0 365 -80v-395h-68l-155 344
q-56 49 -152 49t-158 -55q-62 -56 -61 -142q0 -86 55 -136t178 -95l140 -49q288 -104 288 -348t-177 -380q-177 -138 -425 -139q-178 0 -407 82l-45 461h65l199 -379q92 -74 196 -74z" />
    <glyph glyph-name="scommaaccent" unicode="&#x219;" horiz-adv-x="993" 
d="M408 -281q0 41 -33 69t-80 32v14q57 102 184 103q80 -1 134 -47t55 -121q0 -205 -451 -275l-16 57q207 72 207 168zM408 -31q-147 0 -328 64l-14 344h67l143 -264q52 -57 132 -57t124 36q44 37 43 98q0 100 -118 144l-150 55q-229 84 -229 320q0 160 132 261t361 101
q145 0 308 -61v-320h-62l-129 242q-62 51 -128 51t-106 -35t-40 -90q0 -96 127 -145l147 -56q240 -88 240 -292q0 -174 -148 -285t-372 -111z" />
    <glyph glyph-name="uni021A" unicode="&#x21a;" horiz-adv-x="1345" 
d="M598 -281q0 41 -33 69t-80 32v14q57 102 185 103q80 -1 134 -47t54 -121q1 -205 -450 -275l-17 57q207 72 207 168zM1315 1360v-455h-64l-145 350h-223v-1134l200 -37v-84h-823v84l203 37v1134h-223l-146 -350h-63v455h1284z" />
    <glyph glyph-name="uni021B" unicode="&#x21b;" horiz-adv-x="823" 
d="M166 -506l-16 57q207 72 206 168q0 41 -32 69q-33 28 -80 32v14q57 102 184 103q80 -1 134 -47t54 -121q1 -205 -450 -275zM430 -31q-303 0 -299 314l6 624h-149v76l151 57l359 244h32v-250h301v-127h-301v-631q37 -135 199 -135q41 0 92 11l13 -68q-209 -115 -404 -115z
" />
    <glyph glyph-name="uni0237" unicode="&#x237;" horiz-adv-x="698" 
d="M158 29v788l-129 105v41l530 104v-856q0 -213 -27 -319t-131 -189q-104 -82 -237 -117t-213 -35l-12 43q49 42 63 52t50 46t47 60q47 100 53 155q6 56 6 122z" />
    <glyph glyph-name="circumflex" unicode="&#x2c6;" 
d="M219 1192h-92l195 395h178l192 -395h-92l-197 207z" />
    <glyph glyph-name="caron" unicode="&#x2c7;" 
d="M600 1587h92l-194 -395h-179l-192 395h92l197 -207z" />
    <glyph glyph-name="breve" unicode="&#x2d8;" 
d="M410 1192q-293 0 -293 395h69q42 -213 224 -213t229 213h66q0 -187 -81 -291t-214 -104z" />
    <glyph glyph-name="dotaccent" unicode="&#x2d9;" 
d="M602 1349q0 -79 -56 -133t-135 -55q-79 0 -133 54q-54 53 -54 133t54 136t133 56t135 -56t56 -135z" />
    <glyph glyph-name="ring" unicode="&#x2da;" 
d="M276 1374q0 -61 40 -102t96 -41t93 39q38 39 38 100q0 60 -40 102t-95 42t-94 -39q-38 -40 -38 -101zM180 1370q0 90 66 155t166 65t163 -63t63 -153t-65 -154t-165 -65q-100 1 -164 63t-64 152z" />
    <glyph glyph-name="ogonek" unicode="&#x2db;" 
d="M385 -184q0 -43 27 -71q26 -28 74 -28t106 58l45 -33q-59 -113 -123 -171t-162 -58q-100 0 -156 51t-56 130t64 154t238 179h43q-100 -139 -100 -211z" />
    <glyph glyph-name="tilde" unicode="&#x2dc;" 
d="M414 1223l-92 30q-124 37 -176 22t-97 -93l-49 20l12 35q64 180 150 234t239 2l91 -31q92 -32 158 -12t122 102l49 -21l-18 -47q-75 -194 -155 -244t-234 3z" />
    <glyph glyph-name="hungarumlaut" unicode="&#x2dd;" 
d="M756 1587v-18l-246 -377h-86l76 395h256zM414 1587v-18l-246 -377h-82l74 395h254z" />
    <glyph glyph-name="Wgrave" unicode="&#x1e80;" horiz-adv-x="2125" 
d="M764 1772h303l162 -306h-117l-348 277v29zM-2 1360h684v-84l-121 -35l256 -868l201 585l-96 283l-88 35v84h690v-84l-168 -35l258 -838l272 826l-180 47v84h422v-84l-129 -41l-436 -1260h-203l-295 846l-309 -846h-201l-436 1266l-121 33v86z" />
    <glyph glyph-name="wgrave" unicode="&#x1e81;" horiz-adv-x="1699" 
d="M657 1587h285l109 -395h-84l-310 381v14zM1323 1034h397v-78l-112 -20l-326 -963h-164l-235 523l-21 53h-2l-18 -51l-215 -525h-168l-365 963l-114 20v78h698v-78l-146 -20l154 -465l19 -68h2l22 68l217 563h121l254 -575l16 -47h2l146 520l-162 24v78z" />
    <glyph glyph-name="Wacute" unicode="&#x1e82;" horiz-adv-x="2125" 
d="M1559 1772v-29l-349 -277h-116l161 306h304zM-2 1360h684v-84l-121 -35l256 -868l201 585l-96 283l-88 35v84h690v-84l-168 -35l258 -838l272 826l-180 47v84h422v-84l-129 -41l-436 -1260h-203l-295 846l-309 -846h-201l-436 1266l-121 33v86z" />
    <glyph glyph-name="wacute" unicode="&#x1e83;" horiz-adv-x="1699" 
d="M1356 1587v-14l-309 -381h-84l108 395h285zM1323 1034h397v-78l-112 -20l-326 -963h-164l-235 523l-21 53h-2l-18 -51l-215 -525h-168l-365 963l-114 20v78h698v-78l-146 -20l154 -465l19 -68h2l22 68l217 563h121l254 -575l16 -47h2l146 520l-162 24v78z" />
    <glyph glyph-name="Wdieresis" unicode="&#x1e84;" horiz-adv-x="2125" 
d="M1423 1460q-71 0 -119 50t-49 120t49 121t120 51t121 -51q52 -51 52 -121t-52 -120t-122 -50zM898 1460q-71 0 -121 50t-50 120t51 121t121 51t121 -51t51 -121t-51 -120t-122 -50zM-2 1360h684v-84l-121 -35l256 -868l201 585l-96 283l-88 35v84h690v-84l-168 -35
l258 -838l272 826l-180 47v84h422v-84l-129 -41l-436 -1260h-203l-295 846l-309 -846h-201l-436 1266l-121 33v86z" />
    <glyph glyph-name="wdieresis" unicode="&#x1e85;" horiz-adv-x="1699" 
d="M1233 1180q-70 0 -119 50t-49 120t49 120t119 52q70 0 122 -52t52 -120q0 -70 -52 -120t-122 -50zM783 1180q-71 0 -121 50t-50 120t52 120t120 52q70 0 121 -52t51 -120q0 -70 -51 -120t-122 -50zM1323 1034h397v-78l-112 -20l-326 -963h-164l-235 523l-21 53h-2
l-18 -51l-215 -525h-168l-365 963l-114 20v78h698v-78l-146 -20l154 -465l19 -68h2l22 68l217 563h121l254 -575l16 -47h2l146 520l-162 24v78z" />
    <glyph glyph-name="Ygrave" unicode="&#x1ef2;" horiz-adv-x="1404" 
d="M444 1772h304l161 -306h-116l-349 277v29zM1085 0h-741v82l162 39v407l-381 711l-127 37v84h776v-84l-201 -37l289 -590l293 586l-211 41v84h463v-84l-133 -41l-350 -662v-452l161 -39v-82z" />
    <glyph glyph-name="ygrave" unicode="&#x1ef3;" horiz-adv-x="1099" 
d="M328 1587h284l109 -395h-84l-309 381v14zM788 1034h322v-78l-88 -20l-492 -1188q-92 -223 -256 -223q-78 0 -135 55t-57 139q0 85 56 139t136 54q129 0 175 -125h4l45 111l-430 1040l-78 18v78h631v-78l-125 -16l192 -573l211 565l-111 24v78z" />
    <glyph glyph-name="uni2009" unicode="&#x2009;" horiz-adv-x="102" 
 />
    <glyph glyph-name="endash" unicode="&#x2013;" horiz-adv-x="962" 
d="M72 526v103h819v-103h-819z" />
    <glyph glyph-name="emdash" unicode="&#x2014;" horiz-adv-x="1781" 
d="M72 526v103h1638v-103h-1638z" />
    <glyph glyph-name="quoteleft" unicode="&#x2018;" horiz-adv-x="604" 
d="M323 889q-83 0 -142 58q-58 58 -58 159q0 227 346 401l33 -59q-82 -43 -133 -102q-51 -58 -51 -104q-1 -67 34 -98q35 -30 74 -37t70 -13q6 -88 -42 -146t-131 -59z" />
    <glyph glyph-name="quoteright" unicode="&#x2019;" horiz-adv-x="604" 
d="M236 1050q52 60 51 117q0 57 -35 86q-35 28 -73 36q-39 7 -70 14q-6 88 42 146t131 58t141 -58t58 -159q0 -227 -346 -401l-33 59q82 42 134 102z" />
    <glyph glyph-name="quotesinglbase" unicode="&#x201a;" horiz-adv-x="604" 
d="M253 160q-34 30 -144 51q-6 88 42 146q48 59 131 59t141 -58t58 -159q0 -228 -346 -402l-33 60q82 43 134 102q51 59 51 115t-34 86z" />
    <glyph glyph-name="quotedblleft" unicode="&#x201c;" horiz-adv-x="1054" 
d="M819 1346q-51 -59 -51 -117t35 -86q35 -29 73 -36q39 -7 70 -13q6 -88 -42 -146t-131 -59q-83 0 -141 58t-59 159q1 227 347 401l32 -59q-82 -43 -133 -102zM323 889q-83 0 -142 58q-58 58 -58 159q0 227 346 401l33 -59q-82 -43 -133 -102q-51 -58 -51 -104
q-1 -67 34 -98q35 -30 74 -37t70 -13q6 -88 -42 -146t-131 -59z" />
    <glyph glyph-name="quotedblright" unicode="&#x201d;" horiz-adv-x="1054" 
d="M686 1050q51 60 51 118t-41 89q-29 24 -67 32q-39 7 -70 14q-6 88 42 146t131 58t141 -58t59 -159q0 -227 -346 -401l-33 59q82 42 133 102zM236 1050q52 60 51 117q0 57 -35 86q-35 28 -73 36q-39 7 -70 14q-6 88 42 146t131 58t141 -58t58 -159q0 -227 -346 -401
l-33 59q82 42 134 102z" />
    <glyph glyph-name="quotedblbase" unicode="&#x201e;" horiz-adv-x="1054" 
d="M686 -41q51 59 51 117t-34 86t-144 49q-6 88 42 146q48 59 131 59t141 -58t59 -159q0 -228 -346 -402l-33 60q82 43 133 102zM253 160q-34 30 -144 51q-6 88 42 146q48 59 131 59t141 -58t58 -159q0 -228 -346 -402l-33 60q82 43 134 102q51 59 51 115t-34 86z" />
    <glyph glyph-name="dagger" unicode="&#x2020;" horiz-adv-x="722" 
d="M74 1126v170l239 -36l-39 249h170l-36 -249l241 36v-170l-243 39l38 -487h-170l43 487z" />
    <glyph glyph-name="daggerdbl" unicode="&#x2021;" horiz-adv-x="722" 
d="M74 1126v170l237 -36l-37 249h170l-34 -249l239 36v-170l-241 39v-207l241 37v-170l-237 39l32 -241h-170l37 241l-237 -39v170l241 -37v207z" />
    <glyph glyph-name="bullet" unicode="&#x2022;" horiz-adv-x="675" 
d="M337 348q-93 0 -159 66t-66 158t66 160q66 67 159 67t160 -67t67 -160q0 -92 -68 -158q-66 -66 -159 -66z" />
    <glyph glyph-name="ellipsis" unicode="&#x2026;" horiz-adv-x="1611" 
d="M1342 -35q-77 0 -133 55q-56 56 -56 132t56 132t133 56q76 0 132 -55t56 -132t-55 -133q-56 -55 -133 -55zM999 153q0 -77 -55 -133t-132 -55q-77 0 -133 55q-56 56 -56 132t56 132t133 56t132 -55t55 -132zM469 153q0 -77 -55 -133t-132 -55q-77 0 -134 55
q-56 56 -56 132t56 132t134 56t132 -55q55 -55 55 -132z" />
    <glyph glyph-name="perthousand" unicode="&#x2030;" horiz-adv-x="2779" 
d="M2299 698q163 0 275 -100t113 -257t-113 -263t-284 -105t-276 105t-107 257q0 153 114 258q115 105 278 105zM2253 623q-72 -1 -72 -153t48 -286t116 -135q68 1 68 155q-1 154 -49 286t-111 133zM1408 698q164 0 276 -100t112 -257t-114 -263t-283 -105q-171 1 -277 105
t-106 257t114 258q115 105 278 105zM1362 623q-72 -1 -72 -153t48 -286t116 -135q68 1 68 155t-48 286t-112 133zM475 526q-170 0 -276 104q-107 104 -107 258q0 153 115 258t277 105t276 -100q112 -100 112 -257q0 -156 -114 -262t-283 -106zM438 1176q-72 0 -72 -152
t49 -288q48 -134 113 -134q70 0 70 154t-48 288q-48 132 -112 132zM406 -102l954 1390h102l-962 -1390h-94z" />
    <glyph glyph-name="uni2032" unicode="&#x2032;" horiz-adv-x="526" 
d="M475 1534v-21l-276 -512h-60l41 533h295z" />
    <glyph glyph-name="uni2033" unicode="&#x2033;" horiz-adv-x="962" 
d="M911 1534v-21l-276 -512h-60l41 533h295zM475 1534v-21l-276 -512h-60l41 533h295z" />
    <glyph glyph-name="guilsinglleft" unicode="&#x2039;" horiz-adv-x="641" 
d="M461 827l47 -39l-203 -329l203 -367l-47 -33l-369 359v55z" />
    <glyph glyph-name="guilsinglright" unicode="&#x203a;" horiz-adv-x="641" 
d="M180 59l-47 39l203 330l-203 367l47 32l369 -358v-55z" />
    <glyph glyph-name="fraction" unicode="&#x2044;" horiz-adv-x="399" 
d="M-317 -160l-68 45l1102 1592l67 -45z" />
    <glyph glyph-name="Euro" unicode="&#x20ac;" horiz-adv-x="1421" 
d="M944 1286q147 0 263 -66t116 -157q0 -143 -215 -166q-84 147 -151 215t-155 68t-148 -89q-58 -89 -68 -278h413l-14 -80h-401q0 -90 12 -160h371l-13 -81h-338q50 -152 150 -216t208 -63q108 0 178 34q71 34 153 101l45 -43q-115 -176 -237 -258t-306 -82
q-260 0 -414 141t-176 386h-162l13 81h145q0 94 14 160h-141l14 80h150q76 223 279 348q204 125 415 125z" />
    <glyph glyph-name="trademark" unicode="&#x2122;" horiz-adv-x="1761" 
d="M76 1360h608v-238h-39l-53 170h-103v-463l82 -16v-47h-378v47l77 16v463h-102l-53 -170h-39v238zM737 766v47l88 16v467l-82 17v47h381l95 -277l106 277h358v-47l-77 -17v-467l71 -16v-47h-387v47l76 16v416h-10l-191 -469h-75l-175 469h-10v-416l82 -16v-47h-250z" />
    <glyph glyph-name="onethird" unicode="&#x2153;" horiz-adv-x="1726" 
d="M340 -160l-68 45l1102 1592l68 -45zM471 1368v-711l123 -20v-66h-561v66l141 20v523h-151v53l413 135h35zM1328 35q42 0 74 30q32 31 32 99t-60 128t-205 60v56q248 45 248 165q0 41 -28 70q-29 29 -86 29q-109 0 -193 -109l-49 27q41 102 128 167t205 65t189 -52
q70 -51 70 -126q1 -75 -59 -127t-136 -66v-9q233 -25 234 -192q0 -119 -104 -195t-275 -75q-106 0 -186 46q-79 46 -78 115q0 41 32 70q33 29 86 29l93 -179q26 -26 68 -26z" />
    <glyph glyph-name="twothirds" unicode="&#x2154;" horiz-adv-x="1757" 
d="M371 -160l-68 45l1102 1592l68 -45zM1359 35q42 0 74 30q31 31 31 99t-60 128t-204 60v56q248 45 248 165q0 41 -29 70t-86 29q-109 0 -192 -109l-49 27q41 102 128 167q88 65 206 65t188 -52q70 -51 70 -126t-60 -127q-59 -52 -135 -66v-9q233 -25 233 -192
q0 -119 -103 -195t-276 -75q-106 0 -185 46t-79 115q0 41 33 70t86 29l92 -179q27 -26 69 -26zM659 784v-213h-624v66l94 96q18 18 48 50t44 45t58 61q98 107 98 195q0 52 -35 88q-36 36 -102 36t-156 -102l-51 35q135 252 344 252q113 1 183 -63t69 -160t-49 -155
q-48 -60 -152 -128l-160 -103h391z" />
    <glyph glyph-name="oneeighth" unicode="&#x215b;" horiz-adv-x="1787" 
d="M1294 668q0 -84 140 -140l49 -20q35 50 35 114t-35 105t-85 41t-77 -26t-27 -74zM1407 33q55 1 86 27t31 77q0 101 -154 164l-76 31q-30 -57 -30 -129t44 -121t99 -49zM340 -160l-68 45l1102 1592l68 -45zM471 1368v-711l123 -20v-66h-561v66l141 20v523h-151v53l413 135
h35zM1026 188q0 133 205 172q-164 82 -164 222q0 92 86 167q85 75 245 75t248 -54q88 -53 87 -127q0 -125 -185 -162q209 -86 209 -227q-1 -141 -109 -210t-262 -69q-154 -1 -258 53q-102 54 -102 160z" />
    <glyph glyph-name="threeeighths" unicode="&#x215c;" horiz-adv-x="1744" 
d="M1251 668q0 -84 140 -140l49 -20q35 50 35 114t-35 105t-85 41t-77 -26t-27 -74zM1364 33q55 1 86 27t31 77q0 101 -154 164l-76 31q-31 -57 -31 -129t45 -121q44 -49 99 -49zM297 -160l-68 45l1102 1592l68 -45zM316 606q42 0 74 30t32 98t-60 129q-60 60 -204 61v55
q248 45 248 166q0 41 -29 69t-86 29q-109 0 -193 -108l-49 26q41 102 128 167t205 65q118 1 189 -51q70 -52 70 -127t-59 -127t-136 -66v-8q233 -25 234 -193q0 -119 -103 -195t-276 -75q-106 0 -185 46t-79 116q0 41 33 69t86 29l92 -178q26 -27 68 -27zM983 188
q0 133 205 172q-164 82 -164 222q0 92 86 167t246 75t246 -54q88 -53 88 -127q0 -125 -185 -162q209 -86 209 -227t-108 -210t-264 -69q-154 -1 -256 53t-103 160z" />
    <glyph glyph-name="fiveeighths" unicode="&#x215d;" horiz-adv-x="1755" 
d="M1262 668q0 -84 139 -140l49 -20q35 50 35 114t-35 105t-85 41q-51 0 -77 -26t-26 -74zM1231 203q0 -72 44 -121t99 -49q55 1 86 27t31 77q0 101 -154 164l-75 31q-31 -57 -31 -129zM307 -160l-67 45l1101 1592l68 -45zM324 1065q335 0 335 -242q1 -122 -111 -199
t-274 -77q-102 0 -181 41t-79 110q0 43 36 69t91 26l84 -179q27 -16 74 -16t78 34t31 102t-48 107q-48 40 -130 40t-164 -21l-3 4l11 496h532v-211h-469l-2 -113q109 29 189 29zM993 188q0 133 205 172q-164 82 -164 222q0 92 86 167t246 75t246 -54q88 -53 88 -127
q0 -125 -184 -162q208 -86 208 -227t-108 -210t-264 -69q-154 -1 -256 53t-103 160z" />
    <glyph glyph-name="seveneighths" unicode="&#x215e;" horiz-adv-x="1542" 
d="M1049 668q0 -84 139 -140l49 -20q35 54 35 116t-35 103t-85 41t-76 -26t-27 -74zM1018 203q0 -72 44 -121t99 -49q55 1 86 27t31 77q0 101 -154 164l-75 31q-31 -57 -31 -129zM94 -160l-67 45l1101 1592l68 -45zM31 1124v236h635v-14q-145 -257 -387 -707l-33 -68h-172
l405 553h-448zM780 188q0 133 205 172q-164 82 -164 222q0 92 86 167q85 75 245 75t248 -54q88 -53 87 -127q0 -125 -184 -162q209 -86 209 -227t-110 -210q-108 -69 -262 -69q-154 -1 -258 53q-102 54 -102 160z" />
    <glyph glyph-name="minus" unicode="&#x2212;" horiz-adv-x="1163" 
d="M1067 465h-971v102h971v-102z" />
    <glyph glyph-name="approxequal" unicode="&#x2248;" horiz-adv-x="1163" 
d="M356 463q78 0 201 -47l82 -33q127 -51 178 -51q102 0 182 143l76 -47q-100 -197 -258 -197q-102 0 -215 50l-82 34q-115 47 -162 47q-116 1 -198 -149l-74 45q100 205 270 205zM356 764q78 0 201 -47l82 -33q127 -51 178 -51q102 0 182 143l76 -47q-100 -197 -258 -197
q-102 0 -215 50l-82 34q-115 47 -162 48q-116 0 -198 -150l-74 45q100 205 270 205z" />
    <glyph glyph-name="notequal" unicode="&#x2260;" horiz-adv-x="1163" 
d="M96 319v101h357l153 186h-510v101h594l197 237h106l-198 -237h272v-101h-356l-156 -186h512v-101h-596l-199 -237h-100l197 237h-273z" />
    <glyph glyph-name="lessequal" unicode="&#x2264;" horiz-adv-x="1204" 
d="M1067 987l-780 -319l780 -318v-121l-971 404v59l971 404v-109zM1067 0h-971v102h971v-102z" />
    <glyph glyph-name="greaterequal" unicode="&#x2265;" horiz-adv-x="1204" 
d="M96 338l781 319l-781 318v121l971 -404v-59l-971 -404v109zM1067 0h-971v102h971v-102z" />
    <glyph glyph-name="uni24C5" unicode="&#x24c5;" horiz-adv-x="1660" 
d="M160 693q0 -271 192 -465t461 -194q268 0 461 194q193 192 192 464q0 272 -192 464q-193 192 -461 192q-269 0 -461 -192t-192 -463zM88 689q0 304 212 514t513 210t512 -210t211 -512t-212 -512t-515 -210t-512 208t-209 512zM999 819q0 78 -52 137t-136 62v-635
l102 -27v-57h-464v57l104 27v604l-104 27v57h385q188 0 298 -57t110 -175t-116 -188q-115 -70 -272 -69v51q59 16 102 62t43 124z" />
    <glyph glyph-name="space_uni0326" 
d="M129 -506l-16 57q207 72 206 168q0 41 -32 69q-33 28 -80 32v14q57 102 184 103q80 -1 134 -47t55 -121q0 -205 -451 -275z" />
    <glyph glyph-name="caron.alt" 
d="M553 1495v-16l-252 -416h-65l47 432h270z" />
    <glyph glyph-name="space_uni0326.alt" 
d="M428 1399q0 -41 33 -69t80 -32v-14q-57 -102 -185 -102q-80 0 -134 46t-54 122q-1 204 450 274l17 -57q-207 -72 -207 -168z" />
    <glyph glyph-name="grave.uc" 
d="M139 1772h303l162 -306h-117l-348 277v29z" />
    <glyph glyph-name="dieresis.uc" horiz-adv-x="821" 
d="M672 1460q-70 0 -119 50t-49 120t49 121t119 51t122 -51t52 -121t-52 -120t-122 -50zM146 1460q-70 0 -120 50t-51 120t51 121t122 51t120 -51q51 -51 51 -121t-51 -120t-122 -50z" />
    <glyph glyph-name="macron.uc" 
d="M96 1536v164h627v-164h-627z" />
    <glyph glyph-name="acute.uc" 
d="M670 1772v-29l-348 -277h-117l162 306h303z" />
    <glyph glyph-name="circumflex.uc" 
d="M209 1466h-100l190 306h219l201 -306h-113l-200 148z" />
    <glyph glyph-name="caron.uc" 
d="M618 1772h101l-191 -306h-219l-200 306h112l201 -154z" />
    <glyph glyph-name="breve.uc" 
d="M416 1454q-137 0 -212 92t-77 226h94q70 -131 205 -132q82 0 128 35t79 97h88q-4 -134 -86 -226t-219 -92z" />
    <glyph glyph-name="dotaccent.uc" 
d="M600 1648q0 -80 -56 -134t-135 -54t-134 54q-54 54 -54 134t54 135q53 56 133 56t136 -56t56 -135z" />
    <glyph glyph-name="ring.uc" 
d="M276 1702q0 -60 40 -102t96 -42t93 40q38 38 38 100t-40 102q-40 41 -95 41q-56 0 -94 -39t-38 -100zM180 1698q0 90 66 154t166 65q100 -1 163 -63t63 -152t-65 -155t-165 -65t-164 64q-64 62 -64 152z" />
    <glyph glyph-name="tilde.uc" 
d="M424 1556l-94 25q-126 33 -182 21t-99 -86l-49 20l12 35q62 178 142 227t237 8l92 -24q94 -29 165 -13t124 97l49 -21l-18 -47q-77 -190 -149 -236t-230 -6z" />
    <glyph glyph-name="hungarumlaut.uc" 
d="M786 1772v-23l-239 -283h-109l84 306h264zM410 1772v-23l-238 -283h-109l84 306h263z" />
    <glyph glyph-name="cedilla.uc" horiz-adv-x="583" 
d="M129 -506l-16 57q207 70 206 166q0 72 -98 103l133 188h76l-65 -90q94 -8 154 -48t61 -112q0 -194 -451 -264z" />
    <glyph glyph-name="idotaccent" horiz-adv-x="706" 
d="M561 1349q0 -79 -56 -133t-135 -55q-79 0 -133 54q-55 53 -55 133t54 136t134 56q79 0 135 -56t56 -135zM27 0v80l131 26v711l-129 105v41l530 104v-961l129 -26v-80h-661z" />
    <glyph glyph-name="dollar.lin" horiz-adv-x="1259" 
d="M455 1110q0 -145 149 -203l68 408q-94 -9 -156 -65t-61 -140zM795 270q0 147 -183 207l-69 -414h4q113 -1 181 61t67 146zM1085 924h-67l-127 311q-57 59 -139 76l-72 -426l190 -54q307 -86 308 -352q0 -155 -100 -273t-248 -175q-146 -57 -304 -62l-37 -225h-79l36 227
q-139 10 -329 78l-45 469h71l189 -366q61 -55 133 -76l70 422l-76 22q-354 98 -355 418q0 184 152 322t432 147l33 199h80l-35 -201q125 -10 319 -78v-403z" />
    <glyph glyph-name="Euro.lin" horiz-adv-x="1413" 
d="M940 1407q150 0 260 -60t109 -153q1 -72 -63 -119t-167 -57q-70 158 -126 230t-132 71q-100 0 -158 -114t-69 -312h407l-14 -82h-393q0 -104 16 -193h348l-12 -81h-317q47 -160 143 -235t204 -75t179 30q70 30 145 91l46 -43q-121 -178 -237 -259t-298 -81
q-231 0 -396 161t-202 411h-170l12 81h150v44q0 78 12 149h-133l14 82h138q49 166 166 287q221 227 538 227z" />
    <glyph glyph-name="sterling.lin" horiz-adv-x="1574" 
d="M248 528v115h276l58 275q29 141 118 263q155 210 420 313q110 42 208 42t180 -63t83 -135q-1 -72 -69 -118q-68 -44 -189 -44q-82 246 -174 245q-88 0 -131 -231l-102 -547h336v-115h-367q-92 -256 -397 -424q115 -57 301 -163l207 -117q106 -58 142 -76t64 -16
q131 4 62 303q116 16 182 -15t66 -98q0 -125 -186 -247t-373 -121q-145 0 -249 57t-222 221l-146 201q-178 -70 -261 -70t-124 34t-41 95q0 60 46 100t139 40t278 -76q53 80 90 247l27 125h-252z" />
    <glyph glyph-name="yen.lin" horiz-adv-x="1376" 
d="M123 565v82h326l-302 592l-127 37v84h711v-84l-147 -37l231 -563h4l271 561l-177 39v84h443v-84l-135 -41l-316 -588h342v-82h-366v-192h366v-82h-366v-168l188 -41v-82h-768v82l188 39v170h-366v82h366v192h-366z" />
    <glyph glyph-name="florin.lin" horiz-adv-x="1206" 
d="M1060 1411q77 0 127 -41t50 -125t-62 -142t-153 -75q-53 254 -124 254t-97 -240l-39 -344h317l-18 -114h-311l-27 -234q-19 -184 -81 -334t-139 -240t-167 -150q-162 -111 -297 -109q-80 0 -136 50t-57 109q0 137 207 193q33 -103 73 -163t72 -60t51 36t32 150l79 752
h-243l20 114h236l6 47q12 119 66 228t128 187t161 135q87 58 168 87t158 29z" />
    <glyph glyph-name="zero.lin" horiz-adv-x="1433" 
d="M662 1317q-164 0 -164 -494q0 -256 76 -510t198 -254q80 0 121 122t41 323q0 319 -79 566q-78 247 -193 247zM715 1407q281 0 459 -197q178 -196 178 -522t-193 -522t-434 -197q-295 0 -469 201t-174 526q0 164 56 302q103 254 350 361q112 48 227 48z" />
    <glyph glyph-name="one.lin" horiz-adv-x="919" 
d="M696 1378v-1259l213 -35v-84h-856v84l238 35v975l-256 -17l-15 84l633 217h43z" />
    <glyph glyph-name="two.lin" horiz-adv-x="1175" 
d="M1104 319v-319h-1032v102l184 197q219 233 281 319q111 156 111 268t-62 179q-61 66 -154 65q-160 0 -285 -172l-65 41q92 211 218 311t309 101q183 0 295 -103t112 -266q0 -124 -65 -232t-141 -176t-191 -158q-114 -89 -134 -103l-67 -54h686z" />
    <glyph glyph-name="three.lin" horiz-adv-x="1107" 
d="M512 59q76 1 123 55t47 134q0 141 -109 242t-305 133v88q197 47 280 122t83 161t-50 136t-130 50q-170 0 -287 -156l-66 37q76 168 194 259t296 91t276 -85t99 -218q0 -223 -285 -330v-10q152 -23 251 -117t99 -227q0 -203 -165 -328t-412 -125q-172 0 -284 71t-112 181
q-1 68 53 111t134 45l151 -281q43 -39 119 -39z" />
    <glyph glyph-name="four.lin" horiz-adv-x="1243" 
d="M631 580v442l-393 -442h393zM989 580h213v-258h-213v-203l160 -35v-84h-692v84l174 33v205h-611v149l809 918l160 -27v-782z" />
    <glyph glyph-name="five.lin" horiz-adv-x="1093" 
d="M942 1026h-702l-7 -225q184 49 316 49q215 0 349 -112t134 -287q0 -233 -179 -363t-433 -129q-139 -1 -255 63t-116 179q1 73 63 113t144 36l152 -293q29 -14 67 -14q82 0 146 68q63 69 63 185t-85 182t-209 65q-124 0 -257 -51l-8 4l29 864h788v-334z" />
    <glyph glyph-name="six.lin" horiz-adv-x="1292" 
d="M584 782q-45 0 -92 -30q-18 -90 -19 -189q0 -225 59 -370t146 -146q70 0 104 68q34 69 33 235q0 166 -67 299q-68 133 -164 133zM788 911q190 0 307 -119q116 -120 115 -294q0 -139 -57 -249t-146 -169q-183 -121 -358 -121q-258 0 -418 159t-159 402q0 168 61 312
t159 246q98 101 232 179q241 142 549 191l21 -80q-240 -111 -382 -242t-200 -299q135 84 276 84z" />
    <glyph glyph-name="seven.lin" horiz-adv-x="1085" 
d="M80 991v369h1014v-17q-569 -1065 -670 -1277l-31 -66h-223l645 991h-735z" />
    <glyph glyph-name="eight.lin" horiz-adv-x="1275" 
d="M838 1055q0 121 -64 195t-150 75q-86 0 -126 -47t-41 -121q0 -74 52 -128t189 -136l74 -45q66 86 66 207zM666 45q78 0 128 53q50 52 50 138t-55 150t-207 153l-111 63q-65 -84 -65 -224t77 -237q78 -96 183 -96zM61 311q0 172 170 262q75 41 170 70q-152 90 -214 170
t-62 209t131 253q63 60 174 99t246 39q227 0 359 -88t132 -217t-117 -203q-91 -57 -214 -94q198 -117 288 -207t90 -222t-97 -234q-181 -190 -500 -189q-319 0 -472 147q-84 82 -84 205z" />
    <glyph glyph-name="nine.lin" horiz-adv-x="1277" 
d="M690 584q39 0 70 20q18 90 18 189q0 229 -63 382t-152 152q-63 0 -95 -72t-32 -182q0 -189 68 -339t186 -150zM516 463q-123 0 -219 42t-166 145q-70 104 -70 244q-1 140 51 242t136 159q171 118 364 118q252 0 418 -169t166 -447q0 -154 -56 -285t-152 -225
q-286 -282 -810 -340l-20 80q469 162 583 508q-102 -72 -225 -72z" />
    <glyph glyph-name="percent.lin" horiz-adv-x="1789" 
d="M1320 684q164 0 276 -100t112 -257t-114 -263t-283 -105q-170 0 -277 104q-106 104 -106 257t114 259q115 105 278 105zM1274 608q-72 0 -72 -152t48 -287q48 -134 116 -134q68 1 68 155t-49 286q-48 132 -111 132zM465 666q-170 0 -277 104q-106 104 -106 257t115 258
t277 105t276 -100q112 -100 112 -257t-114 -262t-283 -105zM428 1315q-72 -1 -72 -153t48 -286t114 -135q70 1 70 155t-48 286t-112 133zM297 -102l1053 1509h102l-1061 -1509h-94z" />
    <glyph glyph-name="perthousand.lin" horiz-adv-x="2682" 
d="M2213 684q163 0 275 -100t113 -257t-113 -263t-284 -105q-170 0 -277 104q-106 104 -106 257t114 259q115 105 278 105zM2167 608q-72 0 -72 -152t48 -287q48 -134 116 -134q68 1 68 155t-49 286q-48 132 -111 132zM1320 684q164 0 276 -100t112 -257t-114 -263
t-283 -105q-170 0 -277 104q-106 104 -106 257t114 259q115 105 278 105zM1274 608q-72 0 -72 -152t48 -287q48 -134 116 -134q68 1 68 155t-49 286q-48 132 -111 132zM465 666q-170 0 -277 104q-106 104 -106 257t115 258t277 105t276 -100q112 -100 112 -257t-114 -262
t-283 -105zM428 1315q-72 -1 -72 -153t48 -286t114 -135q70 1 70 155t-48 286t-112 133zM297 -102l1053 1509h102l-1061 -1509h-94z" />
    <glyph glyph-name="plus.lin" horiz-adv-x="1163" 
d="M1067 588h-430v-430h-111v430h-430v102h430v430h111v-430h430v-102z" />
    <glyph glyph-name="minus.lin" horiz-adv-x="1163" 
d="M1067 588h-971v102h971v-102z" />
    <glyph glyph-name="multiply.lin" horiz-adv-x="1163" 
d="M961 172l-381 385l-381 -385l-78 76l385 385l-377 375l84 84l375 -377l370 381l74 -78l-370 -377l380 -383z" />
    <glyph glyph-name="divide.lin" horiz-adv-x="1163" 
d="M582 180q-61 0 -106 45q-44 45 -44 107t44 106q44 45 106 45t107 -45q46 -45 46 -106q0 -60 -46 -106t-107 -46zM582 793q-61 0 -106 45q-44 45 -44 106q0 60 44 106t106 46t107 -45q46 -45 46 -107t-46 -106q-46 -45 -107 -45zM1067 588h-971v102h971v-102z" />
    <glyph glyph-name="equal.lin" horiz-adv-x="1163" 
d="M1067 442h-971v101h971v-101zM1067 729h-971v100h971v-100z" />
    <glyph glyph-name="less.lin" horiz-adv-x="1204" 
d="M1087 1014l-806 -375l806 -375v-117l-970 459v68l970 456v-116z" />
    <glyph glyph-name="greater.lin" horiz-adv-x="1204" 
d="M117 264l807 375l-807 375v116l970 -458v-68l-970 -457v117z" />
    <glyph glyph-name="plusminus.lin" horiz-adv-x="1163" 
d="M96 0v102h971v-102h-971zM1067 782h-430v-430h-111v430h-430v103h430v430h111v-430h430v-103z" />
    <glyph glyph-name="notequal.lin" horiz-adv-x="1163" 
d="M96 442v101h355l155 186h-510v100h592l199 238h106l-198 -238h272v-100h-356l-156 -186h512v-101h-596l-199 -237h-100l197 237h-273z" />
    <glyph glyph-name="approxequal.lin" horiz-adv-x="1163" 
d="M356 586q78 0 201 -47l82 -33q127 -51 178 -51q102 0 182 143l76 -47q-100 -197 -258 -197q-102 0 -215 49l-82 35q-115 47 -162 47q-116 1 -198 -149l-74 45q100 205 270 205zM356 887q78 0 201 -47l82 -33q127 -51 178 -51q102 0 182 143l76 -47q-100 -197 -258 -197
q-102 0 -215 50l-82 34q-115 47 -162 47q-116 1 -198 -149l-74 45q100 205 270 205z" />
    <glyph glyph-name="lessequal.lin" horiz-adv-x="1204" 
d="M1067 1110l-780 -319l780 -318v-121l-971 404v59l971 404v-109zM1067 0h-971v102h971v-102z" />
    <glyph glyph-name="greaterequal.lin" horiz-adv-x="1204" 
d="M96 461l781 319l-781 318v121l971 -404v-59l-971 -404v109zM1067 0h-971v102h971v-102z" />
    <glyph glyph-name="numbersign.lin" horiz-adv-x="1173" 
d="M457 922l-68 -379h322l67 379h-321zM137 922v94h248l57 323h88l-57 -323h322l57 323h88l-57 -323h235v-94h-252l-67 -379h229v-94h-246l-57 -326h-88l57 326h-321l-58 -326h-88l58 326h-238v94h254l68 379h-232z" />
    <glyph glyph-name="ordfeminine.lin" horiz-adv-x="937" 
d="M342 820q0 -48 26 -78t64 -29q39 0 68 18v232q-84 -27 -121 -61t-37 -82zM281 553q-90 0 -155 57q-65 58 -65 152q-1 94 63 148t206 85l170 37v154q-6 55 -35 94t-84 39q-25 0 -45 -8l-21 -199q-45 -33 -110 -33q-117 1 -117 93t127 164t287 71q160 0 231 -66
q72 -66 72 -208v-379q0 -44 13 -58t52 -14h48v-59q-131 -70 -250 -70q-147 0 -154 129h-10q-90 -129 -223 -129z" />
    <glyph glyph-name="ordmasculine.lin" horiz-adv-x="1005" 
d="M496 537q-203 -1 -324 123t-121 311t130 311t324 125q193 0 321 -120q128 -121 128 -311t-128 -314t-330 -125zM475 1333q-90 0 -90 -264q0 -176 42 -317t108 -142q88 0 88 273q0 174 -41 312t-107 138z" />
    <glyph glyph-name="zero.num" horiz-adv-x="878" 
d="M414 1331q-72 0 -72 -256q0 -170 32 -316t89 -147q72 0 72 254q0 176 -33 320t-88 145zM450 1391q158 0 273 -113t115 -305t-124 -305t-268 -113q-188 0 -296 118t-109 305q0 187 125 300q126 113 284 113z" />
    <glyph glyph-name="one.num" horiz-adv-x="610" 
d="M471 1368v-711l123 -20v-66h-561v66l141 20v523h-151v53l413 135h35z" />
    <glyph glyph-name="two.num" horiz-adv-x="688" 
d="M659 784v-213h-624v66l94 96q18 18 48 50t44 45t58 61q98 107 98 195q0 52 -35 88q-36 36 -102 36t-156 -102l-51 35q135 252 344 252q113 1 183 -63t69 -160t-49 -155q-48 -60 -152 -128l-160 -103h391z" />
    <glyph glyph-name="three.num" horiz-adv-x="714" 
d="M316 606q42 0 74 30t32 98t-60 129q-60 60 -204 61v55q248 45 248 166q0 41 -29 69t-86 29q-109 0 -193 -108l-49 26q41 102 128 167t205 65q118 1 189 -51q70 -52 70 -127t-59 -127t-136 -66v-8q233 -25 234 -193q0 -119 -103 -195t-276 -75q-106 0 -185 46t-79 116
q0 41 33 69t86 29l92 -178q26 -27 68 -27z" />
    <glyph glyph-name="four.num" horiz-adv-x="770" 
d="M387 905v248l-235 -248h235zM633 905h108v-155h-108v-103l90 -20v-56h-438v56l102 18v105h-369v104l488 526l127 -18v-457z" />
    <glyph glyph-name="five.num" horiz-adv-x="686" 
d="M324 1065q335 0 335 -242q1 -122 -111 -199t-274 -77q-102 0 -181 41t-79 110q0 43 36 69t91 26l84 -179q27 -16 74 -16t78 34t31 102t-48 107q-48 40 -130 40t-164 -21l-3 4l11 496h532v-211h-469l-2 -113q109 29 189 29z" />
    <glyph glyph-name="six.num" horiz-adv-x="790" 
d="M506 770q0 124 -40 192t-89 68t-68 -24q-4 -20 -4 -60q0 -141 41 -238t88 -98q72 0 72 160zM510 1120q108 0 180 -72q74 -72 74 -168q0 -241 -247 -310q-52 -15 -93 -15q-180 0 -286 101q-105 101 -105 255t97 269q182 215 548 233l6 -51q-299 -104 -360 -297
q78 55 186 55z" />
    <glyph glyph-name="seven.num" horiz-adv-x="649" 
d="M31 1124v236h635v-14q-145 -257 -387 -707l-33 -68h-172l405 553h-448z" />
    <glyph glyph-name="eight.num" horiz-adv-x="774" 
d="M281 1239q0 -84 139 -139l49 -21q35 51 35 115t-35 104q-35 41 -85 41q-103 0 -103 -100zM250 774q0 -72 44 -121t99 -49t86 27t31 78q0 100 -154 163l-75 31q-31 -57 -31 -129zM12 760q0 133 205 172q-164 82 -164 221q0 92 86 167q85 75 245 75q160 1 248 -53t87 -128
q0 -125 -184 -161q209 -85 209 -227t-110 -211q-108 -69 -262 -69t-258 54q-102 54 -102 160z" />
    <glyph glyph-name="nine.num" horiz-adv-x="788" 
d="M424 920q35 0 51 16q12 56 12 150t-42 175t-91 80q-76 0 -75 -161q0 -120 43 -190t102 -70zM383 1395q157 1 265 -103t108 -252q0 -233 -184 -362t-480 -141l-6 51q289 63 371 289q-73 -47 -177 -47t-179 77q-75 78 -75 198t101 205q100 85 256 85z" />
    <glyph glyph-name="zero.den" horiz-adv-x="878" 
d="M414 760q-72 0 -72 -256q0 -170 32 -316t89 -147q72 0 72 254q0 177 -33 321t-88 144zM41 406q0 188 125 300q126 112 284 113q158 -1 273 -113t115 -304t-124 -306q-124 -113 -268 -112q-188 0 -296 118q-108 116 -109 304z" />
    <glyph glyph-name="one.den" horiz-adv-x="610" 
d="M471 797v-711l123 -20v-66h-561v66l141 20v522h-151v54l413 135h35z" />
    <glyph glyph-name="two.den" horiz-adv-x="688" 
d="M659 213v-213h-624v66l94 96q18 18 48 50t44 45t56 59q100 108 100 194q0 55 -35 91q-36 36 -102 36t-156 -102l-51 34q135 252 344 252q113 0 183 -63q70 -62 69 -158q0 -96 -48 -157q-49 -60 -153 -128l-160 -102h391z" />
    <glyph glyph-name="three.den" horiz-adv-x="714" 
d="M316 35q42 0 74 30q32 31 32 99t-60 128t-204 60v56q248 45 248 165q0 41 -29 70t-86 29q-109 0 -193 -109l-49 27q41 102 128 167t205 65t189 -52q70 -51 70 -126t-59 -127t-136 -66v-9q233 -25 234 -192q0 -119 -103 -195t-276 -75q-106 0 -185 46t-79 115q0 41 33 70
t86 29l92 -179q26 -26 68 -26z" />
    <glyph glyph-name="four.den" horiz-adv-x="770" 
d="M387 334v248l-235 -248h235zM633 334h108v-156h-108v-102l90 -21v-55h-438v55l102 19v104h-369v105l488 526l127 -18v-457z" />
    <glyph glyph-name="five.den" horiz-adv-x="686" 
d="M324 494q335 0 335 -243q1 -122 -111 -199t-274 -77q-102 0 -181 41t-79 111q0 43 36 69t91 25l84 -178q27 -16 74 -16q47 -1 78 33t31 102t-48 108t-130 39q-82 0 -164 -20l-3 4l11 495h532v-210h-469l-2 -113q109 29 189 29z" />
    <glyph glyph-name="six.den" horiz-adv-x="790" 
d="M367 459q-39 0 -58 -25q-4 -20 -4 -59q0 -141 41 -239t88 -97q72 0 72 160q0 123 -40 191t-99 69zM510 549q108 0 180 -72q74 -72 74 -168q0 -240 -247 -310q-52 -15 -93 -15q-180 0 -286 101q-105 101 -105 255t97 268q181 214 548 234l6 -51q-299 -104 -360 -297
q78 55 186 55z" />
    <glyph glyph-name="seven.den" horiz-adv-x="649" 
d="M31 553v235h635v-14q-238 -422 -387 -708l-33 -66h-172l407 553h-450z" />
    <glyph glyph-name="eight.den" horiz-adv-x="774" 
d="M281 668q0 -84 139 -140l49 -20q35 54 35 116t-35 103t-85 41t-76 -26t-27 -74zM250 203q0 -72 44 -121t99 -49q55 1 86 27t31 77q0 101 -154 164l-75 31q-31 -57 -31 -129zM12 188q0 133 205 172q-164 82 -164 222q0 92 86 167q85 75 245 75t248 -54q88 -53 87 -127
q0 -125 -184 -162q209 -86 209 -227t-110 -210q-108 -69 -262 -69q-154 -1 -258 53q-102 54 -102 160z" />
    <glyph glyph-name="nine.den" horiz-adv-x="788" 
d="M424 348q35 0 51 17q12 55 12 116q0 127 -42 208t-91 81q-76 0 -75 -162q0 -120 43 -190t102 -70zM280 258q-104 0 -179 78t-75 198t101 204q100 85 256 85q157 0 265 -103t108 -251q0 -233 -184 -363t-480 -141l-6 51q289 63 371 289q-73 -47 -177 -47z" />
    <glyph glyph-name="zero.sub" horiz-adv-x="878" 
d="M414 657q-72 0 -72 -256q0 -170 32 -316t89 -146q72 0 72 254q0 176 -33 320t-88 144zM450 717q158 0 273 -113t115 -305t-124 -305t-268 -113q-188 0 -296 118t-109 305q0 187 125 300q126 113 284 113z" />
    <glyph glyph-name="one.sub" horiz-adv-x="610" 
d="M471 694v-710l123 -21v-65h-561v65l141 21v522h-151v53l413 135h35z" />
    <glyph glyph-name="two.sub" horiz-adv-x="688" 
d="M659 111v-213h-624v65l94 96q18 19 48 51t59 59t63 69q35 42 41 54q38 66 37 118q0 53 -35 89q-36 36 -102 36t-156 -103l-51 35q135 252 344 252q113 1 183 -63t69 -160t-49 -155q-48 -60 -152 -128l-160 -102h391z" />
    <glyph glyph-name="three.sub" horiz-adv-x="714" 
d="M316 -68q42 0 74 30t32 98t-60 129q-60 60 -204 61v55q248 45 248 166q0 41 -29 70t-86 28q-109 0 -193 -108l-49 26q41 102 128 167t205 65t189 -51q70 -51 70 -126t-59 -127t-136 -67v-8q233 -25 234 -193q0 -119 -103 -195t-276 -75q-106 0 -185 46t-79 116
q0 41 33 70t86 28l92 -178q26 -27 68 -27z" />
    <glyph glyph-name="four.sub" horiz-adv-x="770" 
d="M387 231v248l-235 -248h235zM633 231h108v-155h-108v-103l90 -20v-55h-438v55l102 18v105h-369v104l488 527l127 -19v-457z" />
    <glyph glyph-name="five.sub" horiz-adv-x="686" 
d="M324 391q335 0 335 -242q1 -122 -111 -199t-274 -77q-102 0 -181 41t-79 111q0 43 36 69t91 25l84 -178q27 -17 74 -17t78 34t31 102t-48 107q-48 40 -130 40t-164 -21l-3 4l11 496h532v-211h-469l-2 -113q109 29 189 29z" />
    <glyph glyph-name="six.sub" horiz-adv-x="790" 
d="M506 96q0 124 -40 192t-89 68t-68 -24q-4 -20 -4 -60q0 -141 41 -238t88 -97q72 0 72 159zM510 446q108 0 180 -72q74 -72 74 -167q0 -240 -247 -310q-52 -15 -93 -16q-180 -1 -286 101t-105 256q0 154 97 268q182 215 548 233l6 -51q-299 -104 -360 -297q78 55 186 55z
" />
    <glyph glyph-name="seven.sub" horiz-adv-x="649" 
d="M31 451v235h635v-14q-231 -409 -387 -709l-33 -65h-172l407 553h-450z" />
    <glyph glyph-name="eight.sub" horiz-adv-x="774" 
d="M281 565q0 -84 139 -139l49 -20q35 53 35 115q0 61 -35 103t-85 42t-76 -27t-27 -74zM250 100q0 -72 44 -120q44 -50 99 -50t86 27t31 78q0 101 -154 164l-75 30q-31 -57 -31 -129zM12 86q0 133 205 172q-164 82 -164 221q0 92 86 167q85 75 245 75t248 -53t87 -127
q0 -125 -184 -162q209 -85 209 -227t-110 -210q-108 -68 -262 -69t-258 53q-102 54 -102 160z" />
    <glyph glyph-name="nine.sub" horiz-adv-x="788" 
d="M424 246q35 0 51 16q12 56 12 150t-42 175t-91 81q-76 0 -75 -162q0 -120 43 -190t102 -70zM280 156q-104 0 -179 78t-75 197q0 120 101 205q100 85 256 85q157 1 265 -103t108 -251q0 -233 -184 -363t-480 -141l-6 51q289 63 371 289q-73 -47 -177 -47z" />
    <glyph glyph-name="plus.sub" horiz-adv-x="655" 
d="M614 227h-243v-235h-88v235h-242v84h242v238h88v-238h243v-84z" />
    <glyph glyph-name="minus.sub" horiz-adv-x="655" 
d="M614 227h-573v84h573v-84z" />
    <glyph glyph-name="zero.sup" horiz-adv-x="878" 
d="M414 1505q-72 0 -72 -256q0 -170 32 -316t89 -147q72 0 72 254q0 176 -33 320t-88 145zM450 1565q158 0 273 -113t115 -305t-124 -305t-268 -113q-188 0 -296 118t-109 305q0 187 125 300q126 113 284 113z" />
    <glyph glyph-name="one.sup" horiz-adv-x="610" 
d="M471 1542v-711l123 -20v-66h-561v66l141 20v523h-151v53l413 135h35z" />
    <glyph glyph-name="two.sup" horiz-adv-x="688" 
d="M659 958v-213h-624v66l94 96q18 18 48 50t44 45t58 61q98 107 98 195q0 52 -35 88q-36 36 -102 36t-156 -102l-51 35q135 252 344 252q113 1 183 -63t69 -160t-49 -155q-48 -60 -152 -128l-160 -103h391z" />
    <glyph glyph-name="three.sup" horiz-adv-x="714" 
d="M316 780q42 0 74 30t32 98t-60 129q-60 60 -204 61v55q248 45 248 166q0 41 -29 70t-86 28q-109 0 -193 -108l-49 26q41 102 128 167t205 65t189 -51q70 -50 70 -126t-59 -128t-136 -66v-8q233 -25 234 -193q0 -119 -103 -195t-276 -75q-106 0 -185 46t-79 116
q0 41 33 69t86 29l92 -178q26 -27 68 -27z" />
    <glyph glyph-name="four.sup" horiz-adv-x="770" 
d="M387 1079v248l-235 -248h235zM633 1079h108v-155h-108v-103l90 -20v-56h-438v56l102 18v105h-369v104l488 526l127 -18v-457z" />
    <glyph glyph-name="five.sup" horiz-adv-x="686" 
d="M324 1239q335 0 335 -242q1 -122 -111 -199t-274 -77q-102 0 -181 41t-79 110q0 43 36 69t91 26l84 -179q27 -16 74 -16t78 34t31 102t-48 107q-48 40 -130 40t-164 -21l-3 4l11 496h532v-211h-469l-2 -113q109 29 189 29z" />
    <glyph glyph-name="six.sup" horiz-adv-x="790" 
d="M506 944q0 124 -40 192t-89 68t-68 -24q-4 -20 -4 -60q0 -141 41 -238t88 -98q72 0 72 160zM510 1294q108 0 180 -72q74 -72 74 -168t-39 -162t-97 -100q-113 -64 -204 -63q-180 0 -286 101q-105 101 -105 255t97 269q182 215 548 233l6 -51q-299 -104 -360 -297
q78 55 186 55z" />
    <glyph glyph-name="seven.sup" horiz-adv-x="649" 
d="M31 1298v236h635v-14q-231 -409 -387 -709l-33 -66h-172l407 553h-450z" />
    <glyph glyph-name="eight.sup" horiz-adv-x="774" 
d="M281 1413q0 -84 139 -139l49 -21q35 53 35 115t-35 104t-85 42q-103 -2 -103 -101zM250 948q0 -72 44 -120q44 -50 99 -50t86 27t31 78q0 101 -154 164l-75 30q-31 -57 -31 -129zM12 934q0 133 205 172q-164 82 -164 221q0 92 86 167q85 75 245 75t248 -53t87 -127
q0 -125 -184 -162q209 -85 209 -227t-110 -210q-108 -68 -262 -69t-258 53q-102 54 -102 160z" />
    <glyph glyph-name="nine.sup" horiz-adv-x="788" 
d="M424 1094q35 0 51 16q12 56 12 150t-42 175t-91 81q-76 0 -75 -162q0 -120 43 -190t102 -70zM280 1004q-104 0 -179 78t-75 197q0 120 101 205q100 85 256 85q157 1 265 -103t108 -252q0 -233 -184 -362t-480 -141l-6 51q289 63 371 289q-73 -47 -177 -47z" />
    <glyph glyph-name="plus.sup" horiz-adv-x="655" 
d="M614 1075h-243v-235h-88v235h-242v84h242v238h88v-238h243v-84z" />
    <glyph glyph-name="minus.sup" horiz-adv-x="655" 
d="M614 1075h-573v84h573v-84z" />
    <glyph glyph-name="bullet.alt" horiz-adv-x="870" 
d="M473 1501q55 0 92 -32t37 -87t-56 -119q-19 -24 -45 -51t-28 -28h-35q-2 4 -32 49q-66 101 -66 149q0 47 39 83t94 36zM78 1156q0 60 40 96t85 36q81 0 134 -56q19 -20 52 -62t49 -58h33q23 20 75 72t82 57q29 6 56 6q61 0 98 -39q37 -38 37 -100t-44 -104t-95 -43
q-51 0 -80 16q-28 16 -64 48t-65 48h-14q-37 -57 -37 -100t36 -70t160 -82t123 -159q0 -60 -45 -104t-127 -36q-14 -63 -94 -63t-141 84l-26 34q-55 74 -91 87q-18 6 -41 6q-86 0 -86 -97h-25q-31 79 9 143t129 64q47 0 85 -22t58 -46q54 -68 100 -69q56 0 56 51t-83 105
q-32 20 -58 58q-25 38 -25 86t53 142l-14 2q-119 -61 -172 -61t-88 35t-35 95z" />
    <glyph glyph-name="f.short" horiz-adv-x="802" 
d="M25 0v80l127 26v801h-150v80l150 51l26 95q52 186 200 300t316 113q121 0 198 -58t77 -143t-86 -128t-168 -15l-70 264q-106 0 -100 -223l4 -209h268v-127h-266v-803l166 -24v-80h-692z" />
    <glyph glyph-name="f_f.short" horiz-adv-x="1503" 
d="M551 1100v-66h309q12 92 47 172q-55 121 -102 167t-107 46q-147 0 -147 -319zM743 0v82l109 24v801h-301v-803l102 -24v-80h-628v80l127 26v801h-150v80l152 51q46 152 156 262q205 207 474 207q156 0 287 -80q150 119 324 119q121 0 197 -58t77 -143q0 -85 -86 -128
t-168 -15l-69 264q-106 0 -101 -223l4 -209h271v-127h-269v-803l166 -24v-80h-674z" />
    <glyph glyph-name="i.ger" horiz-adv-x="706" 
d="M370 1141q-79 0 -133 54q-55 54 -55 133t54 135q54 57 134 57q79 0 135 -56t56 -136q0 -79 -56 -133t-135 -54zM27 0v80l131 26v711l-129 105v41l530 104v-961l129 -26v-80h-661z" />
    <glyph glyph-name="j.ger" horiz-adv-x="698" 
d="M368 1141q-79 0 -134 54q-54 54 -54 133t54 135q54 57 134 57t135 -56q56 -56 56 -136q0 -79 -56 -133t-135 -54zM158 29v788l-129 105v41l530 104v-856q0 -213 -27 -319t-131 -189q-104 -82 -237 -117t-213 -35l-12 43q49 42 63 52t50 46t47 60q47 100 53 155
q6 56 6 122z" />
    <glyph glyph-name="adieresis.ger" horiz-adv-x="1138" 
d="M532 168q48 0 78 22v320h-2q-197 -57 -196 -199q0 -67 36 -105t84 -38zM793 1159q-70 0 -119 50t-49 120t49 121t119 51q69 0 121 -51t52 -121t-51 -120q-52 -50 -122 -50zM343 1159q-71 0 -121 50t-50 120t51 121t121 51t121 -51t51 -121t-51 -120t-122 -50zM330 -31
q-127 0 -205 79t-78 197q0 117 85 185t286 115l192 45v180q-20 182 -151 182q-33 0 -53 -10l-5 -262q-61 -29 -168 -29q-154 0 -153 131q0 106 165 196t376 89q379 0 378 -342v-506q-1 -57 17 -71t67 -15h62v-59q-176 -100 -318 -101q-92 0 -143 38t-59 130h-9
q-108 -172 -286 -172z" />
    <glyph glyph-name="odieresis.ger" horiz-adv-x="1290" 
d="M868 1159q-70 0 -118 50t-50 120q0 70 50 121t118 51q70 0 122 -51t52 -121t-52 -120t-122 -50zM419 1159q-71 0 -121 50t-50 120t51 121t121 51t121 -51t51 -121t-51 -120t-122 -50zM1239 524q0 -240 -169 -398t-435 -157q-266 0 -425 157q-159 156 -159 390t171 392
t426 157q255 0 423 -151q168 -150 168 -390zM606 985q-137 0 -137 -338q0 -244 61 -421t152 -177q135 0 135 354q0 236 -58 409q-59 173 -153 173z" />
    <glyph glyph-name="udieresis.ger" horiz-adv-x="1331" 
d="M889 1159q-70 0 -119 50t-49 120t49 121t119 51t122 -51t52 -121t-52 -120t-122 -50zM439 1159q-71 0 -121 50t-50 120t51 121t121 51t121 -51t51 -121t-51 -120t-122 -50zM532 358q0 -172 132 -172q70 0 120 25v643l-120 66v51l520 92v-922l127 -24v-68l-496 -72
l-24 158q-178 -166 -353 -166q-116 0 -211 64q-94 64 -94 246v563l-123 67v49l522 97v-697z" />
    <glyph glyph-name="questiondown.uc" horiz-adv-x="950" 
d="M685 1413q77 0 133 -55t56 -131t-56 -132q-56 -57 -133 -57t-132 56t-55 132q0 77 55 132t132 55zM131 444q0 150 71 234t242 123l207 47v110h84l68 -399l-408 -80q-102 -17 -139 -37t-37 -51q0 -53 99 -77t401 -38l121 -6v-383l-121 29q-264 60 -426 202t-162 326z" />
    <glyph glyph-name="exclamdown.uc" horiz-adv-x="636" 
d="M321 1413q77 0 133 -55t56 -131t-56 -132q-56 -57 -133 -57t-133 56t-55 132q0 77 55 132q56 55 133 55zM559 -86h-481l209 1044h63z" />
    <glyph glyph-name="hyphen.uc" horiz-adv-x="757" 
d="M123 590v213h512v-213h-512z" />
    <glyph glyph-name="endash.uc" horiz-adv-x="962" 
d="M72 649v103h819v-103h-819z" />
    <glyph glyph-name="emdash.uc" horiz-adv-x="1781" 
d="M72 649v103h1638v-103h-1638z" />
    <glyph glyph-name="guilsinglleft.uc" horiz-adv-x="630" 
d="M471 950l47 -39l-203 -329l203 -367l-47 -33l-369 359v55z" />
    <glyph glyph-name="guilsinglright.uc" horiz-adv-x="630" 
d="M160 182l-47 39l202 330l-202 367l47 32l368 -358v-55z" />
    <glyph glyph-name="guillemotleft.uc" horiz-adv-x="1032" 
d="M872 950l48 -39l-203 -329l203 -367l-48 -33l-368 359v55zM471 950l47 -39l-203 -329l203 -367l-47 -33l-369 359v55z" />
    <glyph glyph-name="guillemotright.uc" horiz-adv-x="1032" 
d="M160 182l-47 39l202 330l-202 367l47 32l368 -358v-55zM561 182l-47 39l203 330l-203 367l47 32l369 -358v-55z" />
    <glyph glyph-name="parenleft.uc" horiz-adv-x="745" 
d="M160 642q0 267 128 515t343 424h108q-174 -207 -262 -432t-88 -508q0 -518 342 -928h-98q-219 172 -346 417t-127 512z" />
    <glyph glyph-name="parenright.uc" horiz-adv-x="745" 
d="M586 650q0 -267 -128 -515t-343 -424h-109q174 207 262 432t88 508q0 518 -342 928h99q219 -172 346 -417t127 -512z" />
    <glyph glyph-name="bracketleft.uc" horiz-adv-x="694" 
d="M664 -289h-459v1872h459v-98h-205v-1675h205v-99z" />
    <glyph glyph-name="bracketright.uc" horiz-adv-x="694" 
d="M31 1583h458v-1872h-458v99h205v1675h-205v98z" />
    <glyph glyph-name="braceleft.uc" horiz-adv-x="729" 
d="M702 -209v-80l-34 -2q-233 -14 -337 82q-103 96 -89 279l30 381q6 81 -16 113t-82 34l-82 2v94l82 2q61 2 83 35t15 113l-30 381q-14 182 89 278t337 82l34 -2v-78q-116 0 -158 -46t-40 -167l8 -381q2 -139 -54 -193t-222 -67v-10q168 -15 223 -67t53 -197l-8 -375
q-2 -121 41 -166t157 -45z" />
    <glyph glyph-name="braceright.uc" horiz-adv-x="729" 
d="M27 1503v80l34 2q233 14 337 -82t89 -278l-30 -381q-7 -80 15 -113t83 -35l82 -2v-94l-82 -2q-61 -2 -83 -35t-15 -112l30 -381q14 -182 -89 -278t-337 -83l-34 2v78q115 0 157 46t41 167l-8 381q-1 139 55 193t222 67v10q-168 15 -224 67t-53 198l8 374q2 121 -41 166
t-157 45z" />
    <glyph glyph-name="slash.uc" horiz-adv-x="847" 
d="M66 -365l-89 35l738 1960l92 -37z" />
    <glyph glyph-name="backslash.uc" horiz-adv-x="847" 
d="M879 -332l-88 -35l-742 1958l92 37z" />
    <glyph glyph-name="bar.uc" horiz-adv-x="471" 
d="M283 -379h-95v1964h95v-1964z" />
    <glyph glyph-name="at.uc" horiz-adv-x="1974" 
d="M854 397q37 0 109 113t120 264l52 164q-37 39 -66 39q-88 0 -168 -185t-76 -341q0 -54 29 -54zM659 172q-79 0 -125 54t-47 143q0 139 79 295t216 266t283 108q47 0 117 -18l32 65h252l-137 -559q-29 -137 -5 -188t99 -51q115 0 208 128t95 351q4 274 -173 450t-453 177
q-152 -1 -294 -61q-309 -132 -439 -444q-70 -167 -72 -364q-1 -328 193 -511t495 -183q209 0 358 64v-44q-63 -40 -191 -72t-243 -32q-358 0 -597 189t-236 552q2 207 97 393q182 358 598 518q196 75 394 75q319 1 529 -189t206 -471q-2 -166 -68 -297q-116 -229 -387 -318
q-113 -38 -231 -38t-176 72q-57 73 -30 186l14 59h-10l-43 -67q-152 -238 -308 -238z" />
    <glyph glyph-name="Q.cap" horiz-adv-x="1656" 
d="M858 57q272 0 272 578q0 283 -91 479t-246 197q-119 -1 -193 -145t-74 -448t96 -482t236 -179zM831 1401q309 0 534 -176q111 -87 175 -223t64 -304q0 -233 -138 -407t-356 -254q242 -188 394 -261t338 -73q185 0 339 90l31 -45q-217 -236 -631 -235q-272 0 -483 105
t-582 415q-211 73 -337 239t-126 406q1 303 235 513t543 210z" />
    <glyph glyph-name="Q.short" horiz-adv-x="1656" 
d="M858 57q272 0 272 578q0 283 -91 479t-246 197q-119 -1 -193 -145t-74 -448t96 -482t236 -179zM831 1401q309 0 534 -176q111 -87 175 -223t64 -304q0 -260 -169 -445t-419 -245q20 -12 69 -42t67 -40t95 -53q117 -66 211 -70q84 0 156 43l28 -36q-162 -174 -405 -175
q-162 -1 -328 101t-397 299q-209 73 -334 239t-125 404q1 303 235 513t543 210z" />
    <glyph glyph-name="space.uc" horiz-adv-x="409" 
 />
    </font>
</defs>
</svg>
